<svg id="svg" version="1.1" xmlns="http://www.w3.org/2000/svg" xmlns:xlink="http://www.w3.org/1999/xlink" width="400" height="400" viewBox="0, 0, 400,400"><g id="svgg"><path id="path0" d="M117.200 6.679 C 86.774 8.630,57.561 22.777,37.306 45.370 C 20.103 64.558,10.775 85.223,7.139 112.200 C 6.372 117.892,6.340 282.751,7.105 288.200 C 15.326 346.747,58.687 388.559,116.000 393.204 C 125.736 393.993,284.743 393.522,290.000 392.689 C 306.157 390.127,316.375 386.974,328.616 380.773 C 345.084 372.431,358.099 361.355,371.122 344.600 C 371.293 344.380,372.126 343.120,372.973 341.800 C 373.819 340.480,375.019 338.661,375.640 337.757 C 384.466 324.901,391.559 303.342,393.196 284.400 C 393.734 278.172,393.734 121.828,393.196 115.600 C 388.557 61.901,349.290 18.200,297.000 8.540 C 286.167 6.539,291.873 6.657,202.600 6.595 C 156.840 6.563,118.410 6.601,117.200 6.679 M223.200 88.367 C 223.200 88.568,222.979 88.807,222.709 88.897 C 222.422 88.993,222.085 90.294,221.898 92.030 C 221.722 93.664,221.396 96.440,221.175 98.200 C 220.953 99.960,220.674 102.660,220.555 104.200 C 220.435 105.740,220.172 107.171,219.969 107.380 C 219.766 107.589,219.600 108.984,219.600 110.480 C 219.600 112.027,219.427 113.200,219.200 113.200 C 218.972 113.200,218.800 114.392,218.800 115.976 C 218.800 117.503,218.620 118.864,218.400 119.000 C 218.180 119.136,218.000 120.216,218.000 121.400 C 218.000 122.584,217.820 123.664,217.600 123.800 C 217.380 123.936,217.200 125.466,217.200 127.200 C 217.200 128.934,217.020 130.464,216.800 130.600 C 216.580 130.736,216.400 131.917,216.400 133.224 C 216.400 134.541,216.222 135.600,216.000 135.600 C 215.761 135.600,215.600 137.133,215.600 139.400 C 215.600 142.511,215.491 143.200,215.000 143.200 C 214.524 143.200,214.400 143.778,214.400 146.000 C 214.400 147.540,214.239 148.800,214.042 148.800 C 213.844 148.800,213.553 151.410,213.393 154.600 C 213.185 158.759,212.964 160.400,212.612 160.400 C 212.277 160.400,212.095 161.320,212.038 163.300 C 211.992 164.895,211.785 166.371,211.577 166.580 C 210.861 167.301,211.131 171.798,211.947 172.739 C 212.692 173.598,212.736 173.600,231.923 173.600 C 244.311 173.600,251.241 173.742,251.400 174.000 C 251.536 174.220,251.977 174.400,252.381 174.400 C 253.274 174.400,253.600 175.163,253.600 177.256 C 253.600 178.215,253.759 178.749,254.000 178.600 C 254.220 178.464,254.400 178.633,254.400 178.976 C 254.400 179.319,254.220 179.600,254.000 179.600 C 253.780 179.600,253.600 180.241,253.600 181.024 C 253.600 181.807,253.446 182.352,253.258 182.236 C 253.070 182.119,253.005 182.492,253.114 183.065 C 253.249 183.767,253.100 184.224,252.657 184.472 C 252.295 184.674,252.000 185.163,252.000 185.558 C 252.000 185.953,251.640 186.602,251.200 187.000 C 250.760 187.398,250.400 188.135,250.400 188.638 C 250.400 189.141,250.220 189.664,250.000 189.800 C 249.780 189.936,249.600 190.353,249.600 190.727 C 249.600 191.101,249.240 191.632,248.800 191.907 C 248.356 192.184,248.000 192.840,248.000 193.380 C 248.000 193.915,247.820 194.464,247.600 194.600 C 247.380 194.736,247.200 195.157,247.200 195.535 C 247.200 195.914,246.840 196.483,246.400 196.800 C 245.943 197.129,245.600 197.835,245.600 198.446 C 245.600 199.033,245.330 199.618,245.000 199.745 C 244.670 199.871,244.400 200.251,244.400 200.587 C 244.400 200.924,244.220 201.200,244.000 201.200 C 243.780 201.200,243.600 201.481,243.600 201.824 C 243.600 202.167,243.446 202.352,243.258 202.236 C 243.070 202.119,243.005 202.492,243.114 203.065 C 243.249 203.767,243.100 204.224,242.657 204.472 C 242.295 204.674,242.000 205.163,242.000 205.558 C 242.000 205.953,241.640 206.602,241.200 207.000 C 240.760 207.398,240.400 208.124,240.400 208.613 C 240.400 209.102,240.134 209.723,239.808 209.993 C 239.039 210.632,238.000 212.726,238.000 213.638 C 238.000 214.031,237.820 214.464,237.600 214.600 C 237.380 214.736,237.200 215.157,237.200 215.535 C 237.200 215.914,236.840 216.483,236.400 216.800 C 235.960 217.117,235.600 217.787,235.600 218.288 C 235.600 219.226,234.250 220.916,233.833 220.500 C 233.705 220.372,233.600 220.757,233.600 221.357 C 233.600 221.957,233.453 222.356,233.272 222.245 C 233.092 222.133,233.023 222.573,233.118 223.221 C 233.214 223.874,233.107 224.400,232.880 224.400 C 232.356 224.400,230.400 227.872,230.400 228.801 C 230.400 229.187,230.134 229.723,229.808 229.993 C 229.058 230.616,228.000 232.718,228.000 233.586 C 228.000 233.951,227.640 234.636,227.200 235.108 C 226.760 235.580,226.400 236.244,226.400 236.583 C 226.400 236.922,226.220 237.200,226.000 237.200 C 225.780 237.200,225.600 237.650,225.600 238.200 C 225.600 239.204,224.270 240.936,223.833 240.500 C 223.705 240.372,223.600 240.725,223.600 241.284 C 223.600 242.236,222.747 243.413,222.347 243.014 C 222.248 242.915,222.126 243.383,222.075 244.055 C 221.968 245.458,221.136 247.223,220.226 247.978 C 219.882 248.264,219.600 248.819,219.600 249.211 C 219.600 250.082,217.978 253.200,217.526 253.200 C 217.347 253.200,217.200 253.700,217.200 254.312 C 217.200 254.965,216.870 255.661,216.400 256.000 C 215.960 256.317,215.600 256.903,215.600 257.301 C 215.600 257.699,215.330 258.129,215.000 258.255 C 214.654 258.388,214.400 258.986,214.400 259.666 C 214.400 260.352,214.232 260.743,214.000 260.600 C 213.775 260.461,213.600 260.780,213.600 261.327 C 213.600 262.245,212.738 263.405,212.347 263.014 C 212.248 262.915,212.126 263.383,212.075 264.055 C 211.968 265.458,211.136 267.223,210.226 267.978 C 209.882 268.264,209.600 268.819,209.600 269.211 C 209.600 270.082,207.978 273.200,207.526 273.200 C 207.347 273.200,207.200 273.700,207.200 274.312 C 207.200 274.965,206.870 275.661,206.400 276.000 C 205.960 276.317,205.600 276.903,205.600 277.301 C 205.600 277.699,205.330 278.129,205.000 278.255 C 204.654 278.388,204.400 278.986,204.400 279.666 C 204.400 280.352,204.232 280.743,204.000 280.600 C 203.780 280.464,203.600 280.644,203.600 281.000 C 203.600 281.356,203.452 281.556,203.270 281.443 C 203.089 281.331,202.954 281.636,202.970 282.120 C 202.987 282.604,202.812 282.967,202.583 282.928 C 202.354 282.888,202.124 283.400,202.074 284.065 C 201.968 285.460,201.134 287.225,200.226 287.978 C 199.882 288.264,199.600 288.819,199.600 289.211 C 199.600 290.082,197.978 293.200,197.526 293.200 C 197.347 293.200,197.200 293.700,197.200 294.312 C 197.200 294.965,196.870 295.661,196.400 296.000 C 195.960 296.317,195.600 296.903,195.600 297.301 C 195.600 297.699,195.330 298.129,195.000 298.255 C 194.654 298.388,194.400 298.986,194.400 299.666 C 194.400 300.352,194.232 300.743,194.000 300.600 C 193.780 300.464,193.600 300.644,193.600 301.000 C 193.600 301.356,193.452 301.556,193.270 301.443 C 193.089 301.331,192.954 301.636,192.970 302.120 C 192.987 302.622,192.785 302.957,192.500 302.900 C 192.225 302.845,192.021 302.935,192.047 303.100 C 192.227 304.237,191.895 305.648,191.311 306.231 C 190.407 307.135,189.600 308.717,189.600 309.584 C 189.600 309.964,189.240 310.602,188.800 311.000 C 188.360 311.398,188.000 312.056,188.000 312.462 C 188.000 313.143,187.582 313.200,182.600 313.200 L 177.200 313.200 177.200 311.824 C 177.200 311.067,177.380 310.336,177.600 310.200 C 177.820 310.064,178.000 308.714,178.000 307.200 C 178.000 305.686,178.180 304.336,178.400 304.200 C 178.620 304.064,178.800 302.804,178.800 301.400 C 178.800 299.996,178.980 298.736,179.200 298.600 C 179.420 298.464,179.600 296.934,179.600 295.200 C 179.600 293.466,179.780 291.936,180.000 291.800 C 180.220 291.664,180.400 290.944,180.400 290.200 C 180.400 289.456,180.580 288.736,180.800 288.600 C 181.020 288.464,181.200 286.754,181.200 284.800 C 181.200 282.846,181.380 281.136,181.600 281.000 C 181.820 280.864,182.000 279.683,182.000 278.376 C 182.000 277.059,182.178 276.000,182.400 276.000 C 182.633 276.000,182.800 274.667,182.800 272.800 C 182.800 270.933,182.967 269.600,183.200 269.600 C 183.426 269.600,183.600 268.467,183.600 267.000 C 183.600 265.533,183.774 264.400,184.000 264.400 C 184.228 264.400,184.400 263.208,184.400 261.624 C 184.400 260.097,184.580 258.736,184.800 258.600 C 185.020 258.464,185.200 256.923,185.200 255.176 C 185.200 253.325,185.367 252.000,185.600 252.000 C 185.828 252.000,186.000 250.816,186.000 249.249 C 186.000 247.292,186.173 246.354,186.600 246.000 C 187.017 245.654,187.200 244.733,187.200 242.975 C 187.200 241.585,187.380 240.336,187.600 240.200 C 187.820 240.064,188.000 238.714,188.000 237.200 C 188.000 235.686,188.180 234.336,188.400 234.200 C 188.620 234.064,188.800 232.763,188.800 231.308 C 188.800 226.849,190.599 227.200,167.762 227.200 C 155.050 227.200,147.959 227.058,147.800 226.800 C 147.664 226.580,147.203 226.400,146.776 226.400 C 146.210 226.400,146.000 226.123,146.000 225.376 C 146.000 224.796,145.827 224.460,145.600 224.600 C 145.352 224.753,145.200 224.004,145.200 222.624 C 145.200 221.401,145.380 220.400,145.600 220.400 C 145.820 220.400,146.000 220.062,146.000 219.649 C 146.000 219.236,146.270 218.674,146.600 218.400 C 146.930 218.126,147.200 217.557,147.200 217.134 C 147.200 216.712,147.560 215.980,148.000 215.508 C 148.440 215.036,148.800 214.413,148.800 214.125 C 148.800 213.836,148.980 213.600,149.200 213.600 C 149.420 213.600,149.600 213.082,149.600 212.449 C 149.600 211.816,149.866 211.077,150.192 210.807 C 151.007 210.130,152.000 208.054,152.000 207.027 C 152.000 206.559,152.360 205.917,152.800 205.600 C 153.240 205.283,153.600 204.703,153.600 204.312 C 153.600 203.920,153.780 203.600,154.000 203.600 C 154.220 203.600,154.400 203.100,154.400 202.488 C 154.400 201.835,154.730 201.139,155.200 200.800 C 155.640 200.483,156.000 199.925,156.000 199.561 C 156.000 199.196,156.270 198.674,156.600 198.400 C 156.930 198.126,157.200 197.474,157.200 196.951 C 157.200 196.428,157.350 196.000,157.532 196.000 C 157.715 196.000,158.120 195.505,158.432 194.900 C 158.745 194.295,159.315 193.451,159.700 193.025 C 160.085 192.598,160.400 191.951,160.400 191.586 C 160.400 190.620,161.597 188.376,162.244 188.128 C 162.568 188.004,162.800 187.347,162.800 186.557 C 162.800 185.811,162.980 185.200,163.200 185.200 C 163.420 185.200,163.600 184.880,163.600 184.488 C 163.600 184.097,163.960 183.517,164.400 183.200 C 164.870 182.861,165.200 182.165,165.200 181.512 C 165.200 180.900,165.380 180.400,165.600 180.400 C 165.820 180.400,166.000 180.083,166.000 179.696 C 166.000 179.309,166.450 178.507,167.000 177.913 C 167.550 177.320,168.000 176.555,168.000 176.212 C 168.000 175.488,168.703 174.179,169.700 173.045 C 170.085 172.607,170.400 171.951,170.400 171.586 C 170.400 170.620,171.597 168.376,172.244 168.128 C 172.557 168.008,172.800 167.360,172.800 166.646 C 172.800 165.835,173.089 165.168,173.600 164.800 C 174.040 164.483,174.400 163.903,174.400 163.512 C 174.400 163.120,174.580 162.800,174.800 162.800 C 175.020 162.800,175.200 162.260,175.200 161.600 C 175.200 160.940,175.380 160.400,175.600 160.400 C 175.820 160.400,176.000 160.071,176.000 159.670 C 176.000 159.268,176.450 158.517,177.000 158.000 C 177.550 157.483,178.000 156.643,178.000 156.134 C 178.000 155.624,178.360 154.982,178.800 154.707 C 179.240 154.432,179.600 153.901,179.600 153.527 C 179.600 153.153,179.780 152.736,180.000 152.600 C 180.220 152.464,180.400 151.941,180.400 151.438 C 180.400 150.935,180.760 150.198,181.200 149.800 C 181.640 149.402,182.000 148.834,182.000 148.538 C 182.000 148.242,182.180 148.000,182.400 148.000 C 182.620 148.000,182.800 147.410,182.800 146.688 C 182.800 145.835,183.080 145.175,183.600 144.800 C 184.040 144.483,184.400 143.903,184.400 143.512 C 184.400 143.120,184.580 142.800,184.800 142.800 C 185.020 142.800,185.200 142.342,185.200 141.783 C 185.200 141.224,185.568 140.371,186.018 139.889 C 187.055 138.775,188.000 136.894,188.000 135.942 C 188.000 135.538,188.360 134.982,188.800 134.707 C 189.240 134.432,189.600 133.919,189.600 133.566 C 189.600 133.213,189.960 132.598,190.400 132.200 C 190.840 131.802,191.200 131.141,191.200 130.733 C 191.200 129.899,191.854 128.635,192.900 127.445 C 193.285 127.007,193.600 126.143,193.600 125.525 C 193.600 124.906,193.780 124.400,194.000 124.400 C 194.220 124.400,194.400 124.040,194.400 123.600 C 194.400 123.160,194.580 122.800,194.800 122.800 C 195.020 122.800,195.200 122.517,195.200 122.171 C 195.200 121.826,195.472 121.271,195.804 120.939 C 196.136 120.607,196.310 120.178,196.191 119.985 C 196.072 119.793,196.430 119.337,196.987 118.972 C 197.544 118.607,198.000 117.979,198.000 117.578 C 198.000 117.176,198.180 116.736,198.400 116.600 C 198.620 116.464,198.800 115.913,198.800 115.376 C 198.800 114.839,198.980 114.400,199.200 114.400 C 199.420 114.400,199.600 114.068,199.600 113.662 C 199.600 113.256,199.960 112.598,200.400 112.200 C 200.840 111.802,201.200 111.076,201.200 110.587 C 201.200 110.098,201.466 109.477,201.792 109.207 C 202.607 108.530,203.600 106.454,203.600 105.427 C 203.600 104.959,203.960 104.317,204.400 104.000 C 204.840 103.683,205.200 103.103,205.200 102.712 C 205.200 102.320,205.380 102.000,205.600 102.000 C 205.820 102.000,206.000 101.464,206.000 100.809 C 206.000 99.980,206.304 99.419,207.000 98.963 C 207.550 98.603,208.000 97.979,208.000 97.578 C 208.000 97.176,208.180 96.736,208.400 96.600 C 208.620 96.464,208.800 95.953,208.800 95.465 C 208.800 94.976,209.160 94.317,209.600 94.000 C 210.040 93.683,210.400 93.114,210.400 92.735 C 210.400 92.357,210.580 91.936,210.800 91.800 C 211.020 91.664,211.200 91.170,211.200 90.702 C 211.200 88.514,212.507 88.000,218.070 88.000 C 220.912 88.000,223.200 88.164,223.200 88.367 " stroke="none" fill="#6b6b6b" fill-rule="evenodd"></path><path id="path1" d="M107.800 0.399 C 104.400 0.709,103.200 1.100,103.200 1.899 C 103.200 2.743,106.764 2.338,107.437 1.417 C 107.748 0.991,108.018 0.905,108.185 1.176 C 108.721 2.043,114.391 1.386,115.009 0.385 C 115.267 -0.032,112.468 -0.026,107.800 0.399 M115.825 0.385 C 116.099 0.659,144.289 0.842,201.616 0.943 C 262.180 1.049,287.930 1.224,290.200 1.545 C 291.960 1.794,294.570 2.183,296.000 2.410 C 297.430 2.637,299.320 2.926,300.200 3.053 C 301.080 3.179,301.971 3.444,302.180 3.641 C 302.389 3.838,303.233 4.000,304.056 4.000 C 304.879 4.000,305.664 4.180,305.800 4.400 C 305.936 4.620,306.566 4.800,307.200 4.800 C 307.834 4.800,308.464 4.980,308.600 5.200 C 308.736 5.420,309.456 5.600,310.200 5.600 C 310.944 5.600,311.664 5.780,311.800 6.000 C 311.936 6.220,312.476 6.400,313.000 6.400 C 313.524 6.400,314.064 6.580,314.200 6.800 C 314.336 7.020,314.752 7.197,315.124 7.194 C 316.805 7.179,331.525 13.786,336.844 16.943 C 340.931 19.368,342.450 20.325,345.153 22.177 C 346.778 23.290,348.398 24.380,348.753 24.600 C 349.109 24.820,349.490 25.107,349.600 25.237 C 349.710 25.368,350.689 26.148,351.776 26.971 C 356.484 30.540,365.989 39.595,369.677 44.026 C 370.489 45.002,371.484 46.160,371.888 46.600 C 372.291 47.040,373.059 48.030,373.595 48.800 C 374.130 49.570,374.890 50.435,375.284 50.723 C 375.678 51.010,376.000 51.477,376.000 51.761 C 376.000 52.044,376.360 52.602,376.800 53.000 C 377.240 53.398,377.600 53.966,377.600 54.262 C 377.600 54.558,377.780 54.800,378.000 54.800 C 378.220 54.800,378.400 55.036,378.400 55.325 C 378.400 55.613,378.760 56.236,379.200 56.708 C 379.640 57.180,380.000 57.754,380.000 57.982 C 380.000 58.211,380.630 59.095,381.400 59.947 C 382.170 60.800,382.800 61.880,382.800 62.348 C 382.800 62.817,382.980 63.200,383.200 63.200 C 383.420 63.200,383.600 63.478,383.600 63.817 C 383.600 64.425,383.907 64.895,385.315 66.443 C 385.708 66.876,385.921 67.404,385.789 67.617 C 385.657 67.831,385.831 68.114,386.175 68.246 C 386.519 68.378,386.800 68.826,386.800 69.243 C 386.800 69.659,386.980 70.000,387.200 70.000 C 387.420 70.000,387.600 70.360,387.600 70.800 C 387.600 71.240,387.792 71.600,388.027 71.600 C 388.272 71.600,388.346 71.941,388.200 72.400 C 388.054 72.859,388.128 73.200,388.373 73.200 C 388.608 73.200,388.800 73.465,388.800 73.788 C 388.800 74.111,389.160 75.017,389.600 75.800 C 390.040 76.583,390.400 77.585,390.400 78.025 C 390.400 78.465,390.650 78.921,390.956 79.038 C 391.277 79.162,391.426 79.578,391.309 80.026 C 391.198 80.452,391.308 80.800,391.553 80.800 C 391.799 80.800,392.000 81.340,392.000 82.000 C 392.000 82.660,392.180 83.200,392.400 83.200 C 392.620 83.200,392.800 83.740,392.800 84.400 C 392.800 85.060,392.980 85.600,393.200 85.600 C 393.420 85.600,393.600 86.129,393.600 86.776 C 393.600 87.423,393.780 88.064,394.000 88.200 C 394.220 88.336,394.400 89.000,394.400 89.677 C 394.400 90.437,394.728 91.191,395.261 91.653 C 395.735 92.064,395.915 92.400,395.661 92.400 C 395.408 92.400,395.200 92.760,395.200 93.200 C 395.200 93.640,395.380 94.000,395.600 94.000 C 395.820 94.000,396.000 94.800,396.000 95.777 C 396.000 97.122,396.202 97.696,396.829 98.136 C 397.348 98.499,397.498 98.816,397.229 98.982 C 396.604 99.368,396.704 100.885,397.423 101.911 C 398.346 103.230,398.800 102.995,398.800 101.200 C 398.800 100.320,398.638 99.600,398.440 99.600 C 398.242 99.600,397.986 98.835,397.869 97.900 C 397.753 96.965,397.457 95.300,397.211 94.200 C 396.965 93.100,396.661 91.703,396.536 91.095 C 396.410 90.487,396.149 89.892,395.954 89.771 C 395.759 89.651,395.600 89.043,395.600 88.419 C 395.600 87.781,395.338 87.185,395.000 87.055 C 394.653 86.922,394.400 86.324,394.400 85.636 C 394.400 84.982,394.220 84.336,394.000 84.200 C 393.780 84.064,393.600 83.524,393.600 83.000 C 393.600 82.476,393.420 81.936,393.200 81.800 C 392.980 81.664,392.800 81.113,392.800 80.576 C 392.800 80.039,392.620 79.600,392.400 79.600 C 392.180 79.600,392.000 79.060,392.000 78.400 C 392.000 77.740,391.820 77.200,391.600 77.200 C 391.380 77.200,391.200 76.840,391.200 76.400 C 391.200 75.960,391.020 75.600,390.800 75.600 C 390.580 75.600,390.400 75.150,390.400 74.600 C 390.400 74.050,390.220 73.600,390.000 73.600 C 389.780 73.600,389.600 73.259,389.600 72.843 C 389.600 71.914,385.755 64.372,384.968 63.756 C 384.655 63.512,384.400 63.017,384.400 62.656 C 384.400 62.295,384.220 62.000,384.000 62.000 C 383.780 62.000,383.600 61.640,383.600 61.200 C 383.600 60.760,383.420 60.400,383.200 60.400 C 382.980 60.400,382.800 60.164,382.800 59.875 C 382.800 59.587,382.440 58.964,382.000 58.492 C 381.560 58.020,381.200 57.396,381.200 57.105 C 381.200 56.814,380.840 56.317,380.400 56.000 C 379.960 55.683,379.600 55.103,379.600 54.712 C 379.600 54.320,379.420 54.000,379.200 54.000 C 378.980 54.000,378.800 53.730,378.800 53.400 C 378.800 53.070,378.650 52.800,378.468 52.800 C 378.285 52.800,377.880 52.306,377.568 51.702 C 376.987 50.578,376.382 49.829,374.100 47.406 C 373.385 46.648,372.800 45.843,372.800 45.618 C 372.800 44.944,365.623 37.200,364.999 37.200 C 364.688 37.200,362.800 35.305,362.800 34.993 C 362.800 34.482,355.898 28.000,355.353 28.000 C 355.037 28.000,353.986 27.235,353.016 26.300 C 350.454 23.830,348.276 22.000,347.897 22.000 C 347.715 22.000,347.180 21.640,346.708 21.200 C 346.236 20.760,345.563 20.400,345.213 20.400 C 344.863 20.400,344.317 20.040,344.000 19.600 C 343.683 19.160,343.186 18.800,342.895 18.800 C 342.604 18.800,341.980 18.440,341.508 18.000 C 341.036 17.560,340.413 17.200,340.125 17.200 C 339.836 17.200,339.600 17.020,339.600 16.800 C 339.600 16.580,339.240 16.400,338.800 16.400 C 338.360 16.400,338.000 16.220,338.000 16.000 C 338.000 15.780,337.730 15.600,337.400 15.600 C 337.070 15.600,336.800 15.449,336.800 15.264 C 336.800 15.080,336.082 14.585,335.205 14.164 C 334.327 13.744,333.607 13.265,333.605 13.100 C 333.602 12.935,333.240 12.800,332.800 12.800 C 332.360 12.800,332.000 12.620,332.000 12.400 C 332.000 12.180,331.640 12.000,331.200 12.000 C 330.760 12.000,330.400 11.820,330.400 11.600 C 330.400 11.380,330.051 11.200,329.624 11.200 C 329.197 11.200,328.736 11.020,328.600 10.800 C 328.464 10.580,327.913 10.400,327.376 10.400 C 326.839 10.400,326.400 10.220,326.400 10.000 C 326.400 9.780,325.950 9.600,325.400 9.600 C 324.850 9.600,324.400 9.420,324.400 9.200 C 324.400 8.980,324.040 8.800,323.600 8.800 C 323.160 8.800,322.800 8.620,322.800 8.400 C 322.800 8.180,322.260 8.000,321.600 8.000 C 320.940 8.000,320.400 7.820,320.400 7.600 C 320.400 7.380,320.040 7.200,319.600 7.200 C 319.160 7.200,318.800 7.020,318.800 6.800 C 318.800 6.580,318.271 6.400,317.624 6.400 C 316.977 6.400,316.336 6.220,316.200 6.000 C 316.064 5.780,315.501 5.600,314.948 5.600 C 314.395 5.600,313.673 5.330,313.343 5.000 C 313.013 4.670,312.226 4.400,311.595 4.400 C 310.964 4.400,310.349 4.241,310.229 4.046 C 310.108 3.851,309.513 3.590,308.905 3.464 C 308.297 3.339,306.900 3.035,305.800 2.789 C 304.700 2.543,303.035 2.247,302.100 2.131 C 301.165 2.014,300.400 1.758,300.400 1.560 C 300.400 1.362,299.356 1.200,298.080 1.200 C 296.757 1.200,295.545 0.985,295.260 0.700 C 294.864 0.304,276.172 0.177,205.088 0.088 C 144.115 0.012,115.547 0.107,115.825 0.385 M99.426 1.558 C 99.218 1.894,98.499 2.046,94.300 2.641 C 93.365 2.774,92.429 3.044,92.220 3.241 C 92.011 3.438,91.437 3.600,90.944 3.600 C 90.451 3.600,89.936 3.780,89.800 4.000 C 89.664 4.220,89.036 4.400,88.405 4.400 C 87.774 4.400,86.987 4.670,86.657 5.000 C 86.327 5.330,85.624 5.600,85.095 5.600 C 83.931 5.600,83.584 5.894,83.870 6.639 C 84.114 7.275,85.600 7.413,85.600 6.800 C 85.600 6.580,86.140 6.400,86.800 6.400 C 87.460 6.400,88.000 6.220,88.000 6.000 C 88.000 5.780,88.705 5.600,89.567 5.600 C 90.448 5.600,91.205 5.386,91.297 5.110 C 91.387 4.838,91.994 4.660,92.654 4.710 C 93.402 4.767,94.175 4.496,94.724 3.985 C 95.206 3.536,95.600 3.356,95.600 3.584 C 95.600 4.335,97.542 4.018,98.136 3.171 C 98.499 2.652,98.816 2.502,98.982 2.771 C 99.565 3.714,102.800 2.703,102.800 1.577 C 102.800 1.097,99.722 1.079,99.426 1.558 M81.200 6.800 C 81.200 7.020,80.840 7.200,80.400 7.200 C 79.960 7.200,79.600 7.459,79.600 7.776 C 79.600 8.521,80.504 9.087,80.710 8.471 C 80.796 8.212,81.266 8.000,81.753 8.000 C 82.635 8.000,83.600 7.331,83.600 6.720 C 83.600 6.544,83.060 6.400,82.400 6.400 C 81.740 6.400,81.200 6.580,81.200 6.800 M77.200 8.400 C 77.200 8.620,76.840 8.800,76.400 8.800 C 75.960 8.800,75.600 8.980,75.600 9.200 C 75.600 9.420,75.150 9.600,74.600 9.600 C 73.547 9.600,73.396 9.860,73.946 10.727 C 74.214 11.149,74.563 11.095,75.702 10.455 C 76.484 10.016,77.215 9.749,77.327 9.861 C 77.440 9.973,77.907 9.864,78.366 9.618 C 79.535 8.993,79.433 8.000,78.200 8.000 C 77.650 8.000,77.200 8.180,77.200 8.400 M71.400 10.800 C 71.264 11.020,70.803 11.200,70.376 11.200 C 69.949 11.200,69.600 11.380,69.600 11.600 C 69.600 11.820,69.240 12.000,68.800 12.000 C 68.360 12.000,68.000 12.180,68.000 12.400 C 68.000 12.620,67.640 12.800,67.200 12.800 C 66.760 12.800,66.398 12.935,66.395 13.100 C 66.393 13.265,65.673 13.744,64.795 14.164 C 63.918 14.585,63.200 15.080,63.200 15.264 C 63.200 15.449,62.930 15.600,62.600 15.600 C 62.270 15.600,62.000 15.780,62.000 16.000 C 62.000 16.220,61.640 16.400,61.200 16.400 C 60.760 16.400,60.400 16.580,60.400 16.800 C 60.400 17.020,60.164 17.200,59.875 17.200 C 59.587 17.200,58.964 17.560,58.492 18.000 C 58.020 18.440,57.396 18.800,57.105 18.800 C 56.814 18.800,56.317 19.160,56.000 19.600 C 55.683 20.040,55.137 20.400,54.787 20.400 C 54.437 20.400,53.764 20.760,53.292 21.200 C 52.820 21.640,52.285 22.000,52.103 22.000 C 51.763 22.000,50.157 23.334,46.925 26.300 C 45.906 27.235,44.848 28.000,44.573 28.000 C 44.079 28.000,37.200 34.525,37.200 34.993 C 37.200 35.305,35.312 37.200,35.001 37.200 C 34.377 37.200,27.200 44.944,27.200 45.618 C 27.200 45.843,26.615 46.648,25.900 47.406 C 23.618 49.829,23.013 50.578,22.432 51.702 C 22.120 52.306,21.715 52.800,21.532 52.800 C 21.350 52.800,21.200 53.070,21.200 53.400 C 21.200 53.730,21.020 54.000,20.800 54.000 C 20.580 54.000,20.400 54.320,20.400 54.712 C 20.400 55.103,20.040 55.683,19.600 56.000 C 19.160 56.317,18.800 56.814,18.800 57.105 C 18.800 57.396,18.440 58.020,18.000 58.492 C 17.560 58.964,17.200 59.587,17.200 59.875 C 17.200 60.164,17.020 60.400,16.800 60.400 C 16.580 60.400,16.400 60.760,16.400 61.200 C 16.400 61.640,16.220 62.000,16.000 62.000 C 15.780 62.000,15.600 62.341,15.600 62.757 C 15.600 63.174,15.375 63.605,15.100 63.715 C 14.825 63.825,13.970 65.149,13.200 66.658 C 12.430 68.166,11.665 69.460,11.500 69.533 C 11.335 69.607,11.200 70.001,11.200 70.410 C 11.200 70.818,11.020 71.264,10.800 71.400 C 10.580 71.536,10.400 72.087,10.400 72.624 C 10.400 73.161,10.220 73.600,10.000 73.600 C 9.780 73.600,9.600 74.050,9.600 74.600 C 9.600 75.150,9.420 75.600,9.200 75.600 C 8.980 75.600,8.800 75.960,8.800 76.400 C 8.800 76.840,8.620 77.200,8.400 77.200 C 8.180 77.200,8.000 77.740,8.000 78.400 C 8.000 79.060,7.820 79.600,7.600 79.600 C 7.380 79.600,7.200 80.039,7.200 80.576 C 7.200 81.113,7.020 81.664,6.800 81.800 C 6.580 81.936,6.400 82.476,6.400 83.000 C 6.400 83.524,6.220 84.064,6.000 84.200 C 5.780 84.336,5.600 84.955,5.600 85.575 C 5.600 86.195,5.330 86.926,5.000 87.200 C 4.670 87.474,4.400 88.115,4.400 88.625 C 4.400 89.135,4.220 89.664,4.000 89.800 C 3.780 89.936,3.600 90.566,3.600 91.200 C 3.600 91.834,3.439 92.452,3.242 92.574 C 2.906 92.782,2.694 93.811,2.147 97.900 C 2.022 98.835,1.758 99.600,1.560 99.600 C 1.362 99.600,1.200 100.554,1.200 101.720 C 1.200 102.886,0.975 104.065,0.700 104.340 C -0.035 105.075,-0.035 294.925,0.700 295.660 C 0.975 295.935,1.200 297.114,1.200 298.280 C 1.200 299.446,1.362 300.400,1.560 300.400 C 1.758 300.400,2.014 301.165,2.131 302.100 C 2.247 303.035,2.543 304.700,2.789 305.800 C 3.035 306.900,3.339 308.297,3.464 308.905 C 3.590 309.513,3.851 310.108,4.046 310.229 C 4.241 310.349,4.400 310.865,4.400 311.375 C 4.400 311.885,4.670 312.526,5.000 312.800 C 5.330 313.074,5.600 313.805,5.600 314.425 C 5.600 315.045,5.780 315.664,6.000 315.800 C 6.220 315.936,6.400 316.487,6.400 317.024 C 6.400 317.561,6.580 318.000,6.800 318.000 C 7.020 318.000,7.200 318.540,7.200 319.200 C 7.200 319.860,7.380 320.400,7.600 320.400 C 7.820 320.400,8.000 320.940,8.000 321.600 C 8.000 322.260,8.180 322.800,8.400 322.800 C 8.620 322.800,8.800 323.160,8.800 323.600 C 8.800 324.040,8.980 324.400,9.200 324.400 C 9.420 324.400,9.600 324.850,9.600 325.400 C 9.600 325.950,9.780 326.400,10.000 326.400 C 10.220 326.400,10.399 326.715,10.397 327.100 C 10.392 327.996,13.604 334.400,14.058 334.400 C 14.246 334.400,14.400 334.766,14.400 335.213 C 14.400 335.659,14.670 336.129,15.000 336.255 C 15.330 336.382,15.600 336.826,15.600 337.243 C 15.600 337.659,15.780 338.000,16.000 338.000 C 16.220 338.000,16.400 338.360,16.400 338.800 C 16.400 339.240,16.580 339.600,16.800 339.600 C 17.020 339.600,17.200 339.836,17.200 340.125 C 17.200 340.413,17.560 341.036,18.000 341.508 C 18.440 341.980,18.800 342.604,18.800 342.895 C 18.800 343.186,19.160 343.683,19.600 344.000 C 20.040 344.317,20.400 344.897,20.400 345.288 C 20.400 345.680,20.580 346.000,20.800 346.000 C 21.020 346.000,21.200 346.270,21.200 346.600 C 21.200 346.930,21.350 347.200,21.532 347.200 C 21.715 347.200,22.120 347.694,22.432 348.298 C 23.044 349.482,23.665 350.237,26.300 352.998 C 27.235 353.977,28.000 355.037,28.000 355.353 C 28.000 355.898,34.482 362.800,34.993 362.800 C 35.299 362.800,37.200 364.685,37.200 364.988 C 37.200 365.410,43.186 371.200,43.622 371.200 C 43.861 371.200,44.302 371.425,44.601 371.700 C 44.901 371.975,45.923 372.876,46.873 373.702 C 47.823 374.528,49.310 375.833,50.178 376.602 C 51.046 377.371,51.909 378.000,52.095 378.000 C 52.281 378.000,52.820 378.360,53.292 378.800 C 53.764 379.240,54.437 379.600,54.787 379.600 C 55.137 379.600,55.683 379.960,56.000 380.400 C 56.317 380.840,56.897 381.200,57.288 381.200 C 57.680 381.200,58.000 381.380,58.000 381.600 C 58.000 381.820,58.320 382.000,58.712 382.000 C 59.103 382.000,59.683 382.360,60.000 382.800 C 60.317 383.240,60.897 383.600,61.288 383.600 C 61.680 383.600,62.000 383.780,62.000 384.000 C 62.000 384.220,62.270 384.400,62.600 384.400 C 62.930 384.400,63.200 384.551,63.200 384.736 C 63.200 384.920,63.918 385.415,64.795 385.836 C 65.673 386.256,66.393 386.735,66.395 386.900 C 66.398 387.065,66.760 387.200,67.200 387.200 C 67.640 387.200,68.000 387.380,68.000 387.600 C 68.000 387.820,68.360 388.000,68.800 388.000 C 69.240 388.000,69.600 388.180,69.600 388.400 C 69.600 388.620,69.949 388.800,70.376 388.800 C 70.803 388.800,71.264 388.980,71.400 389.200 C 71.768 389.796,73.701 389.704,73.500 389.100 C 73.409 388.825,72.991 388.533,72.571 388.452 C 72.152 388.371,71.571 387.966,71.282 387.552 C 70.969 387.106,70.276 386.800,69.577 386.800 C 68.930 386.800,68.400 386.620,68.400 386.400 C 68.400 386.180,68.059 386.000,67.643 386.000 C 67.226 386.000,66.778 385.719,66.646 385.375 C 66.514 385.031,66.210 384.870,65.971 385.018 C 65.732 385.166,65.270 384.907,64.945 384.443 C 64.620 383.980,64.095 383.600,63.777 383.600 C 63.460 383.600,63.200 383.420,63.200 383.200 C 63.200 382.980,62.795 382.799,62.300 382.798 C 61.805 382.797,60.825 382.257,60.122 381.598 C 59.419 380.939,58.699 380.400,58.522 380.399 C 58.345 380.399,57.210 379.676,56.000 378.793 C 54.790 377.910,53.485 377.079,53.100 376.947 C 52.715 376.815,52.400 376.548,52.400 376.353 C 52.400 376.159,52.140 376.000,51.823 376.000 C 51.505 376.000,51.010 375.673,50.723 375.273 C 50.435 374.873,49.516 374.085,48.680 373.522 C 47.843 372.959,46.177 371.576,44.977 370.449 C 43.777 369.322,42.647 368.400,42.466 368.400 C 41.593 368.400,29.683 355.465,26.307 350.850 C 25.240 349.393,24.105 347.883,23.784 347.495 C 23.463 347.108,23.200 346.641,23.200 346.457 C 23.200 346.274,22.840 345.798,22.400 345.400 C 21.960 345.002,21.600 344.434,21.600 344.138 C 21.600 343.842,21.457 343.600,21.283 343.600 C 20.749 343.600,16.405 336.117,13.387 330.000 C 11.129 325.422,10.241 323.456,9.594 321.600 C 8.945 319.737,8.050 317.562,7.581 316.705 C 7.371 316.323,7.200 315.659,7.200 315.229 C 7.200 314.799,7.020 314.336,6.800 314.200 C 6.580 314.064,6.400 313.524,6.400 313.000 C 6.400 312.476,6.220 311.936,6.000 311.800 C 5.780 311.664,5.600 310.944,5.600 310.200 C 5.600 309.456,5.420 308.736,5.200 308.600 C 4.980 308.464,4.800 307.823,4.800 307.176 C 4.800 306.529,4.620 306.000,4.400 306.000 C 4.180 306.000,4.000 305.226,4.000 304.280 C 4.000 303.334,3.838 302.389,3.641 302.180 C 3.444 301.971,3.179 301.080,3.053 300.200 C 2.926 299.320,2.640 297.430,2.415 296.000 C 1.012 287.051,1.013 287.093,1.013 200.000 C 1.013 112.907,1.012 112.949,2.415 104.000 C 2.640 102.570,2.926 100.680,3.053 99.800 C 3.179 98.920,3.444 98.029,3.641 97.820 C 3.838 97.611,4.000 96.666,4.000 95.720 C 4.000 94.774,4.180 94.000,4.400 94.000 C 4.620 94.000,4.800 93.471,4.800 92.824 C 4.800 92.177,4.980 91.536,5.200 91.400 C 5.420 91.264,5.600 90.544,5.600 89.800 C 5.600 89.056,5.780 88.336,6.000 88.200 C 6.220 88.064,6.400 87.524,6.400 87.000 C 6.400 86.476,6.580 85.936,6.800 85.800 C 7.020 85.664,7.200 85.201,7.200 84.771 C 7.200 84.341,7.354 83.677,7.541 83.295 C 8.240 81.871,9.129 79.757,9.599 78.400 C 10.074 77.031,11.243 74.434,13.743 69.200 C 15.282 65.978,19.880 58.089,20.868 56.974 C 21.271 56.520,21.600 55.963,21.600 55.736 C 21.600 55.509,21.960 54.998,22.400 54.600 C 22.840 54.202,23.200 53.634,23.200 53.338 C 23.200 53.042,23.350 52.800,23.532 52.800 C 23.715 52.800,24.120 52.305,24.432 51.700 C 24.744 51.095,25.106 50.510,25.236 50.400 C 25.367 50.290,26.148 49.311,26.971 48.224 C 30.314 43.814,40.123 33.422,42.864 31.388 C 43.449 30.953,44.709 29.872,45.664 28.985 C 46.619 28.099,48.030 26.937,48.800 26.403 C 49.570 25.869,50.435 25.110,50.723 24.716 C 51.010 24.322,51.467 24.000,51.738 24.000 C 52.009 24.000,52.853 23.467,53.615 22.816 C 54.377 22.165,55.203 21.625,55.451 21.616 C 55.699 21.607,56.135 21.320,56.419 20.977 C 56.704 20.634,57.491 20.122,58.168 19.838 C 58.846 19.555,59.850 18.848,60.400 18.268 C 60.950 17.688,61.786 17.211,62.258 17.207 C 62.729 17.203,63.693 16.660,64.400 16.000 C 65.107 15.340,66.116 14.800,66.642 14.800 C 67.169 14.800,67.600 14.620,67.600 14.400 C 67.600 14.180,67.960 14.000,68.400 14.000 C 68.840 14.000,69.200 13.820,69.200 13.600 C 69.200 13.380,69.550 13.200,69.977 13.200 C 70.405 13.200,70.992 12.862,71.282 12.448 C 71.571 12.034,72.152 11.629,72.571 11.548 C 72.991 11.467,73.409 11.175,73.500 10.900 C 73.701 10.296,71.768 10.204,71.400 10.800 M397.600 104.140 C 397.600 105.621,398.423 107.600,399.039 107.600 C 399.772 107.600,399.775 104.864,399.043 103.900 C 398.295 102.915,397.600 103.030,397.600 104.140 M398.535 108.624 C 398.198 109.504,398.720 113.514,399.306 114.542 C 399.778 115.372,399.799 115.361,399.933 114.202 C 400.309 110.958,399.254 106.751,398.535 108.624 M399.443 116.233 C 399.020 117.335,399.175 283.343,399.600 284.000 C 399.851 284.388,399.990 254.802,399.994 200.100 C 399.997 153.625,399.929 115.600,399.843 115.600 C 399.756 115.600,399.576 115.885,399.443 116.233 M399.269 285.317 C 398.566 286.164,398.205 291.084,398.794 291.793 C 399.099 292.161,399.133 292.400,398.880 292.400 C 398.270 292.400,397.479 295.096,397.726 296.336 C 397.848 296.945,397.695 297.732,397.369 298.176 C 396.709 299.077,396.618 300.640,397.203 301.002 C 398.010 301.501,398.800 300.070,398.800 298.109 C 398.800 297.037,398.960 295.989,399.155 295.780 C 399.520 295.391,400.224 284.800,399.885 284.800 C 399.782 284.800,399.505 285.033,399.269 285.317 M396.414 302.374 C 396.186 302.799,396.000 303.789,396.000 304.574 C 396.000 305.364,395.799 306.000,395.550 306.000 C 395.262 306.000,395.188 306.438,395.343 307.215 C 395.517 308.087,395.418 308.495,394.993 308.658 C 394.633 308.796,394.400 309.410,394.400 310.219 C 394.400 310.953,394.220 311.664,394.000 311.800 C 393.780 311.936,393.600 312.577,393.600 313.224 C 393.600 313.871,393.420 314.400,393.200 314.400 C 392.980 314.400,392.800 314.940,392.800 315.600 C 392.800 316.260,392.620 316.800,392.400 316.800 C 392.180 316.800,392.000 317.340,392.000 318.000 C 392.000 318.660,391.820 319.200,391.600 319.200 C 391.380 319.200,391.200 319.650,391.200 320.200 C 391.200 320.750,391.020 321.200,390.800 321.200 C 390.580 321.200,390.400 321.543,390.400 321.962 C 390.400 322.381,390.055 323.416,389.633 324.262 C 388.598 326.338,388.258 327.304,388.354 327.900 C 388.399 328.175,388.247 328.400,388.018 328.400 C 387.788 328.400,387.600 328.760,387.600 329.200 C 387.600 329.640,387.420 330.000,387.200 330.000 C 386.980 330.000,386.800 330.341,386.800 330.757 C 386.800 331.174,386.533 331.617,386.207 331.742 C 385.869 331.872,385.715 332.235,385.850 332.585 C 385.979 332.923,385.913 333.200,385.703 333.200 C 385.167 333.200,382.800 337.096,382.800 337.978 C 382.800 338.376,382.532 338.925,382.204 339.197 C 381.407 339.858,378.400 344.284,378.400 344.795 C 378.400 345.018,378.220 345.200,378.000 345.200 C 377.780 345.200,377.600 345.517,377.600 345.904 C 377.600 346.291,377.240 346.832,376.800 347.107 C 376.360 347.382,376.000 347.809,376.000 348.056 C 376.000 348.304,375.676 348.797,375.281 349.153 C 374.886 349.509,374.125 350.430,373.590 351.200 C 373.056 351.970,372.133 353.140,371.540 353.800 C 370.946 354.460,370.088 355.450,369.633 356.000 C 367.324 358.788,361.932 364.438,359.895 366.203 C 358.627 367.301,356.917 368.804,356.095 369.542 C 355.273 370.281,353.700 371.558,352.600 372.382 C 351.499 373.205,350.352 374.176,350.051 374.539 C 349.749 374.903,349.269 375.200,348.984 375.200 C 348.700 375.200,348.407 375.360,348.333 375.555 C 348.194 375.925,337.785 382.800,337.364 382.800 C 337.232 382.800,336.646 383.139,336.062 383.553 C 334.302 384.801,332.012 386.000,331.388 386.000 C 331.065 386.000,330.800 386.180,330.800 386.400 C 330.800 386.620,330.547 386.800,330.238 386.800 C 329.929 386.800,328.984 387.144,328.138 387.564 C 325.385 388.932,321.257 390.800,320.986 390.800 C 320.700 390.800,318.236 391.837,317.105 392.434 C 316.723 392.635,315.969 392.800,315.429 392.800 C 314.889 392.800,314.336 392.980,314.200 393.200 C 314.064 393.420,313.524 393.600,313.000 393.600 C 312.476 393.600,311.936 393.780,311.800 394.000 C 311.664 394.220,310.944 394.400,310.200 394.400 C 309.456 394.400,308.736 394.580,308.600 394.800 C 308.464 395.020,307.834 395.200,307.200 395.200 C 306.566 395.200,305.948 395.361,305.826 395.558 C 305.705 395.755,304.929 396.013,304.103 396.132 C 303.276 396.251,301.700 396.542,300.600 396.778 C 297.349 397.476,294.039 397.982,290.093 398.384 C 288.054 398.591,286.221 398.863,286.020 398.988 C 285.818 399.113,247.706 399.223,201.326 399.234 C 153.715 399.244,116.652 399.406,116.200 399.604 C 115.737 399.808,153.202 399.923,205.080 399.878 C 276.207 399.816,294.864 399.697,295.260 399.300 C 295.544 399.016,296.753 398.800,298.056 398.800 C 299.319 398.800,300.452 398.639,300.574 398.442 C 300.695 398.245,301.516 397.975,302.397 397.842 C 303.279 397.709,304.720 397.491,305.600 397.358 C 306.480 397.225,307.200 396.955,307.200 396.758 C 307.200 396.561,307.819 396.400,308.576 396.400 C 309.333 396.400,310.064 396.220,310.200 396.000 C 310.336 395.780,310.977 395.600,311.624 395.600 C 312.403 395.600,312.800 395.397,312.800 395.000 C 312.800 394.567,313.244 394.400,314.400 394.400 C 315.280 394.400,316.000 394.220,316.000 394.000 C 316.000 393.780,316.630 393.600,317.400 393.600 C 318.170 393.600,318.800 393.420,318.800 393.200 C 318.800 392.980,319.160 392.800,319.600 392.800 C 320.040 392.800,320.400 392.620,320.400 392.400 C 320.400 392.180,320.940 392.000,321.600 392.000 C 322.260 392.000,322.800 391.820,322.800 391.600 C 322.800 391.380,323.160 391.200,323.600 391.200 C 324.040 391.200,324.400 391.020,324.400 390.800 C 324.400 390.580,324.850 390.400,325.400 390.400 C 325.950 390.400,326.400 390.220,326.400 390.000 C 326.400 389.780,326.839 389.600,327.376 389.600 C 327.913 389.600,328.464 389.420,328.600 389.200 C 328.736 388.980,329.197 388.800,329.624 388.800 C 330.051 388.800,330.400 388.620,330.400 388.400 C 330.400 388.180,330.760 388.000,331.200 388.000 C 331.640 388.000,332.000 387.820,332.000 387.600 C 332.000 387.380,332.360 387.200,332.800 387.200 C 333.240 387.200,333.602 387.065,333.605 386.900 C 333.607 386.735,334.327 386.256,335.205 385.836 C 336.082 385.415,336.800 384.920,336.800 384.736 C 336.800 384.551,337.070 384.400,337.400 384.400 C 337.730 384.400,338.000 384.220,338.000 384.000 C 338.000 383.780,338.320 383.600,338.712 383.600 C 339.103 383.600,339.683 383.240,340.000 382.800 C 340.317 382.360,340.897 382.000,341.288 382.000 C 341.680 382.000,342.000 381.820,342.000 381.600 C 342.000 381.380,342.320 381.200,342.712 381.200 C 343.103 381.200,343.683 380.840,344.000 380.400 C 344.317 379.960,344.863 379.600,345.213 379.600 C 345.563 379.600,346.236 379.240,346.708 378.800 C 347.180 378.360,347.719 378.000,347.905 378.000 C 348.091 378.000,348.954 377.371,349.822 376.602 C 350.690 375.833,352.177 374.528,353.127 373.702 C 354.077 372.876,355.099 371.975,355.399 371.700 C 355.698 371.425,356.139 371.200,356.378 371.200 C 356.814 371.200,362.800 365.410,362.800 364.988 C 362.800 364.685,364.701 362.800,365.007 362.800 C 365.518 362.800,372.000 355.898,372.000 355.353 C 372.000 355.037,372.765 353.977,373.700 352.998 C 376.335 350.237,376.956 349.482,377.568 348.298 C 377.880 347.694,378.285 347.200,378.468 347.200 C 378.650 347.200,378.800 346.930,378.800 346.600 C 378.800 346.270,378.980 346.000,379.200 346.000 C 379.420 346.000,379.600 345.680,379.600 345.288 C 379.600 344.897,379.960 344.317,380.400 344.000 C 380.840 343.683,381.200 343.186,381.200 342.895 C 381.200 342.604,381.560 341.980,382.000 341.508 C 382.440 341.036,382.800 340.413,382.800 340.125 C 382.800 339.836,382.980 339.600,383.200 339.600 C 383.420 339.600,383.600 339.240,383.600 338.800 C 383.600 338.360,383.780 338.000,384.000 338.000 C 384.220 338.000,384.400 337.659,384.400 337.243 C 384.400 336.826,384.670 336.382,385.000 336.255 C 385.330 336.129,385.600 335.659,385.600 335.213 C 385.600 334.766,385.754 334.400,385.942 334.400 C 386.396 334.400,389.608 327.996,389.603 327.100 C 389.601 326.715,389.780 326.400,390.000 326.400 C 390.220 326.400,390.400 325.950,390.400 325.400 C 390.400 324.850,390.580 324.400,390.800 324.400 C 391.020 324.400,391.200 324.040,391.200 323.600 C 391.200 323.160,391.380 322.800,391.600 322.800 C 391.820 322.800,392.000 322.260,392.000 321.600 C 392.000 320.940,392.180 320.400,392.400 320.400 C 392.620 320.400,392.800 319.860,392.800 319.200 C 392.800 318.540,392.980 318.000,393.200 318.000 C 393.420 318.000,393.600 317.561,393.600 317.024 C 393.600 316.487,393.780 315.936,394.000 315.800 C 394.220 315.664,394.400 315.018,394.400 314.364 C 394.400 313.676,394.653 313.078,395.000 312.945 C 395.338 312.815,395.600 312.219,395.600 311.581 C 395.600 310.957,395.780 310.336,396.000 310.200 C 396.220 310.064,396.400 309.434,396.400 308.800 C 396.400 308.166,396.561 307.548,396.758 307.426 C 396.955 307.305,397.214 306.529,397.335 305.703 C 397.456 304.876,397.675 303.615,397.823 302.900 C 398.134 301.392,397.139 301.020,396.414 302.374 M73.843 389.433 C 73.485 390.366,73.511 390.400,74.600 390.400 C 75.150 390.400,75.600 390.580,75.600 390.800 C 75.600 391.020,75.960 391.200,76.400 391.200 C 76.840 391.200,77.200 391.380,77.200 391.600 C 77.200 391.820,77.740 392.000,78.400 392.000 C 79.060 392.000,79.600 392.180,79.600 392.400 C 79.600 392.620,79.960 392.800,80.400 392.800 C 80.840 392.800,81.200 392.980,81.200 393.200 C 81.200 393.420,81.729 393.600,82.376 393.600 C 83.023 393.600,83.664 393.780,83.800 394.000 C 83.936 394.220,84.757 394.400,85.624 394.400 C 86.758 394.400,87.200 394.568,87.200 395.000 C 87.200 395.397,87.597 395.600,88.376 395.600 C 89.023 395.600,89.664 395.780,89.800 396.000 C 89.936 396.220,90.667 396.400,91.424 396.400 C 92.181 396.400,92.800 396.580,92.800 396.800 C 92.800 397.020,93.340 397.200,94.000 397.200 C 95.340 397.200,95.561 396.562,94.500 395.757 C 93.632 395.098,92.400 395.042,92.400 395.661 C 92.400 395.915,92.064 395.735,91.653 395.261 C 91.144 394.675,90.443 394.400,89.453 394.400 C 88.654 394.400,88.000 394.220,88.000 394.000 C 88.000 393.780,87.460 393.600,86.800 393.600 C 86.140 393.600,85.600 393.420,85.600 393.200 C 85.600 392.980,85.071 392.800,84.424 392.800 C 83.777 392.800,83.136 392.620,83.000 392.400 C 82.864 392.180,82.313 392.000,81.776 392.000 C 81.239 392.000,80.800 391.808,80.800 391.573 C 80.800 391.337,80.463 391.253,80.047 391.385 C 79.572 391.536,79.208 391.398,79.060 391.012 C 78.931 390.675,78.465 390.400,78.025 390.400 C 77.585 390.400,76.583 390.040,75.800 389.600 C 74.089 388.639,74.146 388.644,73.843 389.433 M95.600 396.757 C 95.600 397.550,96.336 398.000,97.633 398.000 C 98.628 398.000,98.624 396.948,97.626 396.414 C 96.436 395.777,95.600 395.919,95.600 396.757 M98.989 397.218 C 98.514 397.987,99.674 398.800,101.249 398.800 C 102.999 398.800,103.220 398.340,101.911 397.423 C 100.893 396.710,99.369 396.603,98.989 397.218 M103.384 398.027 C 103.239 398.261,103.183 398.486,103.260 398.527 C 103.337 398.567,103.803 398.825,104.295 399.100 C 105.526 399.788,107.600 399.750,107.600 399.039 C 107.600 398.024,103.930 397.143,103.384 398.027 M108.184 398.827 C 107.757 399.517,108.117 399.620,111.849 399.867 C 114.610 400.050,115.300 399.995,114.949 399.620 C 113.991 398.596,108.709 397.977,108.184 398.827 " stroke="none" fill="#070707" fill-rule="evenodd"></path><path id="path2" d="M115.000 1.600 C 114.864 1.820,113.244 2.000,111.400 2.000 C 109.556 2.000,107.936 2.180,107.800 2.400 C 107.664 2.620,106.494 2.800,105.200 2.800 C 103.906 2.800,102.736 2.980,102.600 3.200 C 102.464 3.420,101.564 3.600,100.600 3.600 C 99.636 3.600,98.736 3.780,98.600 4.000 C 98.464 4.220,97.643 4.400,96.776 4.400 C 95.909 4.400,95.200 4.580,95.200 4.800 C 95.200 5.020,94.581 5.200,93.824 5.200 C 93.067 5.200,92.336 5.380,92.200 5.600 C 92.064 5.820,91.344 6.000,90.600 6.000 C 89.856 6.000,89.136 6.180,89.000 6.400 C 88.864 6.620,88.324 6.800,87.800 6.800 C 87.276 6.800,86.750 6.958,86.630 7.151 C 86.511 7.344,85.587 7.710,84.578 7.964 C 83.568 8.218,81.821 8.870,80.696 9.413 C 79.571 9.956,78.495 10.400,78.306 10.400 C 78.116 10.400,77.216 10.760,76.306 11.200 C 75.395 11.640,74.414 12.000,74.125 12.000 C 73.836 12.000,73.600 12.180,73.600 12.400 C 73.600 12.620,73.251 12.800,72.824 12.800 C 72.397 12.800,71.936 12.980,71.800 13.200 C 71.664 13.420,71.203 13.600,70.776 13.600 C 70.349 13.600,70.000 13.780,70.000 14.000 C 70.000 14.220,69.735 14.400,69.412 14.400 C 68.788 14.400,66.498 15.599,64.738 16.847 C 64.154 17.261,63.571 17.600,63.442 17.600 C 62.820 17.600,50.186 26.132,49.200 27.218 C 49.090 27.339,48.460 27.816,47.800 28.277 C 47.140 28.738,45.610 30.046,44.400 31.183 C 43.190 32.321,41.500 33.825,40.645 34.526 C 38.868 35.981,37.134 37.695,35.398 39.710 C 34.737 40.478,32.994 42.432,31.525 44.053 C 25.568 50.624,17.946 62.024,14.041 70.200 C 13.306 71.740,12.186 74.060,11.552 75.356 C 10.918 76.652,10.400 78.011,10.400 78.376 C 10.400 78.741,10.237 79.211,10.038 79.420 C 9.839 79.629,9.181 81.240,8.575 83.000 C 7.969 84.760,7.322 86.371,7.137 86.580 C 6.952 86.789,6.800 87.363,6.800 87.856 C 6.800 88.349,6.620 88.864,6.400 89.000 C 6.180 89.136,6.000 89.856,6.000 90.600 C 6.000 91.344,5.820 92.064,5.600 92.200 C 5.380 92.336,5.200 92.876,5.200 93.400 C 5.200 93.924,5.020 94.464,4.800 94.600 C 4.580 94.736,4.400 95.636,4.400 96.600 C 4.400 97.564,4.220 98.464,4.000 98.600 C 3.780 98.736,3.600 99.636,3.600 100.600 C 3.600 101.564,3.420 102.464,3.200 102.600 C 2.980 102.736,2.800 103.906,2.800 105.200 C 2.800 106.494,2.620 107.664,2.400 107.800 C 2.180 107.936,2.000 109.556,2.000 111.400 C 2.000 113.244,1.820 114.864,1.600 115.000 C 1.046 115.342,1.046 284.658,1.600 285.000 C 1.820 285.136,2.000 286.756,2.000 288.600 C 2.000 290.444,2.180 292.064,2.400 292.200 C 2.620 292.336,2.800 293.506,2.800 294.800 C 2.800 296.094,2.980 297.264,3.200 297.400 C 3.420 297.536,3.600 298.436,3.600 299.400 C 3.600 300.364,3.780 301.264,4.000 301.400 C 4.220 301.536,4.400 302.436,4.400 303.400 C 4.400 304.364,4.580 305.264,4.800 305.400 C 5.020 305.536,5.200 306.076,5.200 306.600 C 5.200 307.124,5.380 307.664,5.600 307.800 C 5.820 307.936,6.000 308.656,6.000 309.400 C 6.000 310.144,6.180 310.864,6.400 311.000 C 6.620 311.136,6.800 311.651,6.800 312.144 C 6.800 312.637,6.952 313.211,7.137 313.420 C 7.322 313.629,7.969 315.240,8.575 317.000 C 9.181 318.760,9.839 320.371,10.038 320.580 C 10.237 320.789,10.400 321.279,10.400 321.668 C 10.400 322.057,10.760 323.017,11.200 323.800 C 11.640 324.583,12.000 325.489,12.000 325.812 C 12.000 326.135,12.180 326.400,12.400 326.400 C 12.620 326.400,12.800 326.651,12.800 326.957 C 12.800 327.462,15.411 332.716,17.540 336.497 C 18.004 337.320,19.962 340.362,21.891 343.255 C 23.821 346.149,25.580 348.803,25.800 349.153 C 26.020 349.502,26.479 350.061,26.819 350.394 C 27.159 350.727,27.877 351.630,28.413 352.400 C 28.950 353.170,30.399 354.880,31.634 356.200 C 32.870 357.520,34.582 359.406,35.440 360.390 C 37.487 362.739,38.315 363.566,40.001 364.943 C 40.770 365.572,42.480 367.111,43.800 368.363 C 45.120 369.615,46.830 371.072,47.600 371.601 C 48.370 372.130,49.270 372.852,49.600 373.206 C 50.884 374.584,64.321 383.259,66.100 383.858 C 66.485 383.987,66.800 384.252,66.800 384.447 C 66.800 384.641,67.115 384.804,67.500 384.809 C 67.885 384.814,68.650 385.170,69.200 385.600 C 69.750 386.030,70.408 386.386,70.662 386.391 C 70.916 386.396,71.861 386.760,72.762 387.200 C 73.663 387.640,75.137 388.360,76.038 388.800 C 76.939 389.240,77.839 389.600,78.040 389.600 C 78.240 389.600,79.258 390.008,80.302 390.507 C 81.346 391.006,83.550 391.834,85.200 392.348 C 86.850 392.862,88.513 393.444,88.895 393.641 C 89.277 393.838,90.132 394.000,90.795 394.000 C 91.458 394.000,92.000 394.180,92.000 394.400 C 92.000 394.620,92.720 394.800,93.600 394.800 C 94.480 394.800,95.200 394.980,95.200 395.200 C 95.200 395.420,95.909 395.600,96.776 395.600 C 97.643 395.600,98.464 395.780,98.600 396.000 C 98.736 396.220,99.636 396.400,100.600 396.400 C 101.564 396.400,102.464 396.580,102.600 396.800 C 102.736 397.020,103.906 397.200,105.200 397.200 C 106.494 397.200,107.664 397.380,107.800 397.600 C 107.936 397.820,109.556 398.000,111.400 398.000 C 113.244 398.000,114.864 398.180,115.000 398.400 C 115.326 398.928,284.480 398.956,285.020 398.428 C 285.229 398.224,286.930 397.961,288.800 397.844 C 294.188 397.509,296.970 397.158,297.380 396.765 C 297.589 396.564,298.523 396.400,299.456 396.400 C 300.389 396.400,301.264 396.220,301.400 396.000 C 301.536 395.780,302.357 395.600,303.224 395.600 C 304.091 395.600,304.800 395.420,304.800 395.200 C 304.800 394.980,305.520 394.800,306.400 394.800 C 307.280 394.800,308.000 394.620,308.000 394.400 C 308.000 394.180,308.542 394.000,309.205 394.000 C 309.868 394.000,310.723 393.838,311.105 393.641 C 311.487 393.444,313.150 392.862,314.800 392.348 C 316.450 391.834,318.654 391.006,319.698 390.507 C 320.742 390.008,321.760 389.600,321.960 389.600 C 322.161 389.600,323.016 389.261,323.862 388.847 C 324.708 388.433,326.210 387.736,327.200 387.297 C 331.294 385.483,334.647 383.763,335.375 383.103 C 335.802 382.716,336.276 382.400,336.429 382.400 C 337.096 382.400,349.033 374.602,350.335 373.316 C 350.629 373.026,351.529 372.297,352.335 371.698 C 353.141 371.098,354.700 369.764,355.800 368.733 C 356.900 367.702,358.510 366.260,359.378 365.529 C 361.513 363.731,363.140 362.108,364.725 360.198 C 365.454 359.319,367.299 357.306,368.825 355.725 C 370.351 354.144,371.601 352.704,371.602 352.525 C 371.603 352.346,372.098 351.652,372.702 350.981 C 373.306 350.311,373.980 349.489,374.200 349.155 C 383.628 334.842,382.814 336.182,385.833 330.000 C 387.068 327.470,388.421 324.708,388.840 323.862 C 389.258 323.016,389.600 322.161,389.600 321.960 C 389.600 321.760,390.050 320.663,390.600 319.523 C 391.150 318.383,391.600 317.160,391.600 316.805 C 391.600 316.450,391.749 315.989,391.930 315.780 C 392.112 315.571,392.490 314.590,392.769 313.600 C 393.049 312.610,393.440 311.487,393.639 311.105 C 393.838 310.723,394.000 309.969,394.000 309.429 C 394.000 308.889,394.180 308.336,394.400 308.200 C 394.620 308.064,394.800 307.434,394.800 306.800 C 394.800 306.166,394.980 305.536,395.200 305.400 C 395.420 305.264,395.600 304.364,395.600 303.400 C 395.600 302.436,395.780 301.536,396.000 301.400 C 396.220 301.264,396.400 300.389,396.400 299.456 C 396.400 298.523,396.564 297.589,396.765 297.380 C 397.158 296.970,397.509 294.188,397.844 288.800 C 397.961 286.930,398.224 285.229,398.428 285.020 C 398.956 284.480,398.928 115.326,398.400 115.000 C 398.180 114.864,398.000 113.244,398.000 111.400 C 398.000 109.556,397.820 107.936,397.600 107.800 C 397.380 107.664,397.200 106.494,397.200 105.200 C 397.200 103.906,397.020 102.736,396.800 102.600 C 396.580 102.464,396.400 101.564,396.400 100.600 C 396.400 99.636,396.220 98.736,396.000 98.600 C 395.780 98.464,395.600 97.564,395.600 96.600 C 395.600 95.636,395.420 94.736,395.200 94.600 C 394.980 94.464,394.800 93.823,394.800 93.176 C 394.800 92.529,394.620 92.000,394.400 92.000 C 394.180 92.000,394.000 91.381,394.000 90.624 C 394.000 89.867,393.820 89.136,393.600 89.000 C 393.380 88.864,393.200 88.324,393.200 87.800 C 393.200 87.276,393.020 86.736,392.800 86.600 C 392.580 86.464,392.400 85.924,392.400 85.400 C 392.400 84.876,392.220 84.336,392.000 84.200 C 391.780 84.064,391.600 83.637,391.600 83.251 C 391.600 82.865,391.150 81.617,390.600 80.477 C 390.050 79.337,389.600 78.248,389.600 78.058 C 389.600 77.868,389.079 76.652,388.442 75.356 C 387.805 74.060,386.449 71.290,385.429 69.200 C 382.744 63.699,376.835 54.092,374.779 51.885 C 374.351 51.425,374.000 50.901,374.000 50.721 C 374.000 50.540,373.460 49.828,372.800 49.137 C 372.140 48.446,371.600 47.732,371.600 47.550 C 371.600 47.368,370.685 46.270,369.567 45.109 C 368.449 43.949,366.604 41.937,365.467 40.637 C 362.864 37.661,361.526 36.324,358.563 33.736 C 357.263 32.601,355.502 31.026,354.650 30.236 C 353.797 29.446,352.980 28.800,352.833 28.800 C 352.687 28.800,351.913 28.183,351.114 27.430 C 348.788 25.236,336.649 17.332,333.100 15.701 C 332.275 15.322,331.600 14.874,331.600 14.706 C 331.600 14.538,331.335 14.400,331.012 14.400 C 330.689 14.400,329.783 14.040,329.000 13.600 C 328.217 13.160,327.311 12.800,326.988 12.800 C 326.665 12.800,326.400 12.620,326.400 12.400 C 326.400 12.180,326.147 12.000,325.838 12.000 C 325.529 12.000,324.584 11.657,323.738 11.237 C 322.892 10.817,320.670 9.897,318.800 9.191 C 316.930 8.486,314.809 7.659,314.086 7.354 C 313.364 7.050,312.430 6.800,312.010 6.800 C 311.590 6.800,311.136 6.620,311.000 6.400 C 310.864 6.180,310.144 6.000,309.400 6.000 C 308.656 6.000,307.936 5.820,307.800 5.600 C 307.664 5.380,306.933 5.200,306.176 5.200 C 305.419 5.200,304.800 5.020,304.800 4.800 C 304.800 4.580,304.091 4.400,303.224 4.400 C 302.357 4.400,301.536 4.220,301.400 4.000 C 301.264 3.780,300.364 3.600,299.400 3.600 C 298.436 3.600,297.536 3.420,297.400 3.200 C 297.264 2.980,296.094 2.800,294.800 2.800 C 293.506 2.800,292.336 2.620,292.200 2.400 C 292.064 2.180,290.444 2.000,288.600 2.000 C 286.756 2.000,285.136 1.820,285.000 1.600 C 284.658 1.046,115.342 1.046,115.000 1.600 M289.800 7.301 C 313.664 11.169,331.444 18.592,347.921 31.566 C 374.418 52.429,390.282 81.874,393.196 115.600 C 393.734 121.828,393.734 278.172,393.196 284.400 C 391.559 303.342,384.466 324.901,375.640 337.757 C 375.019 338.661,373.819 340.480,372.973 341.800 C 372.126 343.120,371.293 344.380,371.122 344.600 C 358.099 361.355,345.084 372.431,328.616 380.773 C 316.375 386.974,306.157 390.127,290.000 392.689 C 284.743 393.522,125.736 393.993,116.000 393.204 C 58.687 388.559,15.326 346.747,7.105 288.200 C 6.340 282.751,6.372 117.892,7.139 112.200 C 15.078 53.295,59.865 10.356,117.200 6.679 C 125.848 6.124,286.103 6.702,289.800 7.301 M206.480 99.280 C 206.216 99.544,206.021 100.129,206.046 100.580 C 206.092 101.383,206.097 101.384,206.289 100.600 C 206.398 100.160,206.669 99.575,206.892 99.300 C 207.410 98.662,207.112 98.648,206.480 99.280 M212.934 157.600 C 212.934 159.250,213.005 159.925,213.091 159.100 C 213.178 158.275,213.178 156.925,213.091 156.100 C 213.005 155.275,212.934 155.950,212.934 157.600 M176.827 158.171 C 176.325 158.706,176.009 159.381,176.126 159.671 C 176.265 160.021,176.348 159.964,176.368 159.500 C 176.386 159.115,176.537 158.800,176.704 158.800 C 176.871 158.800,177.232 158.440,177.507 158.000 C 178.175 156.931,177.936 156.991,176.827 158.171 M166.419 178.577 C 166.147 178.905,166.017 179.404,166.131 179.687 C 166.266 180.023,166.348 179.970,166.368 179.533 C 166.386 179.167,166.625 178.786,166.900 178.688 C 167.175 178.590,167.291 178.391,167.157 178.245 C 167.023 178.100,166.691 178.249,166.419 178.577 M252.954 182.577 C 252.832 182.894,252.803 183.479,252.889 183.877 C 252.987 184.328,253.124 184.112,253.254 183.300 C 253.471 181.938,253.330 181.596,252.954 182.577 M156.419 198.577 C 156.147 198.905,156.017 199.404,156.131 199.687 C 156.266 200.023,156.348 199.970,156.368 199.533 C 156.386 199.167,156.625 198.786,156.900 198.688 C 157.175 198.590,157.291 198.391,157.157 198.245 C 157.023 198.100,156.691 198.249,156.419 198.577 M242.954 202.577 C 242.832 202.894,242.803 203.479,242.889 203.877 C 242.987 204.328,243.124 204.112,243.254 203.300 C 243.471 201.938,243.330 201.596,242.954 202.577 M146.419 218.577 C 146.147 218.905,146.017 219.404,146.131 219.687 C 146.266 220.023,146.348 219.970,146.368 219.533 C 146.386 219.167,146.625 218.786,146.900 218.688 C 147.175 218.590,147.291 218.391,147.157 218.245 C 147.023 218.100,146.691 218.249,146.419 218.577 M145.324 222.600 C 145.326 223.920,145.401 224.412,145.490 223.693 C 145.579 222.974,145.577 221.894,145.486 221.293 C 145.395 220.692,145.322 221.280,145.324 222.600 M232.954 222.577 C 232.832 222.894,232.803 223.479,232.889 223.877 C 232.987 224.328,233.124 224.112,233.254 223.300 C 233.471 221.938,233.330 221.596,232.954 222.577 M186.128 248.800 C 186.128 250.230,186.201 250.815,186.289 250.100 C 186.378 249.385,186.378 248.215,186.289 247.500 C 186.201 246.785,186.128 247.370,186.128 248.800 M185.197 255.282 C 185.088 257.197,185.143 258.620,185.318 258.444 C 185.493 258.268,185.581 256.701,185.515 254.962 L 185.393 251.800 185.197 255.282 M179.682 313.096 C 181.158 313.173,183.678 313.173,185.282 313.097 C 186.887 313.021,185.680 312.958,182.600 312.958 C 179.520 312.957,178.207 313.019,179.682 313.096 " stroke="none" fill="#5c5c5c" fill-rule="evenodd"></path><path id="path3" d="M115.008 0.387 C 114.872 0.607,114.184 0.954,113.480 1.158 L 112.200 1.528 113.400 1.551 C 114.699 1.576,116.305 0.636,115.652 0.232 C 115.434 0.097,115.144 0.167,115.008 0.387 M107.600 1.189 C 107.600 1.429,107.195 1.789,106.700 1.988 C 106.205 2.187,106.070 2.355,106.400 2.362 C 107.279 2.380,108.540 1.334,108.024 1.015 C 107.791 0.871,107.600 0.949,107.600 1.189 M285.000 1.200 C 285.136 1.420,285.822 1.582,286.524 1.560 C 287.743 1.522,287.755 1.506,286.800 1.200 C 285.364 0.740,284.716 0.740,285.000 1.200 M102.114 2.300 C 101.544 2.879,101.420 3.200,101.765 3.200 C 102.390 3.200,103.339 2.172,103.138 1.713 C 103.062 1.541,102.601 1.805,102.114 2.300 M98.080 3.220 C 97.787 3.689,97.754 4.000,97.997 4.000 C 98.218 4.000,98.400 3.825,98.400 3.610 C 98.400 3.396,98.895 3.282,99.500 3.358 C 100.105 3.434,100.330 3.411,100.000 3.305 C 99.670 3.200,99.213 2.962,98.984 2.777 C 98.734 2.576,98.372 2.754,98.080 3.220 M294.433 2.544 C 294.525 2.623,295.590 2.799,296.800 2.934 C 298.270 3.098,298.801 3.052,298.400 2.796 C 297.856 2.448,294.042 2.206,294.433 2.544 M94.629 4.059 C 94.162 4.509,93.385 4.766,92.659 4.711 C 91.995 4.660,91.387 4.838,91.297 5.110 C 91.205 5.386,90.448 5.600,89.567 5.600 C 88.705 5.600,88.000 5.780,88.000 6.000 C 88.000 6.220,87.460 6.400,86.800 6.400 C 86.140 6.400,85.600 6.580,85.600 6.800 C 85.600 7.020,85.240 7.200,84.800 7.200 C 84.360 7.200,84.000 6.980,84.000 6.711 C 84.000 6.442,83.720 6.622,83.377 7.111 C 83.033 7.603,82.333 8.000,81.811 8.000 C 81.291 8.000,80.791 8.225,80.698 8.500 C 80.567 8.890,80.384 8.879,79.865 8.451 C 79.294 7.980,79.200 7.991,79.200 8.531 C 79.200 8.877,78.885 9.344,78.500 9.568 C 78.115 9.792,77.937 9.981,78.105 9.988 C 78.407 10.000,78.953 9.763,80.695 8.862 C 81.187 8.608,81.941 8.400,82.371 8.400 C 82.801 8.400,83.264 8.220,83.400 8.000 C 83.536 7.780,84.076 7.600,84.600 7.600 C 85.124 7.600,85.664 7.420,85.800 7.200 C 85.936 6.980,86.476 6.800,87.000 6.800 C 87.524 6.800,88.064 6.620,88.200 6.400 C 88.336 6.180,89.045 6.000,89.775 6.000 C 90.505 6.000,91.311 5.749,91.566 5.441 C 91.821 5.134,92.364 4.970,92.774 5.077 C 93.183 5.184,93.942 5.040,94.459 4.756 C 94.977 4.473,95.850 4.265,96.400 4.295 C 97.182 4.337,97.226 4.300,96.600 4.128 C 96.160 4.007,95.710 3.775,95.600 3.612 C 95.490 3.450,95.053 3.651,94.629 4.059 M299.233 3.343 C 299.650 3.702,302.397 3.919,302.185 3.576 C 302.057 3.369,301.303 3.200,300.510 3.200 C 299.716 3.200,299.142 3.265,299.233 3.343 M304.200 4.469 C 305.080 4.676,306.387 4.946,307.104 5.067 C 307.821 5.189,308.506 5.449,308.627 5.644 C 308.748 5.840,309.456 6.000,310.200 6.000 C 310.944 6.000,311.664 6.180,311.800 6.400 C 311.936 6.620,312.476 6.800,313.000 6.800 C 313.524 6.800,314.064 6.980,314.200 7.200 C 314.336 7.420,314.851 7.600,315.344 7.600 C 315.837 7.600,316.437 7.797,316.678 8.038 C 316.918 8.278,317.447 8.411,317.853 8.333 C 318.311 8.245,317.910 7.988,316.795 7.656 C 315.808 7.363,314.687 6.960,314.305 6.761 C 313.923 6.562,313.259 6.400,312.829 6.400 C 312.399 6.400,311.936 6.220,311.800 6.000 C 311.664 5.780,310.944 5.600,310.200 5.600 C 309.456 5.600,308.736 5.420,308.600 5.200 C 308.464 4.980,307.834 4.800,307.200 4.800 C 306.566 4.800,305.936 4.620,305.800 4.400 C 305.664 4.180,304.888 4.021,304.076 4.046 L 302.600 4.092 304.200 4.469 M75.639 10.478 C 74.667 11.031,74.198 11.120,73.995 10.792 C 73.799 10.474,73.636 10.528,73.468 10.966 C 73.335 11.315,72.903 11.600,72.509 11.600 C 72.115 11.600,71.568 11.960,71.293 12.400 C 70.678 13.385,70.748 13.387,72.662 12.437 C 73.508 12.017,74.993 11.325,75.962 10.899 C 76.931 10.473,77.561 10.030,77.362 9.914 C 77.163 9.799,76.388 10.053,75.639 10.478 M326.033 11.753 C 326.497 12.179,335.991 16.709,335.812 16.420 C 335.568 16.025,326.771 11.600,326.231 11.600 C 326.030 11.600,325.942 11.669,326.033 11.753 M69.200 13.600 C 69.200 13.820,68.840 14.000,68.400 14.000 C 67.960 14.000,67.600 14.174,67.600 14.387 C 67.600 14.828,68.622 14.523,69.789 13.734 C 70.478 13.267,70.491 13.200,69.889 13.200 C 69.510 13.200,69.200 13.380,69.200 13.600 M64.250 16.051 C 63.617 16.683,62.717 17.203,62.250 17.207 C 61.782 17.211,60.950 17.688,60.400 18.268 C 59.850 18.848,58.846 19.555,58.168 19.838 C 57.491 20.122,56.704 20.634,56.419 20.977 C 56.135 21.320,55.699 21.607,55.451 21.616 C 55.203 21.625,54.377 22.165,53.615 22.816 C 52.853 23.467,52.009 24.000,51.738 24.000 C 51.467 24.000,51.010 24.322,50.723 24.716 C 50.435 25.110,49.570 25.869,48.800 26.403 C 48.030 26.937,46.619 28.099,45.664 28.985 C 44.709 29.872,43.449 30.953,42.864 31.388 C 40.123 33.422,30.314 43.814,26.971 48.224 C 26.148 49.311,25.367 50.290,25.236 50.400 C 25.106 50.510,24.744 51.095,24.432 51.700 C 24.120 52.305,23.715 52.800,23.532 52.800 C 23.350 52.800,23.200 53.013,23.200 53.274 C 23.200 53.535,22.809 54.164,22.332 54.673 C 21.854 55.181,21.569 55.703,21.699 55.832 C 21.828 55.962,23.006 54.477,24.316 52.534 C 25.626 50.590,27.081 48.657,27.549 48.238 C 28.017 47.819,28.400 47.310,28.400 47.107 C 28.400 46.776,34.750 39.699,37.811 36.619 C 43.775 30.618,58.566 19.200,60.376 19.200 C 60.609 19.200,60.800 19.065,60.800 18.899 C 60.800 18.734,61.655 18.151,62.700 17.604 C 66.119 15.815,67.478 14.791,66.356 14.851 C 65.830 14.880,64.882 15.420,64.250 16.051 M336.400 16.959 C 336.400 17.215,339.674 19.259,339.832 19.102 C 340.030 18.903,338.041 17.436,337.100 17.086 C 336.715 16.942,336.400 16.886,336.400 16.959 M340.400 19.344 C 340.400 19.439,341.345 20.117,342.500 20.850 C 363.183 33.982,381.325 56.038,390.497 79.200 C 390.715 79.750,391.052 80.513,391.247 80.895 C 391.441 81.277,391.600 81.941,391.600 82.371 C 391.600 82.801,391.780 83.264,392.000 83.400 C 392.220 83.536,392.400 84.076,392.400 84.600 C 392.400 85.124,392.580 85.664,392.800 85.800 C 393.020 85.936,393.200 86.451,393.200 86.944 C 393.200 87.437,393.366 88.011,393.569 88.220 C 393.772 88.429,394.015 89.140,394.109 89.800 L 394.280 91.000 394.340 89.724 C 394.373 89.022,394.220 88.336,394.000 88.200 C 393.780 88.064,393.600 87.423,393.600 86.776 C 393.600 86.129,393.420 85.600,393.200 85.600 C 392.980 85.600,392.800 85.060,392.800 84.400 C 392.800 83.740,392.620 83.200,392.400 83.200 C 392.180 83.200,392.000 82.660,392.000 82.000 C 392.000 81.340,391.799 80.800,391.553 80.800 C 391.308 80.800,391.198 80.452,391.309 80.026 C 391.426 79.578,391.277 79.162,390.956 79.038 C 390.650 78.921,390.400 78.465,390.400 78.025 C 390.400 77.585,390.040 76.583,389.600 75.800 C 389.160 75.017,388.800 74.111,388.800 73.788 C 388.800 73.465,388.608 73.200,388.373 73.200 C 388.128 73.200,388.054 72.859,388.200 72.400 C 388.346 71.941,388.272 71.600,388.027 71.600 C 387.792 71.600,387.600 71.240,387.600 70.800 C 387.600 70.360,387.420 70.000,387.200 70.000 C 386.980 70.000,386.800 69.659,386.800 69.243 C 386.800 68.826,386.519 68.378,386.175 68.246 C 385.831 68.114,385.657 67.831,385.789 67.617 C 385.921 67.404,385.708 66.876,385.315 66.443 C 383.907 64.895,383.600 64.425,383.600 63.817 C 383.600 63.478,383.420 63.200,383.200 63.200 C 382.980 63.200,382.800 62.817,382.800 62.348 C 382.800 61.880,382.170 60.800,381.400 59.947 C 380.630 59.095,380.000 58.211,380.000 57.982 C 380.000 57.754,379.640 57.180,379.200 56.708 C 378.760 56.236,378.400 55.613,378.400 55.325 C 378.400 55.036,378.220 54.800,378.000 54.800 C 377.780 54.800,377.600 54.558,377.600 54.262 C 377.600 53.966,377.240 53.398,376.800 53.000 C 376.360 52.602,376.000 52.044,376.000 51.761 C 376.000 51.477,375.678 51.010,375.284 50.723 C 374.890 50.435,374.130 49.570,373.595 48.800 C 373.059 48.030,372.291 47.040,371.888 46.600 C 371.484 46.160,370.489 45.002,369.677 44.026 C 365.989 39.595,356.484 30.540,351.776 26.971 C 350.689 26.148,349.710 25.368,349.600 25.237 C 349.490 25.107,349.109 24.820,348.753 24.600 C 348.398 24.380,346.778 23.283,345.153 22.162 C 342.094 20.051,340.400 19.046,340.400 19.344 M20.731 57.100 C 19.785 58.217,15.110 66.337,13.651 69.400 C 12.917 70.940,12.142 72.533,11.930 72.939 C 11.718 73.345,11.618 73.751,11.708 73.841 C 11.798 73.931,12.777 72.150,13.885 69.883 C 14.993 67.616,17.167 63.655,18.718 61.081 C 20.268 58.506,21.489 56.400,21.430 56.400 C 21.372 56.400,21.057 56.715,20.731 57.100 M8.372 81.448 C 8.120 82.082,7.753 82.913,7.557 83.295 C 7.361 83.677,7.200 84.341,7.200 84.771 C 7.200 85.201,7.020 85.664,6.800 85.800 C 6.580 85.936,6.400 86.476,6.400 87.000 C 6.400 87.524,6.220 88.064,6.000 88.200 C 5.780 88.336,5.600 89.031,5.600 89.744 C 5.600 90.457,5.405 91.235,5.166 91.474 C 4.928 91.712,4.813 92.333,4.912 92.854 C 5.080 93.740,5.095 93.732,5.146 92.724 C 5.175 92.132,5.380 91.536,5.600 91.400 C 5.820 91.264,6.000 90.634,6.000 90.000 C 6.000 89.366,6.180 88.736,6.400 88.600 C 6.620 88.464,6.800 87.859,6.800 87.256 C 6.800 86.653,6.949 85.989,7.130 85.780 C 7.312 85.571,7.705 84.590,8.002 83.600 C 8.300 82.610,8.717 81.571,8.929 81.290 C 9.141 81.010,9.205 80.672,9.072 80.539 C 8.939 80.406,8.624 80.815,8.372 81.448 M394.666 91.700 C 394.839 91.975,394.951 92.560,394.916 93.000 C 394.865 93.633,394.894 93.654,395.055 93.100 C 395.167 92.715,395.438 92.400,395.658 92.400 C 395.877 92.400,395.787 92.130,395.457 91.800 C 394.729 91.072,394.233 91.009,394.666 91.700 M4.000 95.600 C 4.000 96.480,4.071 97.200,4.158 97.200 C 4.245 97.200,4.385 96.480,4.469 95.600 C 4.552 94.720,4.481 94.000,4.311 94.000 C 4.140 94.000,4.000 94.720,4.000 95.600 M395.531 95.600 C 395.615 96.480,395.755 97.200,395.842 97.200 C 395.929 97.200,396.000 96.480,396.000 95.600 C 396.000 94.720,395.860 94.000,395.689 94.000 C 395.519 94.000,395.448 94.720,395.531 95.600 M3.467 97.867 C 3.320 98.013,3.221 98.778,3.246 99.567 L 3.292 101.000 3.604 99.400 C 3.931 97.719,3.905 97.428,3.467 97.867 M396.000 97.825 C 396.000 98.291,397.155 99.197,397.349 98.883 C 397.458 98.705,397.200 98.343,396.774 98.077 C 396.348 97.811,396.000 97.698,396.000 97.825 M2.649 101.815 C 2.512 102.173,2.422 103.216,2.450 104.133 C 2.498 105.731,2.513 105.710,2.818 103.602 C 3.147 101.334,3.085 100.681,2.649 101.815 M396.800 101.765 C 396.800 102.390,397.828 103.339,398.287 103.138 C 398.459 103.062,398.195 102.601,397.700 102.114 C 397.121 101.544,396.800 101.420,396.800 101.765 M397.644 106.200 C 397.616 107.396,398.525 108.419,399.223 107.977 C 399.705 107.672,399.690 107.611,399.133 107.606 C 398.767 107.603,398.286 107.105,398.065 106.500 C 397.755 105.651,397.659 105.583,397.644 106.200 M398.441 113.054 C 398.392 114.554,399.385 116.737,399.720 115.865 C 399.839 115.553,399.752 115.112,399.526 114.886 C 399.299 114.659,398.972 113.872,398.798 113.137 L 398.482 111.800 398.441 113.054 M1.260 113.067 C 1.227 113.544,1.084 114.264,0.941 114.667 C 0.742 115.231,0.795 115.296,1.172 114.949 C 1.442 114.701,1.585 113.981,1.491 113.349 C 1.370 112.539,1.302 112.456,1.260 113.067 M398.895 284.710 C 398.623 285.287,398.427 286.309,398.460 286.980 L 398.520 288.200 398.693 287.000 C 398.789 286.340,399.113 285.526,399.413 285.191 C 399.714 284.856,399.831 284.375,399.675 284.121 C 399.493 283.826,399.212 284.038,398.895 284.710 M1.063 286.080 C 1.400 287.849,1.600 288.001,1.600 286.490 C 1.600 285.807,1.423 285.138,1.206 285.004 C 0.960 284.852,0.906 285.255,1.063 286.080 M398.080 292.420 C 397.816 292.843,397.611 293.507,397.625 293.895 C 397.643 294.399,397.763 294.319,398.045 293.611 C 398.262 293.068,398.630 292.505,398.863 292.361 C 399.102 292.213,399.128 292.003,398.923 291.876 C 398.723 291.753,398.344 291.998,398.080 292.420 M2.406 296.033 C 2.409 297.005,2.585 298.070,2.796 298.400 C 3.052 298.801,3.098 298.270,2.934 296.800 C 2.627 294.052,2.398 293.720,2.406 296.033 M397.273 297.287 C 397.013 297.547,396.800 298.034,396.800 298.369 C 396.800 298.787,397.001 298.691,397.441 298.063 C 398.143 297.061,398.028 296.532,397.273 297.287 M3.200 300.510 C 3.200 301.303,3.369 302.057,3.576 302.185 C 3.801 302.324,3.859 301.809,3.720 300.909 C 3.410 298.900,3.200 298.739,3.200 300.510 M396.498 301.433 C 396.224 301.726,396.000 302.188,396.000 302.460 C 396.000 302.778,396.178 302.729,396.500 302.322 C 396.775 301.976,397.261 301.614,397.580 301.519 C 398.085 301.369,398.085 301.318,397.578 301.124 C 397.258 301.001,396.772 301.140,396.498 301.433 M4.064 304.300 C 4.029 305.235,4.180 306.000,4.400 306.000 C 4.620 306.000,4.800 306.529,4.800 307.176 C 4.800 307.823,4.980 308.464,5.200 308.600 C 5.420 308.736,5.600 309.456,5.600 310.200 C 5.600 310.944,5.780 311.664,6.000 311.800 C 6.220 311.936,6.400 312.476,6.400 313.000 C 6.400 313.524,6.580 314.064,6.800 314.200 C 7.020 314.336,7.200 314.776,7.200 315.178 C 7.200 315.580,7.469 316.424,7.798 317.054 C 8.176 317.779,8.396 317.952,8.398 317.524 C 8.399 317.152,8.220 316.736,8.000 316.600 C 7.780 316.464,7.600 315.924,7.600 315.400 C 7.600 314.876,7.420 314.336,7.200 314.200 C 6.980 314.064,6.800 313.423,6.800 312.776 C 6.800 312.129,6.620 311.600,6.400 311.600 C 6.180 311.600,6.000 310.981,6.000 310.224 C 6.000 309.467,5.820 308.736,5.600 308.600 C 5.380 308.464,5.200 307.859,5.200 307.256 C 5.200 306.653,5.033 305.989,4.829 305.780 C 4.624 305.571,4.383 304.770,4.293 304.000 C 4.136 302.668,4.125 302.682,4.064 304.300 M395.664 304.276 C 395.629 304.978,395.440 305.652,395.244 305.773 C 394.719 306.097,394.468 308.846,394.980 308.665 C 395.211 308.583,395.344 308.012,395.275 307.397 C 395.207 306.781,395.355 306.151,395.605 305.997 C 395.859 305.840,395.986 305.117,395.894 304.358 L 395.728 303.000 395.664 304.276 M394.060 310.276 C 394.027 310.978,393.820 311.664,393.600 311.800 C 393.380 311.936,393.200 312.476,393.200 313.000 C 393.200 313.524,393.020 314.064,392.800 314.200 C 392.580 314.336,392.400 314.876,392.400 315.400 C 392.400 315.924,392.220 316.464,392.000 316.600 C 391.780 316.736,391.600 317.199,391.600 317.629 C 391.600 318.059,391.441 318.723,391.247 319.105 C 391.052 319.487,390.671 320.340,390.400 321.000 C 390.129 321.660,389.748 322.513,389.553 322.895 C 389.359 323.277,389.200 323.862,389.200 324.195 C 389.200 324.528,389.020 324.800,388.800 324.800 C 388.580 324.800,388.400 325.052,388.400 325.359 C 388.400 325.667,387.860 326.945,387.200 328.200 C 386.540 329.455,386.000 330.733,386.000 331.041 C 386.000 331.348,385.865 331.601,385.700 331.603 C 385.535 331.605,385.208 332.010,384.974 332.503 C 380.735 341.421,373.712 351.079,363.336 362.255 C 360.677 365.119,352.476 372.170,348.271 375.207 C 345.294 377.357,343.930 378.640,346.200 377.155 C 347.300 376.435,348.260 375.701,348.333 375.523 C 348.407 375.345,348.700 375.200,348.984 375.200 C 349.269 375.200,349.749 374.903,350.051 374.539 C 350.352 374.176,351.499 373.205,352.600 372.382 C 353.700 371.558,355.273 370.281,356.095 369.542 C 356.917 368.804,358.627 367.301,359.895 366.203 C 361.932 364.438,367.324 358.788,369.633 356.000 C 370.088 355.450,370.946 354.460,371.540 353.800 C 372.133 353.140,373.056 351.970,373.590 351.200 C 374.125 350.430,374.886 349.509,375.281 349.153 C 375.676 348.797,376.000 348.304,376.000 348.056 C 376.000 347.809,376.360 347.382,376.800 347.107 C 377.240 346.832,377.600 346.291,377.600 345.904 C 377.600 345.517,377.780 345.200,378.000 345.200 C 378.220 345.200,378.400 345.018,378.400 344.795 C 378.400 344.284,381.407 339.858,382.204 339.197 C 382.532 338.925,382.800 338.376,382.800 337.978 C 382.800 337.096,385.167 333.200,385.703 333.200 C 385.913 333.200,385.979 332.923,385.850 332.585 C 385.715 332.235,385.869 331.872,386.207 331.742 C 386.533 331.617,386.800 331.174,386.800 330.757 C 386.800 330.341,386.980 330.000,387.200 330.000 C 387.420 330.000,387.600 329.640,387.600 329.200 C 387.600 328.760,387.788 328.400,388.018 328.400 C 388.247 328.400,388.399 328.175,388.354 327.900 C 388.258 327.304,388.598 326.338,389.633 324.262 C 390.055 323.416,390.400 322.381,390.400 321.962 C 390.400 321.543,390.580 321.200,390.800 321.200 C 391.020 321.200,391.200 320.750,391.200 320.200 C 391.200 319.650,391.380 319.200,391.600 319.200 C 391.820 319.200,392.000 318.660,392.000 318.000 C 392.000 317.340,392.180 316.800,392.400 316.800 C 392.620 316.800,392.800 316.260,392.800 315.600 C 392.800 314.940,392.980 314.400,393.200 314.400 C 393.420 314.400,393.600 313.896,393.600 313.280 C 393.600 312.664,393.794 311.966,394.031 311.729 C 394.268 311.492,394.385 310.781,394.291 310.149 L 394.120 309.000 394.060 310.276 M11.608 326.236 C 11.601 326.615,13.382 330.186,16.674 336.393 C 17.710 338.346,18.400 339.212,18.400 338.560 C 18.400 338.340,18.230 337.989,18.021 337.780 C 17.813 337.571,16.287 334.790,14.630 331.600 C 12.973 328.410,11.613 325.996,11.608 326.236 M19.244 340.700 C 19.744 341.525,20.342 342.515,20.573 342.900 C 20.804 343.285,21.131 343.600,21.300 343.600 C 21.470 343.600,20.951 342.610,20.147 341.400 C 18.494 338.910,17.862 338.420,19.244 340.700 M21.600 344.338 C 21.600 344.524,21.960 345.002,22.400 345.400 C 22.840 345.798,23.200 346.274,23.200 346.457 C 23.200 346.641,23.463 347.108,23.784 347.495 C 24.105 347.883,25.240 349.393,26.307 350.850 C 29.683 355.465,41.593 368.400,42.466 368.400 C 42.647 368.400,43.777 369.322,44.977 370.449 C 46.177 371.576,47.843 372.959,48.680 373.522 C 49.516 374.085,50.435 374.873,50.723 375.273 C 51.010 375.673,51.505 376.000,51.823 376.000 C 52.140 376.000,52.400 376.159,52.400 376.353 C 52.400 376.548,52.715 376.815,53.100 376.947 C 53.485 377.079,54.790 377.910,56.000 378.793 C 57.210 379.676,58.345 380.399,58.522 380.399 C 58.699 380.400,59.419 380.939,60.122 381.598 C 60.825 382.257,61.805 382.797,62.300 382.798 C 62.795 382.799,63.200 382.980,63.200 383.200 C 63.200 383.420,63.460 383.600,63.777 383.600 C 64.095 383.600,64.620 383.980,64.945 384.443 C 65.270 384.907,65.732 385.166,65.971 385.018 C 66.210 384.870,66.514 385.031,66.646 385.375 C 66.778 385.719,67.226 386.000,67.643 386.000 C 68.059 386.000,68.400 386.180,68.400 386.400 C 68.400 386.620,68.895 386.790,69.500 386.777 C 70.500 386.756,70.436 386.674,68.798 385.877 C 66.973 384.988,57.168 379.220,56.800 378.818 C 56.690 378.698,55.430 377.805,54.000 376.832 C 48.444 373.055,39.316 365.213,35.630 361.050 C 34.437 359.703,32.421 357.520,31.151 356.200 C 28.729 353.684,28.324 353.161,24.403 347.500 C 22.074 344.136,21.600 343.602,21.600 344.338 M341.647 379.676 C 340.683 380.359,337.902 382.061,335.468 383.458 C 333.033 384.856,331.251 386.000,331.508 386.000 C 332.029 386.000,334.434 384.708,336.062 383.553 C 336.646 383.139,337.225 382.800,337.349 382.800 C 337.603 382.800,343.189 379.275,343.780 378.743 C 344.715 377.900,343.252 378.540,341.647 379.676 M71.293 387.600 C 71.568 388.040,72.115 388.400,72.509 388.400 C 72.903 388.400,73.335 388.685,73.468 389.034 C 73.637 389.473,73.798 389.526,73.996 389.207 C 74.199 388.878,74.703 388.984,75.752 389.573 C 76.562 390.028,77.585 390.400,78.025 390.400 C 78.465 390.400,78.931 390.675,79.060 391.012 C 79.208 391.398,79.572 391.536,80.047 391.385 C 80.463 391.253,80.800 391.337,80.800 391.573 C 80.800 391.808,81.239 392.000,81.776 392.000 C 82.313 392.000,82.864 392.180,83.000 392.400 C 83.136 392.620,83.777 392.800,84.424 392.800 C 85.071 392.800,85.600 392.980,85.600 393.200 C 85.600 393.420,86.140 393.600,86.800 393.600 C 87.460 393.600,88.000 393.780,88.000 394.000 C 88.000 394.220,88.675 394.373,89.500 394.340 C 90.853 394.286,90.882 394.263,89.800 394.109 C 89.140 394.015,88.429 393.772,88.220 393.569 C 88.011 393.366,87.437 393.200,86.944 393.200 C 86.451 393.200,85.936 393.020,85.800 392.800 C 85.664 392.580,85.124 392.400,84.600 392.400 C 84.076 392.400,83.536 392.220,83.400 392.000 C 83.264 391.780,82.801 391.600,82.371 391.600 C 81.941 391.600,81.277 391.441,80.895 391.247 C 80.513 391.052,79.660 390.671,79.000 390.400 C 78.340 390.129,77.487 389.748,77.105 389.553 C 76.723 389.359,76.138 389.200,75.805 389.200 C 75.472 389.200,75.200 389.020,75.200 388.800 C 75.200 388.580,74.935 388.400,74.612 388.400 C 74.289 388.400,73.383 388.040,72.600 387.600 C 71.817 387.160,71.090 386.800,70.984 386.800 C 70.879 386.800,71.018 387.160,71.293 387.600 M327.200 387.600 C 326.430 388.022,325.997 388.374,326.239 388.383 C 326.740 388.402,329.200 387.229,329.200 386.971 C 329.200 386.646,328.594 386.837,327.200 387.600 M319.000 391.200 C 318.864 391.420,318.324 391.600,317.800 391.600 C 317.276 391.600,316.736 391.780,316.600 392.000 C 316.464 392.220,315.924 392.400,315.400 392.400 C 314.876 392.400,314.336 392.580,314.200 392.800 C 314.064 393.020,313.549 393.200,313.056 393.200 C 312.563 393.200,311.989 393.366,311.780 393.569 C 311.571 393.772,310.860 394.015,310.200 394.109 L 309.000 394.280 310.276 394.340 C 310.978 394.373,311.664 394.220,311.800 394.000 C 311.936 393.780,312.476 393.600,313.000 393.600 C 313.524 393.600,314.064 393.420,314.200 393.200 C 314.336 392.980,314.889 392.800,315.429 392.800 C 315.969 392.800,316.723 392.636,317.105 392.436 C 317.487 392.236,318.430 391.790,319.200 391.445 C 319.970 391.100,320.296 390.814,319.924 390.809 C 319.552 390.804,319.136 390.980,319.000 391.200 M91.200 394.605 C 91.200 394.744,91.470 395.127,91.800 395.457 C 92.130 395.787,92.400 395.864,92.400 395.629 C 92.400 394.562,94.812 395.535,95.304 396.800 C 95.492 397.284,95.543 397.267,95.568 396.709 C 95.607 395.871,93.927 394.696,92.925 394.861 C 92.526 394.926,91.975 394.839,91.700 394.666 C 91.425 394.494,91.200 394.466,91.200 394.605 M307.200 394.821 C 306.430 395.002,305.170 395.323,304.400 395.534 L 303.000 395.918 304.276 395.959 C 304.978 395.982,305.664 395.820,305.800 395.600 C 305.936 395.380,306.566 395.200,307.200 395.200 C 307.834 395.200,308.464 395.020,308.600 394.800 C 308.736 394.580,308.792 394.421,308.724 394.446 C 308.656 394.471,307.970 394.640,307.200 394.821 M97.700 396.432 C 98.085 396.656,98.403 397.146,98.406 397.520 C 98.411 398.075,98.478 398.096,98.770 397.635 C 99.171 397.002,98.399 395.992,97.529 396.012 C 97.196 396.020,97.259 396.175,97.700 396.432 M301.200 396.400 C 300.376 396.664,300.341 396.726,301.000 396.754 C 301.440 396.773,302.070 396.613,302.400 396.400 C 303.101 395.947,302.614 395.947,301.200 396.400 M102.114 397.705 C 102.616 398.218,103.118 398.445,103.271 398.228 C 103.568 397.811,102.492 396.833,101.714 396.813 C 101.447 396.806,101.627 397.207,102.114 397.705 M297.400 397.200 C 297.108 397.673,297.499 397.673,298.600 397.200 C 299.371 396.869,299.369 396.855,298.524 396.828 C 298.042 396.813,297.536 396.980,297.400 397.200 M106.500 398.065 C 107.105 398.286,107.603 398.767,107.606 399.133 C 107.611 399.690,107.672 399.705,107.977 399.223 C 108.419 398.525,107.396 397.616,106.200 397.644 C 105.583 397.659,105.651 397.755,106.500 398.065 M292.400 398.000 C 291.605 398.514,292.604 398.514,293.800 398.000 L 294.600 397.656 293.800 397.634 C 293.360 397.622,292.730 397.787,292.400 398.000 M113.098 398.790 C 113.811 398.959,114.621 399.279,114.898 399.500 C 115.184 399.729,115.743 399.763,116.200 399.579 C 116.968 399.269,116.965 399.255,116.124 399.228 C 115.642 399.213,115.136 399.020,115.000 398.800 C 114.864 398.580,114.088 398.418,113.276 398.441 L 111.800 398.482 113.098 398.790 M284.984 398.826 C 284.805 399.115,285.212 399.162,286.261 398.972 C 288.303 398.603,288.455 398.400,286.690 398.400 C 285.897 398.400,285.129 398.591,284.984 398.826 " stroke="none" fill="#343434" fill-rule="evenodd"></path><path id="path4" d="M115.000 1.200 C 114.864 1.420,113.179 1.600,111.256 1.600 C 109.333 1.600,107.589 1.763,107.380 1.961 C 107.171 2.160,106.640 2.409,106.200 2.515 C 105.583 2.663,105.647 2.718,106.476 2.754 C 107.068 2.779,107.664 2.620,107.800 2.400 C 107.936 2.180,109.556 2.000,111.400 2.000 C 113.244 2.000,114.864 1.820,115.000 1.600 C 115.342 1.046,284.658 1.046,285.000 1.600 C 285.136 1.820,286.756 2.000,288.600 2.000 C 290.444 2.000,292.064 2.180,292.200 2.400 C 292.336 2.620,292.932 2.792,293.524 2.782 C 296.200 2.739,291.218 1.612,288.324 1.606 C 286.632 1.603,285.136 1.420,285.000 1.200 C 284.658 0.646,115.342 0.646,115.000 1.200 M102.600 2.800 C 102.464 3.020,101.958 3.221,101.476 3.246 C 100.811 3.282,100.767 3.337,101.293 3.474 C 101.673 3.574,102.389 3.373,102.882 3.028 C 103.375 2.683,103.569 2.400,103.313 2.400 C 103.057 2.400,102.736 2.580,102.600 2.800 M98.400 3.571 C 98.400 3.775,98.085 4.024,97.700 4.124 C 97.109 4.279,97.102 4.314,97.651 4.354 C 98.009 4.379,98.526 4.130,98.800 3.800 C 99.144 3.385,99.159 3.200,98.849 3.200 C 98.602 3.200,98.400 3.367,98.400 3.571 M80.800 8.790 C 80.470 8.979,79.525 9.418,78.700 9.767 C 72.688 12.305,70.065 13.589,70.876 13.595 C 71.248 13.598,71.664 13.420,71.800 13.200 C 71.936 12.980,72.397 12.800,72.824 12.800 C 73.251 12.800,73.600 12.620,73.600 12.400 C 73.600 12.180,73.836 12.000,74.125 12.000 C 74.414 12.000,75.395 11.640,76.306 11.200 C 77.216 10.760,78.116 10.400,78.306 10.400 C 78.496 10.400,79.539 9.959,80.625 9.421 C 81.711 8.883,82.330 8.443,82.000 8.445 C 81.670 8.446,81.130 8.601,80.800 8.790 M319.400 9.409 C 320.500 9.927,321.670 10.352,322.000 10.353 C 322.330 10.354,321.850 10.050,320.933 9.678 C 320.016 9.305,319.131 8.865,318.967 8.700 C 318.802 8.535,318.382 8.415,318.033 8.433 C 317.685 8.452,318.300 8.891,319.400 9.409 M322.800 10.583 C 322.800 10.824,325.263 12.000,325.761 11.998 C 326.003 11.996,325.750 11.762,325.200 11.476 C 323.872 10.787,322.800 10.388,322.800 10.583 M335.200 16.767 C 336.163 17.552,336.800 17.808,336.800 17.410 C 336.800 17.306,336.215 16.935,335.500 16.586 L 334.200 15.952 335.200 16.767 M61.700 18.088 C 61.205 18.327,60.800 18.679,60.800 18.870 C 60.800 19.062,61.250 18.924,61.800 18.563 C 63.267 17.602,63.216 17.357,61.700 18.088 M55.541 22.121 C 50.273 25.682,47.870 27.521,44.459 30.603 C 42.997 31.924,40.673 33.977,39.296 35.166 C 37.919 36.354,36.874 37.407,36.972 37.506 C 37.071 37.604,37.589 37.261,38.123 36.742 C 38.657 36.224,39.793 35.226,40.647 34.526 C 41.501 33.825,43.190 32.321,44.400 31.183 C 45.610 30.046,47.140 28.738,47.800 28.277 C 48.460 27.816,49.090 27.339,49.200 27.218 C 49.725 26.640,54.134 23.471,56.996 21.615 C 60.507 19.337,60.702 19.190,60.167 19.221 C 59.965 19.233,57.884 20.538,55.541 22.121 M339.633 19.362 C 339.887 19.610,348.515 25.353,349.200 25.731 C 349.530 25.913,349.350 25.688,348.800 25.232 C 346.578 23.387,338.369 18.131,339.633 19.362 M350.000 26.175 C 350.000 26.578,351.896 28.282,353.000 28.871 C 353.440 29.106,353.620 29.140,353.400 28.948 C 353.180 28.755,352.325 27.978,351.500 27.220 C 350.675 26.463,350.000 25.992,350.000 26.175 M354.000 29.445 C 354.000 29.714,354.146 29.852,358.419 33.600 C 361.524 36.324,362.831 37.627,365.479 40.637 C 368.766 44.372,371.090 46.800,371.379 46.800 C 371.968 46.800,362.090 36.411,358.180 32.918 C 355.881 30.863,354.000 29.301,354.000 29.445 M32.483 42.369 C 30.237 44.772,28.400 46.881,28.400 47.054 C 28.400 47.356,29.312 46.426,33.800 41.544 C 36.123 39.017,36.965 38.000,36.732 38.000 C 36.640 38.000,34.728 39.966,32.483 42.369 M371.600 47.415 C 371.601 47.896,373.546 50.189,373.763 49.965 C 373.850 49.874,373.400 49.177,372.761 48.415 C 372.122 47.653,371.600 47.203,371.600 47.415 M27.134 48.700 C 25.984 49.945,23.461 53.600,23.752 53.600 C 23.857 53.600,24.790 52.475,25.825 51.100 C 26.861 49.725,27.886 48.375,28.103 48.100 C 28.837 47.171,28.157 47.592,27.134 48.700 M374.026 50.600 C 374.025 51.173,375.151 52.583,375.406 52.327 C 375.524 52.210,375.261 51.683,374.823 51.157 C 374.385 50.630,374.026 50.380,374.026 50.600 M376.709 54.500 C 377.341 55.435,378.813 57.685,379.980 59.500 C 382.006 62.649,382.971 63.824,381.951 61.900 C 381.151 60.391,375.996 52.800,375.772 52.800 C 375.656 52.800,376.078 53.565,376.709 54.500 M21.715 56.300 C 20.217 58.452,18.810 60.856,19.318 60.395 C 19.517 60.214,22.630 55.646,23.369 54.450 C 23.522 54.202,23.573 54.000,23.482 54.000 C 23.390 54.000,22.595 55.035,21.715 56.300 M18.308 61.700 C 17.433 63.049,16.648 64.656,17.087 64.200 C 17.648 63.617,19.298 60.800,19.079 60.800 C 18.976 60.800,18.629 61.205,18.308 61.700 M15.800 66.000 C 15.459 66.660,15.269 67.200,15.379 67.200 C 15.489 67.200,15.859 66.660,16.200 66.000 C 16.541 65.340,16.731 64.800,16.621 64.800 C 16.511 64.800,16.141 65.340,15.800 66.000 M384.067 66.312 C 384.140 66.484,384.895 68.059,385.744 69.812 C 388.015 74.499,389.451 77.630,390.012 79.113 C 390.284 79.835,390.604 80.330,390.721 80.212 C 390.838 80.095,390.747 79.594,390.518 79.099 C 390.289 78.605,389.740 77.390,389.299 76.400 C 387.803 73.046,384.288 66.000,384.110 66.000 C 384.013 66.000,383.993 66.141,384.067 66.312 M11.556 74.656 C 11.068 75.725,10.597 76.735,10.510 76.900 C 10.424 77.065,10.437 77.200,10.541 77.200 C 10.831 77.200,12.815 73.081,12.619 72.885 C 12.523 72.790,12.045 73.587,11.556 74.656 M10.046 78.276 C 10.021 78.758,9.820 79.264,9.600 79.400 C 9.380 79.536,9.201 79.952,9.202 80.324 C 9.204 80.744,9.437 80.556,9.817 79.825 C 10.154 79.179,10.354 78.369,10.261 78.025 C 10.155 77.631,10.076 77.724,10.046 78.276 M395.646 97.676 C 395.621 98.048,395.780 98.464,396.000 98.600 C 396.220 98.736,396.400 99.636,396.400 100.600 C 396.400 101.564,396.580 102.464,396.800 102.600 C 397.020 102.736,397.200 103.906,397.200 105.200 C 397.200 106.494,397.380 107.664,397.600 107.800 C 397.820 107.936,398.000 109.556,398.000 111.400 C 398.000 113.244,398.180 114.864,398.400 115.000 C 398.928 115.326,398.956 284.480,398.428 285.020 C 398.224 285.229,397.961 286.930,397.844 288.800 C 397.509 294.188,397.158 296.970,396.765 297.380 C 396.564 297.589,396.400 298.498,396.400 299.400 C 396.400 300.302,396.203 301.237,395.962 301.478 C 395.722 301.718,395.611 302.249,395.716 302.658 C 395.873 303.269,395.915 303.241,395.954 302.500 C 395.979 302.005,396.180 301.600,396.400 301.600 C 396.620 301.600,396.800 300.711,396.800 299.624 C 396.800 298.537,396.980 297.536,397.200 297.400 C 397.420 297.264,397.600 296.184,397.600 295.000 C 397.600 293.816,397.780 292.736,398.000 292.600 C 398.220 292.464,398.400 290.754,398.400 288.800 C 398.400 286.846,398.580 285.136,398.800 285.000 C 399.354 284.658,399.354 115.342,398.800 115.000 C 398.580 114.864,398.400 113.154,398.400 111.200 C 398.400 109.246,398.220 107.536,398.000 107.400 C 397.780 107.264,397.600 106.184,397.600 105.000 C 397.600 103.816,397.420 102.736,397.200 102.600 C 396.980 102.464,396.800 101.463,396.800 100.376 C 396.800 99.289,396.633 98.400,396.429 98.400 C 396.225 98.400,395.976 98.085,395.876 97.700 C 395.711 97.069,395.688 97.067,395.646 97.676 M2.100 107.159 C 1.825 108.054,1.600 110.130,1.600 111.770 C 1.600 113.411,1.420 114.864,1.200 115.000 C 0.646 115.342,0.646 284.658,1.200 285.000 C 1.420 285.136,1.603 286.632,1.606 288.324 C 1.612 291.218,2.739 296.200,2.782 293.524 C 2.792 292.932,2.620 292.336,2.400 292.200 C 2.180 292.064,2.000 290.444,2.000 288.600 C 2.000 286.756,1.820 285.136,1.600 285.000 C 1.046 284.658,1.046 115.342,1.600 115.000 C 1.820 114.864,2.000 113.269,2.000 111.456 C 2.000 109.621,2.192 107.968,2.434 107.726 C 2.672 107.488,2.807 106.896,2.734 106.411 C 2.630 105.729,2.487 105.898,2.100 107.159 M7.628 315.476 C 7.613 315.958,7.780 316.464,8.000 316.600 C 8.473 316.892,8.473 316.501,8.000 315.400 C 7.669 314.629,7.655 314.631,7.628 315.476 M8.422 317.432 C 8.410 317.670,8.842 318.930,9.383 320.232 C 9.924 321.534,10.374 322.225,10.383 321.767 C 10.392 321.308,10.265 320.798,10.100 320.633 C 9.935 320.469,9.495 319.584,9.122 318.667 C 8.750 317.750,8.435 317.194,8.422 317.432 M390.013 320.887 C 389.253 322.903,388.287 325.020,386.052 329.569 C 384.926 331.861,384.073 333.807,384.158 333.892 C 384.243 333.976,384.556 333.496,384.854 332.823 C 385.152 332.150,385.531 331.600,385.698 331.600 C 385.864 331.600,386.000 331.348,386.000 331.041 C 386.000 330.733,386.540 329.455,387.200 328.200 C 387.860 326.945,388.400 325.667,388.400 325.359 C 388.400 325.052,388.580 324.800,388.800 324.800 C 389.020 324.800,389.200 324.528,389.200 324.195 C 389.200 323.862,389.359 323.277,389.553 322.895 C 390.567 320.901,390.914 319.980,390.721 319.788 C 390.604 319.670,390.285 320.165,390.013 320.887 M10.691 323.500 C 11.186 324.802,11.995 326.203,11.998 325.761 C 12.000 325.263,10.824 322.800,10.583 322.800 C 10.496 322.800,10.545 323.115,10.691 323.500 M15.800 334.000 C 16.141 334.660,16.511 335.200,16.621 335.200 C 16.731 335.200,16.541 334.660,16.200 334.000 C 15.859 333.340,15.489 332.800,15.379 332.800 C 15.269 332.800,15.459 333.340,15.800 334.000 M378.662 342.561 C 376.745 345.509,374.912 348.141,374.588 348.410 C 374.265 348.678,374.004 349.101,374.009 349.349 C 374.023 350.082,380.418 341.030,381.956 338.100 C 383.047 336.021,381.936 337.526,378.662 342.561 M18.400 338.632 C 18.400 338.951,23.244 346.000,23.464 346.000 C 23.665 346.000,23.719 346.089,20.847 341.695 C 18.824 338.599,18.400 338.069,18.400 338.632 M25.006 348.512 C 25.392 349.124,25.809 349.524,25.932 349.401 C 26.055 349.278,25.739 348.778,25.230 348.289 L 24.304 347.400 25.006 348.512 M27.061 351.407 C 28.692 353.423,36.514 362.000,36.720 362.000 C 36.921 362.000,34.828 359.613,31.634 356.200 C 30.399 354.880,28.947 353.170,28.407 352.400 C 27.250 350.748,26.558 350.000,26.189 350.000 C 26.042 350.000,26.434 350.633,27.061 351.407 M372.453 351.242 C 371.932 351.901,371.579 352.512,371.668 352.601 C 371.757 352.690,372.326 352.141,372.932 351.381 C 373.538 350.622,373.891 350.010,373.717 350.022 C 373.543 350.034,372.974 350.583,372.453 351.242 M369.850 354.535 C 369.217 355.231,367.507 357.137,366.050 358.771 C 362.855 362.353,361.428 363.802,359.482 365.442 C 357.271 367.304,354.000 370.404,354.000 370.637 C 354.000 370.950,361.591 364.134,363.336 362.255 C 368.985 356.170,371.612 353.205,371.328 353.235 C 371.148 353.255,370.482 353.840,369.850 354.535 M37.411 363.147 C 40.400 365.977,45.995 370.805,45.970 370.531 C 45.953 370.349,44.408 368.850,42.536 367.200 C 40.664 365.550,38.705 363.795,38.184 363.300 C 37.663 362.805,37.098 362.400,36.929 362.400 C 36.760 362.400,36.977 362.736,37.411 363.147 M48.000 372.308 C 48.990 373.194,49.866 373.856,49.948 373.779 C 50.159 373.578,49.221 372.722,47.600 371.635 C 46.440 370.858,46.509 370.974,48.000 372.308 M352.776 371.313 C 350.490 373.098,349.897 373.629,350.039 373.765 C 350.128 373.850,351.010 373.218,352.000 372.361 C 353.670 370.915,354.197 370.203,352.776 371.313 M50.503 374.243 C 50.628 374.446,52.051 375.504,53.665 376.596 C 55.279 377.687,56.690 378.676,56.800 378.794 C 56.966 378.971,61.489 381.742,62.500 382.286 C 62.665 382.375,62.800 382.365,62.800 382.265 C 62.800 382.165,61.855 381.494,60.700 380.773 C 59.545 380.053,56.727 378.206,54.438 376.669 C 52.149 375.132,50.378 374.041,50.503 374.243 M345.929 376.503 C 344.680 377.431,343.726 378.259,343.809 378.342 C 343.953 378.487,345.137 377.646,347.511 375.713 C 349.363 374.204,348.322 374.724,345.929 376.503 M339.800 380.453 C 337.274 382.016,336.481 382.799,338.600 381.637 C 340.217 380.751,342.369 379.219,342.000 379.216 C 341.890 379.216,340.900 379.772,339.800 380.453 M63.200 382.560 C 63.200 382.849,68.140 385.695,69.400 386.133 C 70.040 386.355,70.000 386.251,69.200 385.614 C 68.650 385.176,67.885 384.814,67.500 384.809 C 67.115 384.804,66.800 384.620,66.800 384.400 C 66.800 384.180,66.575 383.996,66.300 383.991 C 66.025 383.986,65.350 383.630,64.800 383.200 C 63.857 382.463,63.200 382.200,63.200 382.560 M335.424 383.013 C 334.996 383.336,334.827 383.600,335.047 383.600 C 335.267 383.600,335.796 383.336,336.224 383.013 C 336.651 382.690,336.820 382.425,336.600 382.425 C 336.380 382.425,335.851 382.690,335.424 383.013 M72.168 387.402 C 73.250 387.951,74.375 388.400,74.668 388.400 C 74.961 388.400,75.200 388.580,75.200 388.800 C 75.200 389.020,75.472 389.200,75.805 389.200 C 76.138 389.200,76.723 389.359,77.105 389.553 C 79.099 390.567,80.020 390.914,80.212 390.721 C 80.330 390.604,79.835 390.285,79.113 390.013 C 77.587 389.437,74.856 388.227,72.662 387.153 C 71.816 386.739,70.916 386.401,70.662 386.402 C 70.408 386.403,71.086 386.853,72.168 387.402 M323.600 388.797 C 322.830 389.196,321.609 389.745,320.887 390.015 C 320.165 390.286,319.670 390.604,319.788 390.721 C 319.905 390.838,320.406 390.744,320.901 390.511 C 325.400 388.395,326.123 388.014,325.600 388.041 C 325.270 388.057,324.370 388.397,323.600 388.797 M94.624 395.387 C 95.642 396.158,96.224 396.167,95.457 395.400 C 95.127 395.070,94.630 394.800,94.352 394.800 C 94.069 394.800,94.188 395.058,94.624 395.387 M97.500 395.882 C 97.995 395.978,98.400 396.223,98.400 396.428 C 98.400 396.633,99.289 396.800,100.376 396.800 C 101.463 396.800,102.464 396.980,102.600 397.200 C 102.736 397.420,103.242 397.579,103.724 397.554 C 104.534 397.511,104.540 397.493,103.800 397.315 C 103.360 397.209,102.829 396.960,102.620 396.761 C 102.411 396.563,101.477 396.400,100.544 396.400 C 99.611 396.400,98.736 396.220,98.600 396.000 C 98.464 395.780,97.958 395.625,97.476 395.654 C 96.600 395.709,96.600 395.709,97.500 395.882 M301.400 396.000 C 301.108 396.473,301.499 396.473,302.600 396.000 C 303.371 395.669,303.369 395.655,302.524 395.628 C 302.042 395.613,301.536 395.780,301.400 396.000 M297.400 396.800 C 297.264 397.020,296.758 397.214,296.276 397.232 C 295.772 397.250,295.629 397.354,295.939 397.478 C 296.236 397.596,296.866 397.498,297.339 397.261 C 297.813 397.023,298.740 396.759,299.400 396.674 C 300.476 396.536,300.447 396.514,299.124 396.460 C 298.312 396.427,297.536 396.580,297.400 396.800 M105.800 397.491 C 106.460 397.585,107.171 397.828,107.380 398.031 C 107.589 398.234,109.333 398.400,111.256 398.400 C 113.179 398.400,114.864 398.580,115.000 398.800 C 115.326 399.328,284.480 399.356,285.020 398.828 C 285.229 398.624,286.930 398.374,288.800 398.274 C 290.670 398.174,292.920 397.899,293.800 397.664 L 295.400 397.237 293.800 397.453 C 292.920 397.571,290.670 397.756,288.800 397.862 C 286.930 397.969,285.229 398.224,285.020 398.428 C 284.480 398.956,115.326 398.928,115.000 398.400 C 114.864 398.180,113.244 398.000,111.400 398.000 C 109.556 398.000,107.936 397.820,107.800 397.600 C 107.664 397.380,106.888 397.227,106.076 397.260 C 104.724 397.315,104.701 397.334,105.800 397.491 " stroke="none" fill="#3c3c3c" fill-rule="evenodd"></path></g></svg>