<svg id="svg" version="1.1" xmlns="http://www.w3.org/2000/svg" xmlns:xlink="http://www.w3.org/1999/xlink" width="400" height="192" viewBox="0, 0, 400,192"><g id="svgg"><path id="path0" d="M136.856 17.673 C 136.456 17.887,135.484 18.145,134.696 18.245 C 133.739 18.366,133.130 18.549,132.865 18.796 C 132.647 19.000,132.173 19.222,131.813 19.289 C 131.093 19.424,130.028 20.019,129.302 20.691 C 129.045 20.929,128.785 21.123,128.723 21.123 C 128.662 21.123,128.276 21.426,127.867 21.795 C 127.458 22.165,127.050 22.468,126.959 22.468 C 126.764 22.468,125.204 24.518,125.204 24.775 C 125.204 24.874,124.988 25.097,124.724 25.270 C 124.460 25.443,124.244 25.670,124.244 25.774 C 124.244 25.879,124.039 26.209,123.788 26.507 C 123.537 26.805,123.271 27.375,123.196 27.773 C 123.121 28.171,122.894 28.707,122.692 28.964 C 122.489 29.222,122.324 29.670,122.324 29.961 C 122.324 30.252,122.108 31.235,121.843 32.147 L 121.363 33.803 121.367 95.874 L 121.371 157.945 121.847 159.759 C 122.109 160.757,122.324 161.832,122.324 162.147 C 122.324 162.463,122.499 162.908,122.713 163.136 C 122.951 163.390,123.149 163.941,123.222 164.555 C 123.312 165.319,123.449 165.630,123.792 165.855 C 124.041 166.018,124.244 166.237,124.244 166.343 C 124.244 166.727,129.346 171.867,129.727 171.867 C 129.871 171.867,130.146 172.036,130.338 172.241 C 130.529 172.446,131.106 172.709,131.620 172.824 C 132.133 172.939,132.770 173.203,133.033 173.410 C 133.305 173.624,133.814 173.790,134.207 173.792 C 134.589 173.795,135.247 173.895,135.670 174.016 C 138.248 174.749,262.268 174.853,263.850 174.123 C 264.009 174.050,264.805 173.910,265.619 173.812 C 266.605 173.694,267.266 173.505,267.593 173.247 C 267.864 173.034,268.429 172.802,268.849 172.731 C 269.295 172.655,269.611 172.495,269.611 172.344 C 269.611 172.202,269.774 172.034,269.973 171.971 C 270.172 171.907,270.603 171.621,270.931 171.334 C 271.259 171.046,271.983 170.422,272.540 169.947 C 273.098 169.472,273.855 168.719,274.223 168.274 C 274.591 167.829,275.130 167.203,275.420 166.883 C 275.711 166.564,275.948 166.221,275.948 166.121 C 275.948 166.022,276.115 165.887,276.320 165.823 C 276.603 165.732,276.722 165.454,276.824 164.643 C 276.900 164.029,277.098 163.445,277.292 163.259 C 277.476 163.083,277.686 162.506,277.759 161.978 C 278.025 160.031,278.300 158.703,278.513 158.329 C 278.879 157.690,278.924 52.791,278.560 51.980 C 278.409 51.643,278.242 51.109,278.190 50.792 C 277.797 48.400,277.587 47.489,277.372 47.238 C 276.937 46.728,276.167 45.626,275.832 45.031 C 275.653 44.714,275.347 44.342,275.151 44.204 C 274.956 44.066,274.796 43.842,274.796 43.706 C 274.796 43.570,274.624 43.303,274.414 43.113 C 274.205 42.923,273.928 42.478,273.800 42.124 C 273.672 41.770,273.412 41.431,273.221 41.370 C 273.031 41.310,272.876 41.182,272.876 41.086 C 272.876 40.938,272.212 40.223,269.223 37.151 C 269.014 36.936,268.843 36.660,268.843 36.537 C 268.843 36.414,268.705 36.236,268.536 36.141 C 268.205 35.956,266.539 33.804,266.539 33.561 C 266.539 33.480,266.400 33.413,266.231 33.413 C 265.833 33.413,264.618 32.199,264.618 31.800 C 264.618 31.631,264.506 31.493,264.369 31.493 C 264.071 31.493,262.802 30.193,262.636 29.717 C 262.571 29.532,262.407 29.379,262.272 29.378 C 262.137 29.376,261.733 29.117,261.376 28.802 C 261.018 28.486,260.661 28.229,260.581 28.229 C 260.502 28.229,259.946 27.753,259.346 27.172 C 258.746 26.591,258.181 26.116,258.089 26.116 C 257.998 26.116,257.868 25.943,257.801 25.732 C 257.734 25.521,257.585 25.348,257.470 25.348 C 257.354 25.348,256.857 24.934,256.364 24.428 C 255.871 23.922,255.202 23.338,254.878 23.132 C 254.333 22.784,253.177 21.836,252.019 20.787 C 251.757 20.550,251.424 20.355,251.278 20.355 C 251.133 20.355,250.769 20.151,250.471 19.902 C 250.172 19.653,249.647 19.305,249.304 19.129 C 248.961 18.953,248.680 18.734,248.680 18.642 C 248.680 18.550,248.105 18.374,247.403 18.252 C 246.701 18.130,245.797 17.862,245.395 17.656 C 244.215 17.054,137.980 17.071,136.856 17.673 M197.157 22.591 C 219.105 22.552,237.192 22.504,237.350 22.486 C 238.814 22.312,241.383 23.617,241.383 24.535 C 241.383 24.615,241.577 24.766,241.814 24.870 C 242.051 24.975,242.276 25.226,242.314 25.430 C 242.353 25.633,242.553 25.937,242.760 26.104 C 243.371 26.599,243.355 73.012,242.743 74.002 C 242.523 74.358,242.343 74.832,242.343 75.055 C 242.343 75.588,240.858 77.128,240.180 77.298 C 239.888 77.371,239.586 77.539,239.508 77.670 C 239.122 78.319,238.861 78.324,196.898 78.337 C 155.700 78.350,155.218 78.345,154.880 77.972 C 154.692 77.765,154.225 77.494,153.841 77.370 C 153.241 77.177,151.896 76.018,151.896 75.694 C 151.896 75.634,151.659 75.337,151.368 75.034 L 150.840 74.483 150.840 50.532 L 150.840 26.581 151.320 25.958 C 152.951 23.842,154.093 22.859,155.069 22.732 C 155.595 22.664,156.152 22.540,156.308 22.458 C 156.464 22.376,156.740 22.388,156.922 22.485 C 157.122 22.592,173.016 22.634,197.157 22.591 M214.018 29.904 C 213.117 30.125,213.154 29.232,213.154 50.512 C 213.154 61.580,213.207 70.773,213.271 70.940 C 213.407 71.294,228.923 71.405,229.477 71.055 C 229.831 70.831,230.029 31.193,229.680 30.275 L 229.486 29.765 221.944 29.787 C 217.796 29.799,214.229 29.852,214.018 29.904 M202.222 95.823 L 257.673 95.823 258.191 96.255 C 258.475 96.493,258.971 96.925,259.291 97.216 C 259.612 97.506,259.940 97.744,260.019 97.744 C 260.099 97.744,260.264 97.981,260.386 98.272 C 260.508 98.562,260.774 99.100,260.977 99.467 C 261.576 100.546,261.467 165.453,260.866 166.139 C 260.650 166.385,260.337 166.890,260.171 167.261 C 260.004 167.632,259.619 168.062,259.314 168.216 C 259.010 168.370,258.569 168.640,258.333 168.815 C 257.589 169.367,255.089 169.858,254.362 169.596 C 253.545 169.300,146.030 169.268,145.847 169.563 C 145.590 169.979,142.353 169.396,141.696 168.815 C 141.550 168.686,141.145 168.411,140.795 168.203 C 140.445 167.996,140.033 167.524,139.878 167.154 C 139.724 166.784,139.426 166.310,139.216 166.101 C 138.655 165.539,138.708 99.414,139.270 99.003 C 139.455 98.868,139.606 98.652,139.606 98.523 C 139.606 98.325,140.417 97.473,141.756 96.265 C 142.279 95.792,143.235 95.639,145.061 95.734 C 146.001 95.783,171.723 95.823,202.222 95.823 " stroke="none" fill="#fbfbfb" fill-rule="evenodd"></path><path id="path1" d="M51.656 1.056 C 51.656 1.614,51.885 1.576,48.296 1.608 C 45.743 1.631,45.607 1.652,45.607 2.016 C 45.607 2.373,45.461 2.404,43.543 2.455 C 41.584 2.507,41.479 2.530,41.479 2.917 C 41.479 3.299,41.500 3.305,41.830 3.006 C 42.330 2.553,42.631 2.613,42.631 3.166 C 42.631 3.643,42.629 3.644,41.191 3.522 L 39.750 3.400 39.750 4.021 L 39.750 4.643 38.358 4.605 C 36.460 4.554,36.486 4.547,36.486 5.089 C 36.486 5.537,36.422 5.569,35.526 5.569 C 34.630 5.569,34.566 5.601,34.566 6.049 C 34.566 6.498,34.503 6.529,33.583 6.529 C 32.636 6.529,32.604 6.547,32.693 7.014 C 32.841 7.785,31.825 7.909,31.624 7.144 C 31.545 6.844,31.536 6.845,31.515 7.153 C 31.500 7.378,31.334 7.489,31.013 7.489 C 30.629 7.489,30.533 7.585,30.533 7.969 C 30.533 8.369,30.437 8.453,29.957 8.473 C 29.640 8.487,29.229 8.505,29.045 8.515 C 28.608 8.538,28.402 8.843,28.535 9.270 C 28.594 9.458,28.570 9.599,28.483 9.584 C 27.968 9.494,27.386 9.621,27.623 9.772 C 27.962 9.986,27.831 10.637,27.433 10.713 C 27.263 10.746,26.983 10.633,26.812 10.462 C 26.640 10.290,26.500 10.243,26.500 10.356 C 26.500 10.469,26.284 10.562,26.020 10.562 C 25.636 10.562,25.540 10.658,25.540 11.042 C 25.540 11.426,25.444 11.522,25.060 11.522 C 24.676 11.522,24.580 11.618,24.580 12.002 C 24.580 12.430,24.497 12.485,23.812 12.506 C 22.638 12.543,22.565 12.560,22.540 12.818 C 22.526 12.950,22.505 13.188,22.492 13.346 C 22.478 13.505,22.403 13.624,22.324 13.611 C 21.756 13.522,21.507 13.675,21.507 14.114 C 21.507 14.498,21.411 14.594,21.027 14.594 C 20.643 14.594,20.547 14.690,20.547 15.074 C 20.547 15.458,20.451 15.554,20.067 15.554 C 19.683 15.554,19.587 15.651,19.587 16.035 C 19.587 16.437,19.496 16.515,19.028 16.515 C 18.545 16.515,18.476 16.580,18.521 16.995 C 18.567 17.407,18.497 17.475,18.024 17.475 C 17.566 17.475,17.475 17.555,17.475 17.955 C 17.475 18.219,17.388 18.446,17.283 18.459 C 17.177 18.472,16.983 18.494,16.851 18.507 C 16.719 18.520,16.583 18.769,16.550 19.059 C 16.502 19.474,16.389 19.587,16.022 19.587 C 15.651 19.587,15.554 19.687,15.554 20.067 C 15.554 20.451,15.458 20.547,15.074 20.547 C 14.690 20.547,14.594 20.643,14.594 21.027 C 14.594 21.431,14.504 21.507,14.030 21.507 L 13.465 21.507 13.553 22.564 C 13.638 23.597,13.629 23.620,13.136 23.620 C 12.765 23.620,12.664 23.544,12.749 23.332 C 12.814 23.173,12.923 22.902,12.993 22.729 C 13.080 22.512,13.036 22.443,12.849 22.505 C 12.556 22.603,12.542 22.657,12.506 23.812 C 12.485 24.497,12.430 24.580,12.002 24.580 C 11.618 24.580,11.522 24.676,11.522 25.060 C 11.522 25.441,11.425 25.540,11.053 25.540 C 10.616 25.540,10.584 25.607,10.591 26.514 C 10.600 27.608,10.574 27.661,10.007 27.704 C 9.647 27.731,9.500 28.001,9.584 28.483 C 9.599 28.570,9.522 28.586,9.413 28.518 C 9.087 28.317,8.500 28.597,8.501 28.954 C 8.505 30.297,8.441 30.533,8.077 30.533 C 7.575 30.533,7.434 30.812,7.434 31.807 C 7.434 32.385,7.353 32.645,7.174 32.645 C 6.846 32.645,6.829 31.943,7.153 31.812 C 7.297 31.754,7.258 31.709,7.057 31.700 C 6.872 31.692,6.717 31.707,6.711 31.733 C 6.706 31.759,6.653 32.170,6.593 32.645 C 6.489 33.469,6.231 33.873,5.927 33.686 C 5.850 33.638,5.727 33.697,5.654 33.816 C 5.424 34.188,6.021 34.403,6.289 34.045 C 6.501 33.762,6.529 33.785,6.529 34.244 C 6.529 34.704,6.473 34.751,6.049 34.644 C 5.584 34.528,5.569 34.554,5.569 35.505 C 5.569 36.423,5.538 36.486,5.089 36.486 C 4.549 36.486,4.557 36.454,4.587 38.358 L 4.608 39.750 4.032 39.750 C 3.478 39.750,3.457 39.782,3.457 40.614 C 3.457 41.404,3.416 41.479,2.984 41.479 C 2.525 41.479,2.510 41.523,2.456 43.063 C 2.403 44.581,2.382 44.645,1.969 44.587 C 1.613 44.538,1.546 44.611,1.579 45.011 L 1.619 45.495 1.984 45.103 C 2.477 44.573,2.774 44.898,2.608 45.785 C 2.467 46.537,2.199 46.654,1.800 46.135 C 1.580 45.849,1.544 46.226,1.555 48.658 C 1.569 51.561,1.475 51.960,0.834 51.714 C 0.619 51.632,0.580 59.017,0.598 96.331 C 0.611 120.925,0.660 140.895,0.708 140.711 C 0.757 140.526,0.963 140.374,1.166 140.374 C 1.609 140.374,1.601 140.305,1.540 143.808 C 1.501 146.099,1.537 146.541,1.755 146.406 C 2.353 146.032,3.042 146.628,2.563 147.104 C 2.130 147.536,2.503 150.552,2.991 150.552 C 3.415 150.552,3.457 150.629,3.457 151.416 C 3.457 152.254,3.475 152.280,4.050 152.280 L 4.643 152.280 4.605 153.673 C 4.554 155.571,4.547 155.545,5.089 155.545 C 5.543 155.545,5.570 155.605,5.591 156.649 C 5.625 158.319,5.628 158.331,6.097 158.314 C 6.452 158.302,6.532 158.405,6.544 158.890 C 6.572 160.018,6.769 160.554,7.052 160.271 C 7.128 160.195,7.089 160.070,6.966 159.994 C 6.711 159.837,6.883 159.508,7.262 159.429 C 7.430 159.394,7.501 159.555,7.473 159.909 C 7.372 161.195,7.467 161.498,7.969 161.498 C 8.369 161.498,8.453 161.594,8.473 162.074 C 8.521 163.215,8.547 163.418,8.641 163.386 C 9.051 163.247,9.604 163.888,9.628 164.529 C 9.644 164.975,9.685 165.081,9.737 164.810 C 9.928 163.818,10.562 164.297,10.562 165.434 C 10.562 166.433,10.588 166.491,11.042 166.491 C 11.426 166.491,11.522 166.587,11.522 166.971 C 11.522 167.355,11.618 167.451,12.002 167.451 C 12.401 167.451,12.482 167.543,12.482 167.994 C 12.482 168.488,12.534 168.529,13.058 168.452 C 13.573 168.376,13.634 168.421,13.634 168.869 C 13.634 169.441,12.778 169.617,12.612 169.079 C 12.548 168.875,12.530 168.889,12.552 169.127 C 12.569 169.321,12.767 169.494,13.012 169.528 C 13.387 169.582,13.544 169.877,13.465 170.379 C 13.452 170.458,13.701 170.523,14.018 170.523 C 14.505 170.523,14.594 170.598,14.594 171.003 C 14.594 171.387,14.690 171.483,15.074 171.483 C 15.458 171.483,15.554 171.579,15.554 171.964 C 15.554 172.344,15.651 172.444,16.022 172.444 C 16.389 172.444,16.502 172.557,16.550 172.972 C 16.593 173.350,16.733 173.517,17.043 173.561 C 17.358 173.606,17.475 173.751,17.475 174.098 C 17.475 174.366,17.579 174.559,17.715 174.542 C 18.294 174.466,18.627 174.577,18.627 174.844 C 18.627 175.191,17.931 175.231,17.794 174.892 C 17.733 174.740,17.692 174.768,17.682 174.967 C 17.664 175.347,18.049 175.516,18.931 175.516 C 19.503 175.516,19.587 175.578,19.587 175.996 C 19.587 176.380,19.683 176.476,20.067 176.476 C 20.451 176.476,20.547 176.572,20.547 176.956 C 20.547 177.337,20.644 177.436,21.015 177.436 C 21.382 177.436,21.495 177.550,21.543 177.964 C 21.586 178.343,21.726 178.510,22.036 178.554 C 22.308 178.593,22.468 178.748,22.468 178.975 C 22.468 179.438,22.848 179.674,23.055 179.339 C 23.276 178.980,23.067 178.821,22.833 179.170 C 22.687 179.388,22.656 179.342,22.699 178.973 C 22.739 178.634,22.890 178.474,23.213 178.428 C 23.620 178.370,23.660 178.422,23.569 178.896 C 23.455 179.495,23.570 179.933,23.844 179.933 C 23.944 179.933,23.973 179.846,23.908 179.741 C 23.843 179.635,23.971 179.549,24.193 179.549 C 24.415 179.549,24.583 179.657,24.566 179.789 C 24.493 180.344,24.606 180.509,25.060 180.509 C 25.444 180.509,25.540 180.605,25.540 180.989 C 25.540 181.373,25.636 181.469,26.020 181.469 C 26.284 181.469,26.502 181.577,26.503 181.709 C 26.505 181.873,26.551 181.883,26.647 181.740 C 27.150 180.996,28.154 181.505,27.681 182.263 C 27.557 182.461,27.522 182.612,27.602 182.599 C 28.269 182.492,28.605 182.651,28.562 183.053 C 28.521 183.446,28.608 183.491,29.525 183.543 C 30.451 183.597,30.533 183.640,30.533 184.071 C 30.533 184.445,30.632 184.542,31.013 184.542 C 31.397 184.542,31.493 184.638,31.493 185.022 C 31.493 185.357,31.595 185.497,31.829 185.487 C 32.030 185.477,32.069 185.432,31.925 185.375 C 31.547 185.222,31.645 184.580,32.067 184.446 C 32.733 184.235,33.237 185.116,32.597 185.375 C 32.465 185.428,32.638 185.478,32.981 185.487 C 33.325 185.495,33.605 185.588,33.605 185.694 C 33.605 185.799,33.697 185.886,33.809 185.886 C 33.921 185.886,33.959 185.799,33.893 185.694 C 33.828 185.588,33.953 185.502,34.170 185.502 C 34.433 185.502,34.566 185.626,34.566 185.873 C 34.566 186.173,34.464 186.226,34.037 186.150 C 33.673 186.084,33.571 186.117,33.707 186.254 C 33.815 186.364,34.530 186.466,35.295 186.482 C 36.680 186.510,36.963 186.604,36.713 186.951 C 36.553 187.174,35.875 187.250,36.011 187.030 C 36.117 186.858,35.747 186.561,35.604 186.703 C 35.382 186.926,35.797 187.446,36.128 187.359 C 36.325 187.308,36.486 187.340,36.486 187.430 C 36.486 187.520,37.199 187.577,38.070 187.556 C 39.558 187.520,39.650 187.541,39.588 187.902 C 39.494 188.450,39.412 188.483,39.024 188.132 C 38.703 187.842,38.677 187.846,38.650 188.197 C 38.625 188.541,38.749 188.574,40.050 188.574 C 41.446 188.574,41.479 188.585,41.479 189.054 L 41.479 189.534 43.591 189.534 C 44.783 189.534,45.703 189.613,45.703 189.715 C 45.703 189.988,45.362 190.143,45.230 189.930 C 45.167 189.827,44.990 189.791,44.838 189.849 C 43.968 190.183,45.160 190.494,47.308 190.494 C 49.249 190.494,49.526 190.535,49.604 190.831 C 49.678 191.117,49.695 191.120,49.714 190.852 C 49.737 190.523,50.436 190.344,51.244 190.461 C 51.606 190.513,51.677 190.618,51.606 190.990 L 51.517 191.455 200.000 191.455 L 348.483 191.455 348.391 190.975 C 348.310 190.555,348.368 190.493,348.849 190.483 C 349.152 190.477,350.696 190.455,352.280 190.435 C 355.067 190.400,355.167 190.384,355.350 189.966 C 355.524 189.572,355.669 189.534,357.031 189.534 C 358.493 189.534,358.521 189.525,358.521 189.054 C 358.521 188.602,358.581 188.574,359.544 188.574 C 360.565 188.574,360.567 188.573,360.485 188.015 L 360.403 187.456 361.988 187.564 L 363.574 187.673 363.453 187.070 C 363.343 186.520,363.374 186.470,363.800 186.506 C 364.217 186.540,364.237 186.578,363.987 186.854 C 363.630 187.249,363.631 187.422,363.991 187.422 C 364.147 187.422,364.328 187.210,364.393 186.952 C 364.494 186.549,364.639 186.473,365.403 186.424 C 366.196 186.372,366.953 185.694,366.217 185.694 C 366.103 185.694,366.032 185.771,366.059 185.867 C 366.085 185.962,366.042 186.048,365.963 186.059 C 365.554 186.113,365.434 186.052,365.434 185.790 C 365.434 185.572,365.669 185.502,366.395 185.502 C 366.923 185.502,367.345 185.437,367.332 185.358 C 367.223 184.670,367.383 184.327,367.785 184.384 C 368.276 184.454,368.482 185.086,368.094 185.332 C 367.893 185.459,367.911 185.496,368.171 185.499 C 368.402 185.501,368.507 185.352,368.507 185.022 C 368.507 184.614,368.596 184.542,369.096 184.542 C 369.817 184.542,370.427 184.236,370.427 183.875 C 370.427 183.725,370.660 183.580,370.955 183.546 C 371.333 183.503,371.501 183.363,371.545 183.053 C 371.584 182.776,371.739 182.621,371.977 182.621 C 372.258 182.621,372.348 182.487,372.348 182.066 C 372.348 181.492,372.692 181.207,373.090 181.453 C 373.585 181.759,374.460 181.449,374.460 180.967 C 374.460 180.574,374.552 180.509,375.116 180.509 C 375.477 180.509,375.909 180.456,376.076 180.392 C 376.415 180.262,376.495 179.741,376.177 179.741 C 376.065 179.741,376.021 179.817,376.079 179.911 C 376.137 180.005,376.029 180.122,375.841 180.171 C 375.608 180.232,375.489 180.147,375.471 179.905 C 375.451 179.637,375.576 179.549,375.975 179.549 C 376.455 179.549,376.498 179.494,376.421 178.973 C 376.374 178.650,376.424 178.397,376.535 178.397 C 376.998 178.397,377.340 178.655,377.340 179.005 C 377.340 179.211,377.260 179.330,377.162 179.269 C 377.063 179.208,376.929 179.246,376.862 179.354 C 376.795 179.462,376.918 179.549,377.137 179.549 C 377.431 179.549,377.532 179.425,377.532 179.069 C 377.532 178.630,377.781 178.476,378.349 178.566 C 378.428 178.578,378.493 178.329,378.493 178.012 C 378.493 177.526,378.567 177.436,378.973 177.436 C 379.357 177.436,379.453 177.340,379.453 176.956 C 379.453 176.572,379.549 176.476,379.933 176.476 C 380.317 176.476,380.413 176.380,380.413 175.996 C 380.413 175.631,380.516 175.512,380.845 175.500 C 382.062 175.455,382.547 175.282,382.259 174.994 C 382.183 174.917,382.058 174.956,381.982 175.079 C 381.776 175.412,381.293 175.041,381.438 174.663 C 381.532 174.420,381.642 174.392,381.921 174.541 C 382.359 174.775,382.525 174.638,382.525 174.044 C 382.525 173.694,382.630 173.596,383.005 173.596 C 383.411 173.596,383.485 173.506,383.485 173.020 C 383.485 172.533,383.560 172.444,383.965 172.444 C 384.349 172.444,384.446 172.348,384.446 171.964 C 384.446 171.579,384.542 171.483,384.926 171.483 C 385.310 171.483,385.406 171.387,385.406 171.003 C 385.406 170.598,385.495 170.523,385.982 170.523 C 386.464 170.523,386.558 170.447,386.558 170.057 C 386.558 169.719,386.677 169.573,386.990 169.528 C 387.366 169.475,387.429 169.337,387.480 168.459 C 387.533 167.533,387.576 167.451,388.008 167.451 C 388.381 167.451,388.478 167.352,388.478 166.971 C 388.478 166.587,388.574 166.491,388.958 166.491 C 389.412 166.491,389.438 166.433,389.438 165.434 C 389.438 164.389,389.444 164.378,390.014 164.378 C 390.456 164.378,390.590 164.291,390.590 164.008 C 390.590 163.769,390.745 163.615,391.023 163.576 C 391.399 163.522,391.462 163.384,391.513 162.506 C 391.566 161.580,391.609 161.498,392.041 161.498 C 392.532 161.498,392.627 161.188,392.527 159.914 C 392.499 159.545,392.577 159.386,392.787 159.386 C 393.145 159.386,393.188 159.701,392.847 159.826 C 392.657 159.895,392.658 159.968,392.855 160.176 C 393.252 160.596,393.465 160.048,393.468 158.596 C 393.471 157.356,393.482 157.327,393.951 157.379 C 394.339 157.421,394.431 157.347,394.431 156.989 C 394.431 156.677,394.573 156.511,394.911 156.426 C 395.175 156.360,395.391 156.178,395.391 156.021 C 395.391 155.697,395.089 155.641,394.909 155.932 C 394.749 156.192,394.431 155.981,394.431 155.614 C 394.431 155.392,394.564 155.352,394.990 155.445 L 395.548 155.568 395.614 154.404 C 395.650 153.764,395.614 153.240,395.535 153.240 C 395.456 153.240,395.391 153.058,395.391 152.835 C 395.391 152.493,395.482 152.442,395.967 152.513 L 396.543 152.598 396.543 151.575 C 396.543 150.612,396.572 150.552,397.024 150.552 C 397.420 150.552,397.503 150.460,397.501 150.024 C 397.498 149.628,397.454 149.566,397.321 149.775 C 397.224 149.928,397.179 150.108,397.220 150.175 C 397.353 150.391,396.644 150.309,396.498 150.091 C 396.205 149.653,396.362 149.400,396.928 149.400 C 397.487 149.400,397.504 149.374,397.504 148.485 C 397.504 147.721,397.575 147.540,397.936 147.381 C 398.357 147.196,398.369 147.110,398.420 143.783 C 398.469 140.585,398.495 140.374,398.836 140.374 C 399.036 140.374,399.243 140.482,399.297 140.614 C 399.350 140.747,399.400 120.779,399.409 96.243 L 399.424 51.632 398.992 51.692 C 398.598 51.747,398.555 51.665,398.502 50.758 C 398.447 49.799,398.464 49.760,398.982 49.682 L 399.520 49.601 398.992 49.573 L 398.464 49.544 398.464 47.322 C 398.464 45.239,398.305 44.551,397.822 44.551 C 397.691 44.551,397.786 45.090,397.946 45.250 C 398.185 45.488,398.087 45.831,397.781 45.831 C 397.579 45.831,397.492 45.670,397.513 45.335 C 397.624 43.582,397.499 42.607,397.168 42.641 C 396.475 42.711,396.325 42.627,396.386 42.199 C 396.427 41.914,396.602 41.745,396.901 41.703 C 397.150 41.667,397.307 41.715,397.250 41.808 C 397.192 41.901,397.224 42.103,397.321 42.256 C 397.454 42.465,397.498 42.403,397.501 42.007 C 397.503 41.571,397.420 41.479,397.024 41.479 C 396.554 41.479,396.543 41.447,396.543 40.038 C 396.543 39.231,396.461 38.598,396.356 38.598 C 396.251 38.598,396.219 38.849,396.284 39.174 C 396.388 39.693,396.351 39.750,395.911 39.750 C 395.425 39.750,395.423 39.743,395.455 38.166 L 395.487 36.582 394.959 36.521 C 394.440 36.461,394.431 36.438,394.431 35.140 C 394.431 34.414,394.342 33.765,394.233 33.697 C 394.108 33.620,394.067 33.759,394.124 34.070 C 394.195 34.463,394.137 34.566,393.842 34.566 C 393.595 34.566,393.471 34.433,393.471 34.170 C 393.471 33.953,393.557 33.828,393.663 33.893 C 393.769 33.959,393.855 33.921,393.855 33.809 C 393.855 33.697,393.769 33.605,393.663 33.605 C 393.557 33.605,393.470 33.281,393.468 32.885 C 393.465 32.074,393.333 31.809,392.847 31.629 C 392.648 31.556,392.511 31.307,392.511 31.019 C 392.511 30.628,392.416 30.533,392.031 30.533 C 391.583 30.533,391.551 30.469,391.551 29.576 C 391.551 28.716,391.502 28.608,391.071 28.499 C 390.770 28.424,390.590 28.243,390.590 28.016 C 390.590 27.740,390.451 27.652,390.014 27.652 C 389.406 27.652,389.340 27.473,389.432 26.068 C 389.462 25.620,389.393 25.540,388.973 25.540 C 388.573 25.540,388.478 25.448,388.478 25.060 C 388.478 24.676,388.382 24.580,387.998 24.580 C 387.599 24.580,387.518 24.488,387.518 24.037 C 387.518 23.540,387.468 23.502,386.925 23.581 L 386.332 23.668 386.467 22.588 L 386.602 21.507 386.004 21.507 C 385.494 21.507,385.406 21.437,385.406 21.027 C 385.406 20.643,385.310 20.547,384.926 20.547 C 384.542 20.547,384.446 20.451,384.446 20.067 C 384.446 19.687,384.349 19.587,383.978 19.587 C 383.611 19.587,383.498 19.474,383.450 19.059 C 383.417 18.769,383.281 18.520,383.149 18.507 C 383.017 18.494,382.823 18.472,382.717 18.459 C 382.612 18.446,382.525 18.219,382.525 17.955 C 382.525 17.571,382.429 17.475,382.045 17.475 C 381.661 17.475,381.565 17.379,381.565 16.995 C 381.565 16.589,381.475 16.515,380.989 16.515 C 380.502 16.515,380.413 16.440,380.413 16.035 C 380.413 15.651,380.317 15.554,379.933 15.554 C 379.549 15.554,379.453 15.458,379.453 15.074 C 379.453 14.690,379.357 14.594,378.973 14.594 C 378.589 14.594,378.493 14.498,378.493 14.114 C 378.493 13.606,378.349 13.552,377.165 13.617 C 376.488 13.654,376.151 13.380,376.323 12.931 C 376.463 12.564,377.091 12.613,377.338 13.010 C 377.529 13.317,377.542 13.313,377.490 12.962 C 377.442 12.643,377.262 12.568,376.426 12.520 C 375.503 12.467,375.420 12.423,375.420 11.992 C 375.420 11.619,375.321 11.522,374.940 11.522 C 374.550 11.522,374.460 11.427,374.460 11.017 C 374.460 10.527,374.433 10.515,373.484 10.607 C 372.530 10.698,371.964 10.292,372.285 9.746 C 372.332 9.666,372.239 9.602,372.078 9.602 C 371.815 9.602,371.274 8.882,371.355 8.641 C 371.416 8.462,370.909 8.521,370.630 8.726 C 370.423 8.878,370.390 8.869,370.498 8.689 C 370.601 8.518,370.473 8.449,370.055 8.449 C 369.556 8.449,369.467 8.377,369.467 7.969 C 369.467 7.515,369.410 7.489,368.411 7.489 C 367.347 7.489,367.225 7.414,367.523 6.945 C 367.654 6.739,367.708 6.748,367.802 6.993 C 367.866 7.160,368.014 7.297,368.131 7.297 C 368.247 7.297,368.191 7.146,368.006 6.961 C 367.648 6.602,367.613 6.590,366.875 6.553 C 366.611 6.540,366.395 6.436,366.395 6.323 C 366.395 6.210,366.265 5.988,366.107 5.830 C 365.948 5.671,365.819 5.629,365.819 5.736 C 365.819 5.843,365.906 5.985,366.014 6.051 C 366.269 6.208,366.066 6.529,365.711 6.529 C 365.544 6.529,365.434 6.339,365.434 6.049 C 365.434 5.601,365.370 5.569,364.474 5.569 C 363.578 5.569,363.514 5.537,363.514 5.089 C 363.514 4.547,363.539 4.554,361.642 4.589 L 360.250 4.615 360.250 4.036 C 360.250 3.477,360.219 3.457,359.386 3.457 C 358.587 3.457,358.521 3.419,358.521 2.966 L 358.521 2.475 356.497 2.510 C 354.335 2.547,354.178 2.508,354.379 1.982 C 354.490 1.693,354.536 1.685,354.688 1.926 C 354.786 2.081,354.868 2.133,354.870 2.041 C 354.871 1.949,355.004 1.982,355.165 2.116 C 355.409 2.318,355.438 2.307,355.340 2.051 C 355.149 1.555,354.597 1.486,351.433 1.561 C 348.484 1.631,348.439 1.626,348.381 1.216 C 348.342 0.944,348.441 0.770,348.669 0.711 C 348.860 0.661,282.110 0.611,200.336 0.598 L 51.656 0.576 51.656 1.056 M372.924 9.794 C 373.296 10.034,373.500 10.034,373.500 9.794 C 373.500 9.688,373.305 9.603,373.068 9.604 C 372.718 9.607,372.691 9.643,372.924 9.794 M23.620 13.154 C 23.620 13.538,23.524 13.634,23.140 13.634 C 22.579 13.634,22.491 13.175,22.996 12.881 C 23.508 12.583,23.620 12.632,23.620 13.154 M208.222 16.371 C 208.547 16.556,212.985 16.632,227.876 16.707 C 246.997 16.802,247.115 16.805,247.656 17.203 C 247.955 17.423,248.545 17.658,248.968 17.725 C 249.459 17.803,249.877 18.022,250.127 18.333 C 250.342 18.600,250.608 18.819,250.717 18.819 C 250.826 18.819,251.103 19.035,251.332 19.299 C 251.562 19.563,251.927 19.779,252.144 19.779 C 252.361 19.779,252.729 19.983,252.962 20.233 C 253.194 20.482,253.575 20.746,253.807 20.818 C 254.039 20.891,254.280 21.110,254.341 21.304 C 254.403 21.499,254.630 21.704,254.845 21.761 C 255.061 21.817,255.284 22.042,255.341 22.261 C 255.399 22.480,255.585 22.660,255.756 22.660 C 255.927 22.660,256.688 23.308,257.448 24.100 C 258.207 24.892,258.918 25.540,259.029 25.540 C 259.139 25.540,259.767 26.059,260.425 26.692 C 261.083 27.326,261.702 27.844,261.801 27.844 C 261.901 27.844,262.180 28.039,262.422 28.277 C 262.664 28.514,262.952 28.795,263.062 28.901 C 263.692 29.506,264.426 30.376,264.426 30.517 C 264.426 30.607,264.606 30.727,264.825 30.784 C 265.044 30.842,265.269 31.065,265.325 31.280 C 265.382 31.496,265.587 31.723,265.781 31.785 C 265.976 31.846,266.186 32.057,266.248 32.252 C 266.310 32.447,266.573 32.660,266.834 32.726 C 267.094 32.791,267.307 32.930,267.307 33.034 C 267.307 33.139,267.523 33.412,267.787 33.641 C 268.051 33.871,268.267 34.148,268.267 34.257 C 268.267 34.367,268.433 34.632,268.636 34.847 C 269.195 35.438,270.848 37.304,271.160 37.696 C 271.312 37.886,271.889 38.512,272.444 39.088 C 272.998 39.663,273.452 40.264,273.452 40.423 C 273.452 40.581,273.578 40.711,273.733 40.711 C 273.888 40.711,274.117 40.905,274.242 41.143 C 274.368 41.380,274.652 41.759,274.873 41.984 C 275.488 42.608,276.524 44.081,276.524 44.330 C 276.524 44.452,276.613 44.551,276.720 44.551 C 276.828 44.551,277.020 44.789,277.147 45.079 C 277.273 45.370,277.568 45.792,277.802 46.019 C 278.036 46.245,278.290 46.763,278.366 47.171 C 278.442 47.578,278.686 48.157,278.907 48.456 L 279.309 49.000 279.367 104.529 C 279.427 161.055,279.420 161.696,278.734 162.265 C 278.588 162.386,278.411 162.950,278.340 163.519 C 278.262 164.144,278.029 164.799,277.751 165.175 C 277.499 165.517,277.292 165.905,277.292 166.037 C 277.292 166.169,277.132 166.390,276.936 166.528 C 276.740 166.666,276.521 166.963,276.450 167.188 C 276.379 167.414,276.064 167.867,275.750 168.195 C 275.437 168.523,275.180 168.865,275.180 168.954 C 275.180 169.044,274.964 169.216,274.700 169.336 C 274.436 169.456,274.220 169.686,274.220 169.847 C 274.220 170.008,274.136 170.139,274.034 170.139 C 273.932 170.139,273.555 170.420,273.196 170.763 C 272.102 171.810,271.270 172.444,270.990 172.444 C 270.843 172.444,270.553 172.660,270.345 172.924 C 270.137 173.188,269.835 173.404,269.673 173.404 C 269.511 173.404,269.126 173.616,268.817 173.876 C 268.508 174.136,267.934 174.398,267.541 174.459 C 267.148 174.520,266.308 174.740,265.675 174.949 C 263.867 175.544,135.961 175.543,134.396 174.948 C 133.851 174.741,132.952 174.477,132.399 174.363 C 131.845 174.248,131.239 173.985,131.053 173.779 C 130.866 173.572,130.553 173.404,130.357 173.404 C 130.161 173.404,129.851 173.224,129.667 173.004 C 129.483 172.784,129.009 172.472,128.613 172.311 C 128.217 172.150,127.892 171.898,127.892 171.751 C 127.892 171.604,127.808 171.483,127.704 171.483 C 127.432 171.483,125.780 169.863,125.780 169.596 C 125.780 169.472,125.652 169.371,125.497 169.371 C 125.341 169.371,125.062 169.133,124.877 168.843 C 124.692 168.553,124.430 168.245,124.295 168.161 C 124.160 168.076,123.875 167.665,123.663 167.248 C 123.450 166.832,123.193 166.491,123.091 166.491 C 122.990 166.491,122.851 166.253,122.782 165.963 C 122.713 165.672,122.501 165.262,122.310 165.050 C 122.119 164.839,121.867 164.234,121.750 163.706 C 121.633 163.178,121.347 162.357,121.114 161.882 L 120.691 161.018 120.691 96.015 L 120.691 31.013 121.114 30.149 C 121.347 29.674,121.620 28.909,121.722 28.450 C 121.824 27.991,122.076 27.430,122.282 27.202 C 122.488 26.974,122.718 26.529,122.793 26.212 C 122.868 25.895,123.354 25.146,123.874 24.547 C 124.395 23.948,124.820 23.363,124.820 23.247 C 124.820 23.131,125.029 22.940,125.284 22.824 C 125.539 22.708,125.792 22.444,125.846 22.238 C 125.900 22.032,126.120 21.817,126.336 21.761 C 126.551 21.704,126.776 21.516,126.836 21.343 C 126.961 20.980,127.860 20.317,128.890 19.828 C 129.280 19.643,129.636 19.353,129.681 19.184 C 129.725 19.015,130.050 18.820,130.402 18.749 C 130.754 18.679,131.219 18.458,131.436 18.259 C 131.652 18.059,132.304 17.764,132.885 17.603 C 133.466 17.441,134.414 17.173,134.991 17.008 C 135.912 16.744,138.323 16.706,154.579 16.704 C 170.024 16.701,173.196 16.657,173.596 16.435 C 174.271 16.060,207.572 15.999,208.222 16.371 M154.297 24.360 C 153.769 24.870,153.145 25.389,152.911 25.513 C 152.661 25.645,152.401 26.052,152.281 26.497 C 152.169 26.914,151.928 27.339,151.747 27.441 C 151.230 27.729,151.236 72.156,151.752 72.726 C 151.936 72.930,152.160 73.483,152.248 73.954 C 152.457 75.074,153.763 76.470,154.895 76.785 C 156.048 77.105,238.304 77.071,239.051 76.750 C 239.613 76.508,239.841 76.334,241.012 75.251 C 241.618 74.690,241.767 74.418,241.767 73.869 C 241.767 73.388,241.889 73.100,242.178 72.897 C 242.533 72.648,242.562 72.534,242.385 72.070 C 241.788 70.502,241.734 68.391,241.798 49.256 C 241.856 32.043,241.895 29.972,242.176 29.277 C 242.472 28.544,242.470 28.478,242.128 28.056 C 241.924 27.804,241.766 27.306,241.764 26.911 C 241.760 25.822,241.574 25.348,241.150 25.348 C 240.931 25.348,240.728 25.184,240.670 24.962 C 240.614 24.750,240.371 24.526,240.130 24.466 C 239.888 24.405,239.495 24.147,239.255 23.892 L 238.819 23.428 197.038 23.430 L 155.257 23.432 154.297 24.360 M9.602 26.722 C 9.602 26.998,9.894 27.031,10.126 26.780 C 10.317 26.574,10.289 26.530,9.982 26.553 C 9.773 26.569,9.602 26.645,9.602 26.722 M390.087 26.980 C 390.550 27.500,390.614 27.498,390.475 26.964 C 390.420 26.753,390.219 26.568,390.029 26.554 C 389.716 26.531,389.721 26.570,390.087 26.980 M230.480 29.146 L 230.917 29.583 230.968 49.629 C 231.010 66.255,230.974 69.719,230.759 69.934 C 230.616 70.076,230.448 70.578,230.385 71.048 C 230.194 72.469,230.594 72.413,221.099 72.353 C 213.070 72.302,212.596 72.280,212.214 71.934 L 211.810 71.568 211.810 50.867 C 211.810 36.103,211.871 30.033,212.023 29.699 C 212.495 28.663,212.517 28.661,222.222 28.687 L 230.043 28.709 230.480 29.146 M393.155 32.360 C 392.973 32.835,392.511 32.690,392.511 32.158 C 392.511 31.734,392.559 31.697,392.888 31.873 C 393.109 31.992,393.220 32.193,393.155 32.360 M3.649 42.151 C 3.649 42.535,3.553 42.631,3.169 42.631 C 2.657 42.631,2.538 42.282,2.919 41.901 C 3.300 41.520,3.649 41.639,3.649 42.151 M0.635 50.264 C 0.634 50.661,0.670 50.785,0.715 50.540 C 0.761 50.296,0.920 50.050,1.070 49.992 C 1.384 49.872,1.248 49.544,0.884 49.544 C 0.729 49.544,0.637 49.809,0.635 50.264 M143.004 96.886 C 142.708 97.146,142.268 97.360,142.027 97.360 C 141.750 97.360,141.511 97.530,141.377 97.823 C 141.261 98.078,140.999 98.340,140.794 98.405 C 140.542 98.485,140.383 98.766,140.301 99.279 C 140.225 99.752,140.036 100.113,139.797 100.241 C 139.340 100.485,139.313 100.742,139.702 101.132 C 140.070 101.500,140.070 102.483,139.701 103.190 C 139.271 104.016,139.278 161.397,139.708 161.967 C 140.076 162.452,140.072 163.688,139.702 163.994 C 139.339 164.296,139.332 164.690,139.688 164.826 C 139.839 164.884,140.137 165.326,140.350 165.807 C 140.563 166.289,140.822 166.683,140.927 166.683 C 141.031 166.683,141.177 166.877,141.252 167.115 C 141.422 167.660,141.677 167.828,142.343 167.832 C 142.633 167.834,143.065 168.029,143.303 168.267 L 143.735 168.699 200.037 168.699 L 256.339 168.699 256.742 168.267 C 256.963 168.029,257.350 167.835,257.601 167.835 C 258.310 167.835,258.679 167.631,258.867 167.137 C 258.962 166.887,259.162 166.683,259.311 166.683 C 259.470 166.683,259.635 166.402,259.709 166.010 C 259.778 165.640,260.022 165.163,260.250 164.951 C 260.650 164.578,260.653 164.544,260.337 164.009 C 259.899 163.268,259.904 161.741,260.346 161.253 C 260.663 160.903,260.682 159.261,260.682 132.515 C 260.682 105.756,260.663 104.130,260.346 103.813 C 259.906 103.374,259.901 101.923,260.336 101.187 C 260.650 100.655,260.647 100.618,260.243 100.188 C 260.012 99.942,259.766 99.453,259.695 99.101 C 259.621 98.731,259.427 98.424,259.236 98.374 C 259.053 98.326,258.814 98.089,258.704 97.848 C 258.574 97.563,258.270 97.364,257.843 97.284 C 257.479 97.216,257.027 96.989,256.838 96.780 C 256.374 96.267,244.569 96.186,243.369 96.687 C 242.351 97.113,152.064 97.113,151.320 96.687 C 150.365 96.142,143.668 96.301,143.004 96.886 M399.084 142.103 C 398.884 142.423,398.893 142.487,399.134 142.487 C 399.296 142.487,399.424 142.317,399.424 142.103 C 399.424 141.892,399.401 141.719,399.374 141.719 C 399.347 141.719,399.216 141.892,399.084 142.103 M398.022 146.691 C 398.294 147.125,398.124 147.372,397.761 147.070 C 397.485 146.841,397.408 146.327,397.649 146.327 C 397.730 146.327,397.897 146.491,398.022 146.691 M396.159 153.145 C 395.964 153.380,395.977 153.433,396.232 153.433 C 396.403 153.433,396.543 153.303,396.543 153.145 C 396.543 152.986,396.511 152.856,396.471 152.856 C 396.431 152.856,396.291 152.986,396.159 153.145 M6.529 157.733 C 6.529 158.165,6.002 158.251,5.894 157.836 C 5.823 157.565,5.896 157.465,6.163 157.465 C 6.364 157.465,6.529 157.586,6.529 157.733 M393.855 158.329 C 393.596 158.642,393.658 158.681,394.127 158.501 C 394.294 158.437,394.431 158.307,394.431 158.213 C 394.431 157.947,394.120 158.010,393.855 158.329 M390.341 164.890 C 390.409 165.066,390.384 165.161,390.287 165.102 C 390.190 165.043,389.999 165.115,389.863 165.263 C 389.657 165.485,389.679 165.530,389.986 165.530 C 390.190 165.530,390.410 165.394,390.474 165.227 C 390.641 164.791,390.618 164.570,390.404 164.570 C 390.302 164.570,390.274 164.714,390.341 164.890 M387.326 168.891 C 387.326 169.287,387.234 169.371,386.798 169.368 C 386.386 169.366,386.333 169.324,386.558 169.179 C 386.750 169.055,386.766 168.992,386.606 168.990 C 386.474 168.988,386.366 168.857,386.366 168.699 C 386.366 168.520,386.547 168.411,386.846 168.411 C 387.230 168.411,387.326 168.507,387.326 168.891 M373.012 182.250 C 372.942 182.363,372.931 182.501,372.988 182.557 C 373.125 182.695,373.500 182.452,373.500 182.226 C 373.500 181.980,373.168 181.997,373.012 182.250 M369.981 183.716 C 369.769 183.771,369.673 183.917,369.739 184.088 C 369.799 184.246,369.763 184.318,369.657 184.252 C 369.293 184.027,369.460 183.581,369.899 183.604 C 370.246 183.622,370.262 183.644,369.981 183.716 M360.944 188.298 C 360.882 188.458,360.952 188.574,361.108 188.574 C 361.492 188.574,361.645 188.251,361.321 188.126 C 361.172 188.069,361.002 188.146,360.944 188.298 M355.153 189.910 C 355.121 190.073,355.088 190.239,355.080 190.278 C 355.052 190.410,354.489 189.873,354.489 189.715 C 354.489 189.629,354.651 189.570,354.850 189.585 C 355.065 189.602,355.188 189.733,355.153 189.910 " stroke="none" fill="#5c5c5c" fill-rule="evenodd"></path><path id="path2" d="M49.720 0.649 C 49.269 1.306,50.051 1.858,51.105 1.627 C 52.160 1.395,51.854 0.658,50.696 0.640 C 50.168 0.632,49.729 0.636,49.720 0.649 M348.669 0.711 C 348.213 0.829,348.313 1.604,348.795 1.696 C 349.672 1.863,350.406 1.552,350.310 1.053 C 350.218 0.570,349.660 0.454,348.669 0.711 M354.361 2.029 C 354.298 2.195,354.322 2.406,354.415 2.500 C 354.513 2.597,354.596 2.470,354.612 2.199 C 354.644 1.663,354.531 1.586,354.361 2.029 M41.796 3.040 C 41.426 3.449,41.552 3.649,42.183 3.649 C 42.533 3.649,42.631 3.543,42.631 3.169 C 42.631 2.600,42.247 2.541,41.796 3.040 M38.815 3.701 C 38.696 3.820,38.598 4.024,38.598 4.155 C 38.598 4.286,38.317 4.427,37.974 4.470 C 37.629 4.513,37.888 4.561,38.550 4.578 C 39.743 4.609,39.750 4.605,39.750 4.074 C 39.750 3.497,39.227 3.288,38.815 3.701 M360.250 4.063 C 360.250 4.582,360.264 4.588,361.450 4.565 C 362.110 4.551,362.440 4.505,362.184 4.461 C 361.927 4.417,361.558 4.178,361.363 3.931 C 360.871 3.306,360.250 3.380,360.250 4.063 M34.072 6.035 C 33.868 6.184,33.763 6.366,33.837 6.440 C 33.911 6.514,34.115 6.431,34.291 6.255 C 34.706 5.840,34.551 5.685,34.072 6.035 M365.518 6.097 C 365.545 6.282,365.624 6.411,365.693 6.385 C 365.762 6.359,365.916 6.337,366.034 6.337 C 366.183 6.337,366.176 6.248,366.011 6.049 C 365.690 5.662,365.457 5.685,365.518 6.097 M31.772 6.698 C 31.579 6.891,31.701 7.118,31.925 6.984 C 32.104 6.876,32.101 6.918,31.915 7.148 C 31.702 7.410,31.724 7.476,32.057 7.581 C 32.594 7.752,32.802 7.582,32.701 7.055 C 32.625 6.656,32.039 6.431,31.772 6.698 M367.426 6.966 C 367.406 7.314,367.508 7.417,367.906 7.447 C 368.219 7.471,368.320 7.427,368.171 7.332 C 368.039 7.248,367.823 7.031,367.691 6.851 C 367.473 6.553,367.448 6.564,367.426 6.966 M26.778 9.777 C 26.838 9.874,26.788 9.986,26.668 10.026 C 26.338 10.136,27.061 10.785,27.433 10.713 C 27.831 10.637,27.962 9.986,27.623 9.772 C 27.277 9.552,26.642 9.556,26.778 9.777 M372.285 9.746 C 372.101 10.058,372.542 10.794,372.845 10.678 C 373.011 10.614,373.226 10.562,373.323 10.562 C 373.623 10.562,373.424 10.094,373.020 9.848 C 372.567 9.573,372.401 9.550,372.285 9.746 M22.996 12.881 C 22.491 13.175,22.579 13.634,23.140 13.634 C 23.524 13.634,23.620 13.538,23.620 13.154 C 23.620 12.632,23.508 12.583,22.996 12.881 M376.323 12.931 C 376.155 13.368,376.478 13.647,377.094 13.601 C 377.661 13.557,377.672 13.540,377.393 13.115 C 377.075 12.630,376.478 12.527,376.323 12.931 M173.596 16.435 C 173.196 16.657,170.024 16.701,154.579 16.704 C 138.323 16.706,135.912 16.744,134.991 17.008 C 134.414 17.173,133.466 17.441,132.885 17.603 C 132.304 17.764,131.652 18.059,131.436 18.259 C 131.219 18.458,130.754 18.679,130.402 18.749 C 130.050 18.820,129.725 19.015,129.681 19.184 C 129.636 19.353,129.280 19.643,128.890 19.828 C 127.860 20.317,126.961 20.980,126.836 21.343 C 126.776 21.516,126.551 21.704,126.336 21.761 C 126.120 21.817,125.900 22.032,125.846 22.238 C 125.792 22.444,125.539 22.708,125.284 22.824 C 125.029 22.940,124.820 23.131,124.820 23.247 C 124.820 23.363,124.395 23.948,123.874 24.547 C 123.354 25.146,122.868 25.895,122.793 26.212 C 122.718 26.529,122.488 26.974,122.282 27.202 C 122.076 27.430,121.824 27.991,121.722 28.450 C 121.620 28.909,121.347 29.674,121.114 30.149 L 120.691 31.013 120.691 96.015 L 120.691 161.018 121.114 161.882 C 121.347 162.357,121.633 163.178,121.750 163.706 C 121.867 164.234,122.119 164.839,122.310 165.050 C 122.501 165.262,122.713 165.672,122.782 165.963 C 122.851 166.253,122.990 166.491,123.091 166.491 C 123.193 166.491,123.450 166.832,123.663 167.248 C 123.875 167.665,124.160 168.076,124.295 168.161 C 124.430 168.245,124.692 168.553,124.877 168.843 C 125.062 169.133,125.341 169.371,125.497 169.371 C 125.652 169.371,125.780 169.472,125.780 169.596 C 125.780 169.863,127.432 171.483,127.704 171.483 C 127.808 171.483,127.892 171.604,127.892 171.751 C 127.892 171.898,128.217 172.150,128.613 172.311 C 129.009 172.472,129.483 172.784,129.667 173.004 C 129.851 173.224,130.161 173.404,130.357 173.404 C 130.553 173.404,130.866 173.572,131.053 173.779 C 131.239 173.985,131.845 174.248,132.399 174.363 C 132.952 174.477,133.851 174.741,134.396 174.948 C 135.961 175.543,263.867 175.544,265.675 174.949 C 266.308 174.740,267.148 174.520,267.541 174.459 C 267.934 174.398,268.508 174.136,268.817 173.876 C 269.126 173.616,269.511 173.404,269.673 173.404 C 269.835 173.404,270.137 173.188,270.345 172.924 C 270.553 172.660,270.843 172.444,270.990 172.444 C 271.270 172.444,272.102 171.810,273.196 170.763 C 273.555 170.420,273.932 170.139,274.034 170.139 C 274.136 170.139,274.220 170.008,274.220 169.847 C 274.220 169.686,274.436 169.456,274.700 169.336 C 274.964 169.216,275.180 169.044,275.180 168.954 C 275.180 168.865,275.437 168.523,275.750 168.195 C 276.064 167.867,276.379 167.414,276.450 167.188 C 276.521 166.963,276.740 166.666,276.936 166.528 C 277.132 166.390,277.292 166.169,277.292 166.037 C 277.292 165.905,277.499 165.517,277.751 165.175 C 278.029 164.799,278.262 164.144,278.340 163.519 C 278.411 162.950,278.588 162.386,278.734 162.265 C 279.420 161.696,279.427 161.055,279.367 104.529 L 279.309 49.000 278.907 48.456 C 278.686 48.157,278.442 47.578,278.366 47.171 C 278.290 46.763,278.036 46.245,277.802 46.019 C 277.568 45.792,277.273 45.370,277.147 45.079 C 277.020 44.789,276.828 44.551,276.720 44.551 C 276.613 44.551,276.524 44.452,276.524 44.330 C 276.524 44.081,275.488 42.608,274.873 41.984 C 274.652 41.759,274.368 41.380,274.242 41.143 C 274.117 40.905,273.888 40.711,273.733 40.711 C 273.578 40.711,273.452 40.581,273.452 40.423 C 273.452 40.264,272.998 39.663,272.444 39.088 C 271.889 38.512,271.312 37.886,271.160 37.696 C 270.848 37.304,269.195 35.438,268.636 34.847 C 268.433 34.632,268.267 34.367,268.267 34.257 C 268.267 34.148,268.051 33.871,267.787 33.641 C 267.523 33.412,267.307 33.139,267.307 33.034 C 267.307 32.930,267.094 32.791,266.834 32.726 C 266.573 32.660,266.310 32.447,266.248 32.252 C 266.186 32.057,265.976 31.846,265.781 31.785 C 265.587 31.723,265.382 31.496,265.325 31.280 C 265.269 31.065,265.044 30.842,264.825 30.784 C 264.606 30.727,264.426 30.607,264.426 30.517 C 264.426 30.376,263.692 29.506,263.062 28.901 C 262.952 28.795,262.664 28.514,262.422 28.277 C 262.180 28.039,261.901 27.844,261.801 27.844 C 261.702 27.844,261.083 27.326,260.425 26.692 C 259.767 26.059,259.139 25.540,259.029 25.540 C 258.918 25.540,258.207 24.892,257.448 24.100 C 256.688 23.308,255.927 22.660,255.756 22.660 C 255.585 22.660,255.399 22.480,255.341 22.261 C 255.284 22.042,255.061 21.817,254.845 21.761 C 254.630 21.704,254.403 21.499,254.341 21.304 C 254.280 21.110,254.039 20.891,253.807 20.818 C 253.575 20.746,253.194 20.482,252.962 20.233 C 252.729 19.983,252.361 19.779,252.144 19.779 C 251.927 19.779,251.562 19.563,251.332 19.299 C 251.103 19.035,250.826 18.819,250.717 18.819 C 250.608 18.819,250.342 18.600,250.127 18.333 C 249.877 18.022,249.459 17.803,248.968 17.725 C 248.545 17.658,247.955 17.423,247.656 17.203 C 247.115 16.805,246.997 16.802,227.876 16.707 C 212.985 16.632,208.547 16.556,208.222 16.371 C 207.572 15.999,174.271 16.060,173.596 16.435 M224.676 16.875 C 246.154 16.994,246.284 16.997,247.144 17.401 C 247.619 17.625,248.254 17.866,248.555 17.938 C 249.123 18.073,249.863 18.539,250.943 19.443 C 251.290 19.734,251.661 19.971,251.767 19.971 C 251.993 19.971,253.696 21.225,254.547 22.017 C 254.870 22.318,255.432 22.790,255.796 23.068 C 256.159 23.345,256.889 24.003,257.417 24.529 C 258.350 25.459,260.565 27.345,262.100 28.517 C 262.515 28.833,263.144 29.453,263.497 29.894 C 263.850 30.335,264.333 30.787,264.570 30.898 C 264.808 31.010,265.002 31.196,265.002 31.312 C 265.002 31.553,266.443 33.029,266.679 33.029 C 266.764 33.029,267.178 33.469,267.599 34.005 C 268.019 34.542,268.557 35.212,268.795 35.494 C 269.032 35.775,269.227 36.057,269.227 36.120 C 269.227 36.184,269.888 36.918,270.696 37.753 C 272.435 39.549,275.180 42.757,275.180 42.992 C 275.180 43.083,275.590 43.679,276.092 44.315 C 276.594 44.952,277.153 45.719,277.335 46.020 C 277.517 46.321,277.747 46.697,277.847 46.855 C 278.261 47.515,278.869 49.746,279.039 51.230 C 279.411 54.485,279.168 160.144,278.787 160.922 C 278.606 161.291,278.365 162.016,278.252 162.532 C 278.006 163.660,277.058 165.939,276.633 166.428 C 276.465 166.621,275.823 167.384,275.206 168.123 C 274.233 169.289,273.471 170.044,271.600 171.696 C 271.374 171.896,271.100 172.060,270.991 172.060 C 270.882 172.060,270.537 172.275,270.224 172.539 C 269.346 173.277,267.626 174.118,266.701 174.261 C 266.242 174.332,265.434 174.536,264.906 174.713 C 263.433 175.209,136.532 175.212,135.190 174.717 C 134.714 174.542,133.980 174.341,133.557 174.271 C 132.738 174.135,130.104 172.952,129.905 172.630 C 129.840 172.524,129.505 172.320,129.161 172.177 C 127.787 171.602,123.347 166.685,122.798 165.129 C 122.640 164.682,122.428 164.217,122.328 164.096 C 122.228 163.975,122.023 163.406,121.872 162.831 C 121.721 162.256,121.437 161.311,121.241 160.730 C 120.895 159.708,120.883 157.577,120.883 95.727 L 120.883 31.781 121.289 31.013 C 121.513 30.590,121.754 29.922,121.826 29.527 C 121.955 28.815,123.182 26.041,123.564 25.596 C 123.674 25.468,124.066 24.955,124.436 24.456 C 125.807 22.603,128.224 20.385,129.477 19.830 C 129.767 19.701,130.005 19.514,130.005 19.415 C 130.005 19.315,130.430 19.093,130.950 18.920 C 131.470 18.747,131.995 18.486,132.117 18.339 C 132.239 18.192,132.829 17.973,133.428 17.853 C 134.027 17.733,134.906 17.490,135.382 17.314 C 136.649 16.846,180.538 16.629,224.676 16.875 M12.975 22.891 C 12.562 23.482,12.595 23.620,13.154 23.620 C 13.535 23.620,13.634 23.523,13.634 23.151 C 13.634 22.499,13.333 22.380,12.975 22.891 M386.475 22.615 C 386.415 22.675,386.366 22.925,386.366 23.172 C 386.366 23.642,387.168 23.838,387.421 23.429 C 387.685 23.001,386.827 22.262,386.475 22.615 M155.060 23.301 C 154.794 23.390,154.174 23.848,153.682 24.319 C 153.191 24.790,152.696 25.235,152.583 25.309 C 152.469 25.383,152.117 25.947,151.800 26.561 L 151.224 27.677 151.224 50.181 C 151.224 74.143,151.173 72.710,152.110 74.796 C 152.541 75.754,153.539 76.712,154.297 76.895 C 154.614 76.972,155.027 77.173,155.215 77.342 C 155.479 77.580,155.675 77.608,156.079 77.463 C 156.439 77.334,156.928 77.352,157.657 77.521 C 159.511 77.952,232.576 77.883,234.431 77.449 C 235.638 77.167,236.023 77.154,237.196 77.355 C 238.335 77.551,238.609 77.545,238.866 77.319 C 239.036 77.171,239.364 76.992,239.597 76.921 C 240.407 76.674,241.712 75.234,241.956 74.316 C 242.083 73.841,242.318 73.304,242.479 73.124 C 242.715 72.859,242.743 72.528,242.625 71.396 C 242.474 69.939,242.396 31.910,242.539 29.381 C 242.694 26.654,240.627 23.248,238.808 23.232 C 227.037 23.130,155.396 23.189,155.060 23.301 M239.255 23.892 C 239.495 24.147,239.888 24.405,240.130 24.466 C 240.371 24.526,240.614 24.750,240.670 24.962 C 240.728 25.184,240.931 25.348,241.150 25.348 C 241.574 25.348,241.760 25.822,241.764 26.911 C 241.766 27.306,241.924 27.804,242.128 28.056 C 242.470 28.478,242.472 28.544,242.176 29.277 C 241.895 29.972,241.856 32.043,241.798 49.256 C 241.734 68.391,241.788 70.502,242.385 72.070 C 242.562 72.534,242.533 72.648,242.178 72.897 C 241.889 73.100,241.767 73.388,241.767 73.869 C 241.767 74.418,241.618 74.690,241.012 75.251 C 239.841 76.334,239.613 76.508,239.051 76.750 C 238.304 77.071,156.048 77.105,154.895 76.785 C 153.763 76.470,152.457 75.074,152.248 73.954 C 152.160 73.483,151.936 72.930,151.752 72.726 C 151.236 72.156,151.230 27.729,151.747 27.441 C 151.928 27.339,152.169 26.914,152.281 26.497 C 152.401 26.052,152.661 25.645,152.911 25.513 C 153.145 25.389,153.769 24.870,154.297 24.360 L 155.257 23.432 197.038 23.430 L 238.819 23.428 239.255 23.892 M10.322 26.633 C 10.137 26.681,9.986 26.806,9.986 26.910 C 9.986 27.014,9.899 27.045,9.793 26.980 C 9.679 26.910,9.628 27.043,9.668 27.305 C 9.705 27.549,9.792 27.727,9.861 27.700 C 9.929 27.674,10.105 27.652,10.252 27.652 C 10.401 27.652,10.555 27.399,10.603 27.076 C 10.649 26.759,10.681 26.510,10.672 26.523 C 10.664 26.535,10.506 26.584,10.322 26.633 M389.397 27.076 C 389.470 27.570,389.565 27.652,390.060 27.652 C 390.579 27.652,390.612 27.618,390.383 27.316 C 389.685 26.393,389.283 26.295,389.397 27.076 M213.730 28.741 C 211.662 28.972,211.810 27.270,211.810 50.867 L 211.810 71.568 212.214 71.934 C 212.596 72.280,213.070 72.302,221.099 72.353 C 230.594 72.413,230.194 72.469,230.385 71.048 C 230.448 70.578,230.616 70.076,230.759 69.934 C 230.974 69.719,231.010 66.255,230.968 49.629 L 230.917 29.583 230.480 29.146 L 230.043 28.709 222.222 28.687 C 217.921 28.676,214.100 28.700,213.730 28.741 M229.968 29.269 C 230.740 29.834,230.601 70.831,229.824 71.768 C 229.553 72.095,213.610 72.124,212.897 71.799 C 212.191 71.477,212.198 71.708,212.196 50.447 C 212.194 29.090,212.149 30.029,213.196 29.296 C 213.808 28.867,229.384 28.842,229.968 29.269 M7.182 31.832 C 6.905 32.017,6.915 32.645,7.195 32.645 C 7.314 32.645,7.412 32.429,7.412 32.165 C 7.412 31.901,7.408 31.686,7.403 31.688 C 7.398 31.690,7.298 31.754,7.182 31.832 M392.554 32.180 C 392.526 32.510,392.612 32.644,392.849 32.642 C 393.117 32.640,393.130 32.606,392.915 32.470 C 392.701 32.334,392.720 32.285,393.011 32.224 C 393.359 32.152,393.358 32.139,392.984 31.932 C 392.640 31.742,392.587 31.772,392.554 32.180 M393.474 33.918 C 393.470 34.203,394.021 34.655,394.180 34.497 C 394.248 34.429,394.181 34.372,394.031 34.371 C 393.805 34.368,393.803 34.340,394.020 34.203 C 394.201 34.087,394.216 33.998,394.068 33.906 C 393.951 33.834,393.854 33.888,393.852 34.026 C 393.850 34.209,393.798 34.199,393.663 33.989 C 393.561 33.831,393.476 33.799,393.474 33.918 M4.417 37.977 C 4.417 38.343,4.283 38.566,3.985 38.697 C 3.319 38.989,3.362 39.750,4.043 39.750 C 4.568 39.750,4.578 39.729,4.583 38.598 C 4.586 37.964,4.550 37.446,4.503 37.446 C 4.455 37.446,4.417 37.685,4.417 37.977 M395.519 38.726 C 395.169 39.076,395.401 39.750,395.871 39.750 C 396.355 39.750,396.463 39.497,396.235 38.902 C 396.115 38.590,395.746 38.499,395.519 38.726 M2.919 41.901 C 2.538 42.282,2.657 42.631,3.169 42.631 C 3.553 42.631,3.649 42.535,3.649 42.151 C 3.649 41.639,3.300 41.520,2.919 41.901 M396.479 41.799 C 396.264 42.015,396.337 42.594,396.591 42.680 C 397.095 42.849,397.504 42.606,397.314 42.251 C 397.214 42.065,397.188 41.859,397.254 41.792 C 397.321 41.725,397.203 41.671,396.992 41.671 C 396.780 41.671,396.550 41.728,396.479 41.799 M2.161 44.647 C 2.271 44.851,1.832 45.359,1.679 45.206 C 1.542 45.069,1.639 45.753,1.810 46.135 C 2.062 46.696,2.471 46.516,2.608 45.783 C 2.707 45.255,2.658 45.019,2.398 44.775 C 2.211 44.599,2.105 44.542,2.161 44.647 M397.674 44.791 C 397.500 45.173,397.583 45.831,397.806 45.831 C 398.120 45.831,398.176 45.401,397.885 45.221 C 397.777 45.155,397.739 45.020,397.800 44.922 C 397.861 44.824,397.862 44.743,397.803 44.743 C 397.744 44.743,397.686 44.765,397.674 44.791 M1.248 49.736 C 1.349 49.899,1.154 49.993,0.768 49.967 C 0.715 49.964,0.667 50.339,0.661 50.802 C 0.650 51.622,0.880 51.944,1.294 51.687 C 1.644 51.469,1.679 49.544,1.333 49.544 C 1.221 49.544,1.183 49.630,1.248 49.736 M398.464 50.685 C 398.464 51.692,398.570 51.873,399.052 51.680 C 399.586 51.467,399.449 49.736,398.899 49.736 C 398.505 49.736,398.464 49.827,398.464 50.685 M142.860 96.495 C 142.683 96.601,142.282 96.833,141.969 97.011 C 141.120 97.495,140.255 98.363,140.087 98.900 C 140.005 99.162,139.779 99.579,139.585 99.827 C 139.246 100.262,139.232 101.531,139.232 132.566 L 139.232 164.852 139.674 165.528 C 139.917 165.899,140.356 166.566,140.650 167.011 C 141.014 167.562,141.406 167.890,141.883 168.043 C 142.268 168.166,142.743 168.408,142.939 168.579 C 143.266 168.865,147.983 168.895,199.840 168.940 L 256.385 168.989 257.206 168.508 C 257.658 168.243,258.156 168.027,258.313 168.027 C 258.694 168.027,259.284 167.376,260.155 165.996 L 260.874 164.858 260.874 132.593 L 260.874 100.327 260.442 99.777 C 260.204 99.475,260.010 99.117,260.010 98.982 C 260.010 98.711,258.637 97.168,258.396 97.168 C 258.313 97.168,257.984 96.982,257.665 96.755 L 257.086 96.343 200.135 96.323 C 162.476 96.310,143.074 96.368,142.860 96.495 M151.320 96.687 C 152.064 97.113,242.351 97.113,243.369 96.687 C 244.569 96.186,256.374 96.267,256.838 96.780 C 257.027 96.989,257.479 97.216,257.843 97.284 C 258.270 97.364,258.574 97.563,258.704 97.848 C 258.814 98.089,259.053 98.326,259.236 98.374 C 259.427 98.424,259.621 98.731,259.695 99.101 C 259.766 99.453,260.012 99.942,260.243 100.188 C 260.647 100.618,260.650 100.655,260.336 101.187 C 259.901 101.923,259.906 103.374,260.346 103.813 C 260.663 104.130,260.682 105.756,260.682 132.515 C 260.682 159.261,260.663 160.903,260.346 161.253 C 259.904 161.741,259.899 163.268,260.337 164.009 C 260.653 164.544,260.650 164.578,260.250 164.951 C 260.022 165.163,259.778 165.640,259.709 166.010 C 259.635 166.402,259.470 166.683,259.311 166.683 C 259.162 166.683,258.962 166.887,258.867 167.137 C 258.679 167.631,258.310 167.835,257.601 167.835 C 257.350 167.835,256.963 168.029,256.742 168.267 L 256.339 168.699 200.037 168.699 L 143.735 168.699 143.303 168.267 C 143.065 168.029,142.633 167.834,142.343 167.832 C 141.677 167.828,141.422 167.660,141.252 167.115 C 141.177 166.877,141.031 166.683,140.927 166.683 C 140.822 166.683,140.563 166.289,140.350 165.807 C 140.137 165.326,139.839 164.884,139.688 164.826 C 139.332 164.690,139.339 164.296,139.702 163.994 C 140.072 163.688,140.076 162.452,139.708 161.967 C 139.278 161.397,139.271 104.016,139.701 103.190 C 140.070 102.483,140.070 101.500,139.702 101.132 C 139.313 100.742,139.340 100.485,139.797 100.241 C 140.036 100.113,140.225 99.752,140.301 99.279 C 140.383 98.766,140.542 98.485,140.794 98.405 C 140.999 98.340,141.261 98.078,141.377 97.823 C 141.511 97.530,141.750 97.360,142.027 97.360 C 142.268 97.360,142.708 97.146,143.004 96.886 C 143.668 96.301,150.365 96.142,151.320 96.687 M0.697 140.807 C 0.443 141.755,0.555 142.246,1.047 142.340 C 1.588 142.443,1.848 141.782,1.621 140.879 C 1.463 140.250,0.859 140.203,0.697 140.807 M398.464 141.431 C 398.464 142.503,398.615 142.710,399.032 142.208 C 399.555 141.578,399.420 140.374,398.827 140.374 C 398.515 140.374,398.464 140.522,398.464 141.431 M1.756 146.407 C 1.554 146.672,1.754 147.370,2.046 147.425 C 2.390 147.491,2.733 146.962,2.605 146.561 C 2.480 146.165,2.006 146.079,1.756 146.407 M397.504 146.615 C 397.504 146.774,397.590 146.904,397.696 146.904 C 397.801 146.904,397.888 146.774,397.888 146.615 C 397.888 146.457,397.801 146.327,397.696 146.327 C 397.590 146.327,397.504 146.457,397.504 146.615 M396.354 149.640 C 396.359 150.030,396.616 150.302,396.976 150.299 C 397.160 150.297,397.271 150.256,397.222 150.207 C 397.173 150.158,397.219 149.956,397.325 149.759 C 397.493 149.445,397.444 149.400,396.934 149.400 C 396.594 149.400,396.353 149.500,396.354 149.640 M3.531 152.712 C 3.543 152.960,3.734 153.224,3.976 153.330 C 4.245 153.448,4.426 153.727,4.473 154.098 C 4.514 154.419,4.561 154.141,4.578 153.481 C 4.609 152.281,4.609 152.280,4.059 152.280 C 3.610 152.280,3.513 152.360,3.531 152.712 M395.391 152.836 C 395.391 153.343,395.870 153.474,396.238 153.068 C 396.597 152.671,396.464 152.472,395.839 152.472 C 395.528 152.472,395.391 152.583,395.391 152.836 M394.431 155.635 C 394.431 155.807,394.544 155.874,394.719 155.806 C 394.878 155.746,395.007 155.619,395.007 155.524 C 395.007 155.430,394.878 155.353,394.719 155.353 C 394.561 155.353,394.431 155.480,394.431 155.635 M393.471 157.881 C 393.471 158.460,393.681 158.579,394.008 158.185 C 394.385 157.730,394.344 157.416,393.903 157.376 C 393.547 157.344,393.471 157.434,393.471 157.881 M5.894 157.589 C 6.020 157.640,6.099 157.784,6.070 157.910 C 6.040 158.035,6.052 158.072,6.097 157.992 C 6.141 157.912,6.278 157.907,6.401 157.981 C 6.524 158.055,6.506 157.969,6.362 157.790 C 6.217 157.611,6.001 157.472,5.881 157.480 C 5.735 157.491,5.739 157.526,5.894 157.589 M7.297 159.546 C 7.297 159.669,7.164 159.770,7.002 159.770 C 6.758 159.770,6.750 159.817,6.954 160.037 C 7.163 160.263,7.224 160.244,7.349 159.913 C 7.431 159.698,7.452 159.477,7.397 159.422 C 7.342 159.367,7.297 159.422,7.297 159.546 M9.747 164.858 C 9.670 165.261,9.728 165.338,10.108 165.338 C 10.464 165.338,10.562 165.235,10.562 164.858 C 10.562 164.516,10.458 164.378,10.200 164.378 C 9.967 164.378,9.806 164.549,9.747 164.858 M389.438 164.948 C 389.438 165.376,389.510 165.491,389.726 165.408 C 389.885 165.347,390.014 165.215,390.014 165.115 C 390.014 165.014,390.116 164.994,390.239 165.071 C 390.388 165.163,390.424 165.106,390.346 164.902 C 390.281 164.733,390.331 164.553,390.457 164.502 C 390.583 164.451,390.406 164.402,390.062 164.393 C 389.495 164.380,389.438 164.430,389.438 164.948 M12.631 168.518 C 12.367 168.782,12.744 169.371,13.177 169.371 C 13.537 169.371,13.634 169.269,13.634 168.891 C 13.634 168.434,12.964 168.185,12.631 168.518 M386.366 168.699 C 386.366 168.857,386.474 168.988,386.606 168.990 C 386.766 168.992,386.750 169.055,386.558 169.179 C 386.333 169.324,386.386 169.366,386.798 169.368 C 387.234 169.371,387.326 169.287,387.326 168.891 C 387.326 168.507,387.230 168.411,386.846 168.411 C 386.547 168.411,386.366 168.520,386.366 168.699 M17.733 174.604 C 17.654 174.733,17.701 174.750,17.862 174.650 C 18.044 174.537,18.083 174.580,17.998 174.800 C 17.914 175.020,17.986 175.099,18.254 175.078 C 18.459 175.063,18.627 174.949,18.627 174.826 C 18.627 174.527,17.894 174.344,17.733 174.604 M381.444 174.648 C 381.379 174.818,381.379 175.010,381.445 175.076 C 381.511 175.142,381.574 175.030,381.584 174.828 C 381.599 174.541,381.637 174.566,381.757 174.940 C 381.900 175.387,381.912 175.391,381.930 174.999 C 381.954 174.479,381.605 174.228,381.444 174.648 M22.788 178.525 C 22.717 178.595,22.666 178.833,22.675 179.053 C 22.683 179.273,22.734 179.345,22.787 179.213 C 22.840 179.081,22.960 178.973,23.054 178.973 C 23.147 178.973,23.174 179.102,23.113 179.261 C 23.052 179.419,23.089 179.549,23.195 179.549 C 23.404 179.549,23.620 179.102,23.620 178.669 C 23.620 178.393,23.023 178.289,22.788 178.525 M376.380 178.865 C 376.380 179.379,376.666 179.671,376.860 179.357 C 376.928 179.248,377.063 179.208,377.162 179.269 C 377.260 179.330,377.340 179.211,377.340 179.005 C 377.340 178.662,376.999 178.397,376.557 178.397 C 376.460 178.397,376.380 178.607,376.380 178.865 M24.004 179.741 C 24.376 179.981,24.580 179.981,24.580 179.741 C 24.580 179.635,24.386 179.550,24.148 179.552 C 23.798 179.554,23.771 179.590,24.004 179.741 M27.172 181.429 C 26.621 181.550,26.488 181.868,26.840 182.220 C 27.336 182.718,27.762 182.634,27.808 182.030 C 27.854 181.427,27.727 181.307,27.172 181.429 M372.588 181.415 C 372.282 181.525,372.266 182.639,372.572 182.573 C 372.806 182.523,373.500 181.918,373.500 181.764 C 373.500 181.589,372.824 181.330,372.588 181.415 M31.925 184.474 C 31.591 184.612,31.624 185.245,31.973 185.379 C 32.444 185.560,32.862 185.294,32.799 184.855 C 32.741 184.449,32.375 184.289,31.925 184.474 M367.309 184.824 C 367.199 185.400,367.393 185.577,367.944 185.402 C 368.472 185.234,368.372 184.467,367.811 184.387 C 367.504 184.344,367.380 184.451,367.309 184.824 M33.989 185.694 C 34.199 185.829,34.209 185.881,34.026 185.883 C 33.888 185.884,33.834 185.981,33.906 186.098 C 33.998 186.246,34.087 186.232,34.203 186.050 C 34.340 185.834,34.368 185.836,34.371 186.062 C 34.372 186.211,34.429 186.278,34.497 186.210 C 34.655 186.052,34.203 185.501,33.918 185.505 C 33.799 185.506,33.831 185.591,33.989 185.694 M36.102 186.630 C 36.102 186.980,36.627 187.257,36.738 186.966 C 36.796 186.815,36.792 186.640,36.729 186.577 C 36.553 186.401,36.102 186.440,36.102 186.630 M363.322 186.643 C 363.322 186.964,363.663 187.044,363.776 186.749 C 363.843 186.574,363.775 186.462,363.604 186.462 C 363.449 186.462,363.322 186.543,363.322 186.643 M38.653 187.827 C 38.667 188.017,38.717 188.135,38.765 188.088 C 38.812 188.040,38.969 188.099,39.113 188.219 C 39.421 188.474,39.498 188.422,39.588 187.902 C 39.640 187.601,39.544 187.514,39.140 187.499 C 38.757 187.485,38.633 187.568,38.653 187.827 M360.442 187.891 C 360.442 188.441,360.779 188.726,360.939 188.310 C 361.000 188.152,361.176 188.071,361.330 188.130 C 361.502 188.196,361.588 188.136,361.554 187.974 C 361.407 187.279,360.442 187.207,360.442 187.891 M44.813 189.768 C 44.739 189.889,44.772 189.923,44.892 189.849 C 45.007 189.778,45.156 189.809,45.223 189.918 C 45.350 190.123,45.703 190.003,45.703 189.756 C 45.703 189.529,44.955 189.540,44.813 189.768 M50.284 190.456 C 49.609 190.536,49.401 191.219,50.005 191.371 C 50.785 191.567,51.556 191.359,51.618 190.936 C 51.682 190.510,51.224 190.345,50.284 190.456 M348.860 190.442 C 348.434 190.505,348.333 190.610,348.380 190.940 C 348.479 191.637,350.408 191.678,350.408 190.984 C 350.408 190.712,350.298 190.494,350.160 190.494 C 350.023 190.494,349.796 190.465,349.656 190.428 C 349.515 190.392,349.157 190.398,348.860 190.442 " stroke="none" fill="#848484" fill-rule="evenodd"></path><path id="path3" d="M154.969 16.895 C 138.133 16.985,136.159 17.027,135.382 17.314 C 134.906 17.490,134.027 17.733,133.428 17.853 C 132.829 17.973,132.239 18.192,132.117 18.339 C 131.995 18.486,131.470 18.747,130.950 18.920 C 130.430 19.093,130.005 19.315,130.005 19.415 C 130.005 19.514,129.767 19.701,129.477 19.830 C 128.224 20.385,125.807 22.603,124.436 24.456 C 124.066 24.955,123.674 25.468,123.564 25.596 C 123.182 26.041,121.955 28.815,121.826 29.527 C 121.754 29.922,121.513 30.590,121.289 31.013 L 120.883 31.781 120.883 95.727 C 120.883 157.577,120.895 159.708,121.241 160.730 C 121.437 161.311,121.721 162.256,121.872 162.831 C 122.023 163.406,122.228 163.975,122.328 164.096 C 122.428 164.217,122.640 164.682,122.798 165.129 C 123.347 166.685,127.787 171.602,129.161 172.177 C 129.505 172.320,129.840 172.524,129.905 172.630 C 130.104 172.952,132.738 174.135,133.557 174.271 C 133.980 174.341,134.714 174.542,135.190 174.717 C 136.532 175.212,263.433 175.209,264.906 174.713 C 265.434 174.536,266.242 174.332,266.701 174.261 C 267.626 174.118,269.346 173.277,270.224 172.539 C 270.537 172.275,270.882 172.060,270.991 172.060 C 271.100 172.060,271.374 171.896,271.600 171.696 C 273.471 170.044,274.233 169.289,275.206 168.123 C 275.823 167.384,276.465 166.621,276.633 166.428 C 277.058 165.939,278.006 163.660,278.252 162.532 C 278.365 162.016,278.606 161.291,278.787 160.922 C 279.168 160.144,279.411 54.485,279.039 51.230 C 278.869 49.746,278.261 47.515,277.847 46.855 C 277.747 46.697,277.517 46.321,277.335 46.020 C 277.153 45.719,276.594 44.952,276.092 44.315 C 275.590 43.679,275.180 43.083,275.180 42.992 C 275.180 42.757,272.435 39.549,270.696 37.753 C 269.888 36.918,269.227 36.184,269.227 36.120 C 269.227 36.057,269.032 35.775,268.795 35.494 C 268.557 35.212,268.019 34.542,267.599 34.005 C 267.178 33.469,266.764 33.029,266.679 33.029 C 266.443 33.029,265.002 31.553,265.002 31.312 C 265.002 31.196,264.808 31.010,264.570 30.898 C 264.333 30.787,263.850 30.335,263.497 29.894 C 263.144 29.453,262.515 28.833,262.100 28.517 C 260.565 27.345,258.350 25.459,257.417 24.529 C 256.889 24.003,256.159 23.345,255.796 23.068 C 255.432 22.790,254.870 22.318,254.547 22.017 C 253.696 21.225,251.993 19.971,251.767 19.971 C 251.661 19.971,251.290 19.734,250.943 19.443 C 249.863 18.539,249.123 18.073,248.555 17.938 C 248.254 17.866,247.619 17.625,247.144 17.401 C 245.899 16.816,208.635 16.611,154.969 16.895 M224.388 17.084 L 245.895 17.219 247.439 17.779 C 248.288 18.087,249.455 18.684,250.032 19.106 C 250.608 19.528,251.296 19.972,251.560 20.094 C 252.215 20.395,255.391 22.977,257.033 24.544 C 258.745 26.176,261.151 28.229,261.353 28.229 C 261.438 28.229,262.287 29.028,263.240 30.005 C 265.190 32.004,266.014 32.825,266.772 33.521 C 267.059 33.785,267.766 34.625,268.342 35.387 C 268.919 36.150,270.007 37.422,270.760 38.214 C 273.148 40.728,273.831 41.519,274.578 42.638 C 274.979 43.239,275.409 43.850,275.534 43.997 C 276.159 44.731,276.908 45.773,276.908 45.907 C 276.908 45.990,277.121 46.311,277.381 46.620 C 277.641 46.929,277.947 47.605,278.060 48.123 C 278.174 48.640,278.415 49.453,278.596 49.928 C 278.903 50.736,278.925 54.298,278.925 105.137 L 278.925 159.482 278.481 160.922 C 277.438 164.313,276.880 165.757,276.428 166.241 C 276.217 166.467,275.742 167.054,275.372 167.546 C 274.129 169.199,271.006 172.053,270.434 172.058 C 270.306 172.059,270.112 172.225,270.003 172.428 C 269.895 172.631,269.481 172.904,269.085 173.035 C 268.688 173.165,268.147 173.424,267.883 173.609 C 267.619 173.794,266.971 174.001,266.443 174.069 C 265.915 174.137,265.050 174.339,264.522 174.518 C 263.049 175.018,137.269 175.022,135.478 174.522 C 134.844 174.346,133.971 174.108,133.538 173.995 C 132.801 173.803,131.237 173.102,129.578 172.221 C 128.007 171.386,123.269 166.200,123.013 165.035 C 122.943 164.715,122.673 164.034,122.413 163.520 C 122.152 163.005,121.940 162.336,121.940 162.032 C 121.940 161.728,121.812 161.232,121.656 160.930 C 121.008 159.677,120.983 157.253,120.981 96.056 C 120.979 35.688,121.016 31.855,121.596 31.156 C 121.707 31.022,121.870 30.525,121.959 30.051 C 122.047 29.578,122.338 28.728,122.606 28.163 C 122.873 27.598,123.092 27.047,123.092 26.940 C 123.092 26.542,126.290 22.487,127.124 21.827 C 127.600 21.451,128.253 20.928,128.577 20.665 C 128.901 20.402,129.398 20.082,129.681 19.952 C 129.965 19.823,130.197 19.652,130.197 19.571 C 130.197 19.491,130.521 19.321,130.917 19.195 C 131.313 19.068,131.903 18.804,132.227 18.609 C 132.552 18.413,133.287 18.159,133.860 18.043 C 134.433 17.927,135.247 17.687,135.670 17.510 C 136.811 17.030,181.622 16.815,224.388 17.084 M155.051 23.019 C 154.448 23.134,152.517 24.928,151.747 26.088 L 151.032 27.165 150.975 49.444 C 150.933 65.405,150.978 72.050,151.134 72.876 C 151.494 74.792,152.910 76.798,154.105 77.086 C 154.422 77.162,154.870 77.401,155.101 77.617 C 155.442 77.935,155.625 77.976,156.062 77.832 C 156.358 77.734,156.860 77.714,157.177 77.787 C 158.177 78.017,233.427 77.990,234.752 77.759 C 235.543 77.622,236.368 77.615,237.264 77.738 C 238.438 77.900,238.644 77.881,238.982 77.578 C 239.193 77.388,239.669 77.106,240.038 76.950 C 241.043 76.526,241.900 75.512,242.186 74.412 C 242.323 73.884,242.558 73.356,242.708 73.239 C 243.027 72.992,243.030 71.791,242.717 69.323 C 242.491 67.541,242.587 32.096,242.824 29.678 C 243.053 27.341,242.596 26.124,240.855 24.436 C 239.994 23.601,239.255 23.042,239.009 23.040 C 233.627 22.989,155.310 22.969,155.051 23.019 M238.808 23.232 C 240.627 23.248,242.694 26.654,242.539 29.381 C 242.396 31.910,242.474 69.939,242.625 71.396 C 242.743 72.528,242.715 72.859,242.479 73.124 C 242.318 73.304,242.083 73.841,241.956 74.316 C 241.712 75.234,240.407 76.674,239.597 76.921 C 239.364 76.992,239.036 77.171,238.866 77.319 C 238.609 77.545,238.335 77.551,237.196 77.355 C 236.023 77.154,235.638 77.167,234.431 77.449 C 232.576 77.883,159.511 77.952,157.657 77.521 C 156.928 77.352,156.439 77.334,156.079 77.463 C 155.675 77.608,155.479 77.580,155.215 77.342 C 155.027 77.173,154.614 76.972,154.297 76.895 C 153.539 76.712,152.541 75.754,152.110 74.796 C 151.173 72.710,151.224 74.143,151.224 50.181 L 151.224 27.677 151.800 26.561 C 152.117 25.947,152.469 25.383,152.583 25.309 C 152.696 25.235,153.191 24.790,153.682 24.319 C 154.174 23.848,154.794 23.390,155.060 23.301 C 155.396 23.189,227.037 23.130,238.808 23.232 M213.196 29.296 C 212.149 30.029,212.194 29.090,212.196 50.447 C 212.198 71.708,212.191 71.477,212.897 71.799 C 213.610 72.124,229.553 72.095,229.824 71.768 C 230.601 70.831,230.740 29.834,229.968 29.269 C 229.384 28.842,213.808 28.867,213.196 29.296 M229.754 29.494 C 230.184 29.923,230.124 70.983,229.693 71.502 C 229.411 71.842,213.737 72.001,213.214 71.669 C 212.606 71.282,212.578 70.351,212.579 50.540 C 212.581 28.329,212.499 29.668,213.870 29.355 C 215.194 29.054,229.438 29.178,229.754 29.494 M393.561 34.191 C 393.379 34.486,393.628 34.677,393.875 34.430 C 394.013 34.292,394.016 34.185,393.885 34.104 C 393.777 34.038,393.632 34.077,393.561 34.191 M142.816 96.207 C 141.632 96.695,140.329 97.932,139.542 99.314 L 139.030 100.212 139.030 132.605 L 139.030 164.998 139.916 166.420 C 140.723 167.714,140.922 167.901,142.141 168.513 L 143.480 169.185 200.015 169.185 L 256.551 169.185 257.885 168.513 C 258.618 168.144,259.356 167.646,259.525 167.406 C 261.004 165.307,260.966 165.430,260.928 162.938 L 260.893 160.634 260.787 162.842 C 260.662 165.462,259.437 168.027,258.310 168.027 C 258.154 168.027,257.658 168.243,257.206 168.508 L 256.385 168.989 199.840 168.940 C 147.983 168.895,143.266 168.865,142.939 168.579 C 142.743 168.408,142.268 168.166,141.883 168.043 C 141.429 167.897,141.019 167.568,140.716 167.107 C 140.459 166.715,140.020 166.048,139.741 165.624 L 139.232 164.852 139.232 132.566 C 139.232 101.066,139.241 100.268,139.599 99.812 C 139.801 99.556,140.020 99.136,140.085 98.881 C 140.208 98.395,140.918 97.713,142.171 96.878 L 142.911 96.384 199.998 96.363 L 257.086 96.343 257.665 96.755 C 257.984 96.982,258.313 97.168,258.396 97.168 C 258.637 97.168,260.010 98.711,260.010 98.982 C 260.010 99.117,260.179 99.444,260.387 99.708 C 260.698 100.104,260.775 100.552,260.826 102.278 L 260.888 104.369 260.929 102.151 C 260.952 100.900,260.888 99.851,260.782 99.745 C 260.678 99.641,260.440 99.240,260.252 98.854 C 259.886 98.101,257.700 96.217,257.164 96.192 C 255.595 96.120,142.992 96.135,142.816 96.207 M6.057 157.644 C 5.926 157.856,6.229 158.085,6.406 157.908 C 6.589 157.725,6.555 157.465,6.348 157.465 C 6.249 157.465,6.118 157.546,6.057 157.644 M34.094 185.680 C 33.962 185.893,34.265 186.122,34.443 185.945 C 34.625 185.762,34.591 185.502,34.385 185.502 C 34.285 185.502,34.154 185.582,34.094 185.680 " stroke="none" fill="#a4a4a4" fill-rule="evenodd"></path><path id="path4" d="M155.353 17.087 C 138.202 17.177,136.366 17.217,135.670 17.510 C 135.247 17.687,134.433 17.927,133.860 18.043 C 133.287 18.159,132.552 18.413,132.227 18.609 C 131.903 18.804,131.313 19.068,130.917 19.195 C 130.521 19.321,130.197 19.491,130.197 19.571 C 130.197 19.652,129.965 19.823,129.681 19.952 C 129.398 20.082,128.901 20.402,128.577 20.665 C 128.253 20.928,127.600 21.451,127.124 21.827 C 126.290 22.487,123.092 26.542,123.092 26.940 C 123.092 27.047,122.873 27.598,122.606 28.163 C 122.338 28.728,122.047 29.578,121.959 30.051 C 121.870 30.525,121.707 31.022,121.596 31.156 C 121.016 31.855,120.979 35.688,120.981 96.056 C 120.983 157.253,121.008 159.677,121.656 160.930 C 121.812 161.232,121.940 161.728,121.940 162.032 C 121.940 162.336,122.152 163.005,122.413 163.520 C 122.673 164.034,122.943 164.715,123.013 165.035 C 123.269 166.200,128.007 171.386,129.578 172.221 C 131.237 173.102,132.801 173.803,133.538 173.995 C 133.971 174.108,134.844 174.346,135.478 174.522 C 137.269 175.022,263.049 175.018,264.522 174.518 C 265.050 174.339,265.915 174.137,266.443 174.069 C 266.971 174.001,267.619 173.794,267.883 173.609 C 268.147 173.424,268.688 173.165,269.085 173.035 C 269.481 172.904,269.895 172.631,270.003 172.428 C 270.112 172.225,270.306 172.059,270.434 172.058 C 271.006 172.053,274.129 169.199,275.372 167.546 C 275.742 167.054,276.217 166.467,276.428 166.241 C 276.880 165.757,277.438 164.313,278.481 160.922 L 278.925 159.482 278.925 105.137 C 278.925 54.298,278.903 50.736,278.596 49.928 C 278.415 49.453,278.174 48.640,278.060 48.123 C 277.947 47.605,277.641 46.929,277.381 46.620 C 277.121 46.311,276.908 45.990,276.908 45.907 C 276.908 45.773,276.159 44.731,275.534 43.997 C 275.409 43.850,274.979 43.239,274.578 42.638 C 273.831 41.519,273.148 40.728,270.760 38.214 C 270.007 37.422,268.919 36.150,268.342 35.387 C 267.766 34.625,267.059 33.785,266.772 33.521 C 266.014 32.825,265.190 32.004,263.240 30.005 C 262.287 29.028,261.438 28.229,261.353 28.229 C 261.151 28.229,258.745 26.176,257.033 24.544 C 255.391 22.977,252.215 20.395,251.560 20.094 C 251.296 19.972,250.608 19.528,250.032 19.106 C 249.455 18.684,248.288 18.087,247.439 17.779 L 245.895 17.219 224.388 17.084 C 200.757 16.935,184.034 16.936,155.353 17.087 M245.395 17.656 C 245.797 17.862,246.701 18.130,247.403 18.252 C 248.105 18.374,248.680 18.550,248.680 18.642 C 248.680 18.734,248.961 18.953,249.304 19.129 C 249.647 19.305,250.172 19.653,250.471 19.902 C 250.769 20.151,251.133 20.355,251.278 20.355 C 251.424 20.355,251.757 20.550,252.019 20.787 C 253.177 21.836,254.333 22.784,254.878 23.132 C 255.202 23.338,255.871 23.922,256.364 24.428 C 256.857 24.934,257.354 25.348,257.470 25.348 C 257.585 25.348,257.734 25.521,257.801 25.732 C 257.868 25.943,257.998 26.116,258.089 26.116 C 258.181 26.116,258.746 26.591,259.346 27.172 C 259.946 27.753,260.502 28.229,260.581 28.229 C 260.661 28.229,261.018 28.486,261.376 28.802 C 261.733 29.117,262.137 29.376,262.272 29.378 C 262.407 29.379,262.571 29.532,262.636 29.717 C 262.802 30.193,264.071 31.493,264.369 31.493 C 264.506 31.493,264.618 31.631,264.618 31.800 C 264.618 32.199,265.833 33.413,266.231 33.413 C 266.400 33.413,266.539 33.480,266.539 33.561 C 266.539 33.804,268.205 35.956,268.536 36.141 C 268.705 36.236,268.843 36.414,268.843 36.537 C 268.843 36.660,269.014 36.936,269.223 37.151 C 272.212 40.223,272.876 40.938,272.876 41.086 C 272.876 41.182,273.031 41.310,273.221 41.370 C 273.412 41.431,273.672 41.770,273.800 42.124 C 273.928 42.478,274.205 42.923,274.414 43.113 C 274.624 43.303,274.796 43.570,274.796 43.706 C 274.796 43.842,274.956 44.066,275.151 44.204 C 275.347 44.342,275.653 44.714,275.832 45.031 C 276.167 45.626,276.937 46.728,277.372 47.238 C 277.587 47.489,277.797 48.400,278.190 50.792 C 278.242 51.109,278.409 51.643,278.560 51.980 C 278.924 52.791,278.879 157.690,278.513 158.329 C 278.300 158.703,278.025 160.031,277.759 161.978 C 277.686 162.506,277.476 163.083,277.292 163.259 C 277.098 163.445,276.900 164.029,276.824 164.643 C 276.722 165.454,276.603 165.732,276.320 165.823 C 276.115 165.887,275.948 166.022,275.948 166.121 C 275.948 166.221,275.711 166.564,275.420 166.883 C 275.130 167.203,274.591 167.829,274.223 168.274 C 273.855 168.719,273.098 169.472,272.540 169.947 C 271.983 170.422,271.259 171.046,270.931 171.334 C 270.603 171.621,270.172 171.907,269.973 171.971 C 269.774 172.034,269.611 172.202,269.611 172.344 C 269.611 172.495,269.295 172.655,268.849 172.731 C 268.429 172.802,267.864 173.034,267.593 173.247 C 267.266 173.505,266.605 173.694,265.619 173.812 C 264.805 173.910,264.009 174.050,263.850 174.123 C 262.268 174.853,138.248 174.749,135.670 174.016 C 135.247 173.895,134.589 173.795,134.207 173.792 C 133.814 173.790,133.305 173.624,133.033 173.410 C 132.770 173.203,132.133 172.939,131.620 172.824 C 131.106 172.709,130.529 172.446,130.338 172.241 C 130.146 172.036,129.871 171.867,129.727 171.867 C 129.346 171.867,124.244 166.727,124.244 166.343 C 124.244 166.237,124.041 166.018,123.792 165.855 C 123.449 165.630,123.312 165.319,123.222 164.555 C 123.149 163.941,122.951 163.390,122.713 163.136 C 122.499 162.908,122.324 162.463,122.324 162.147 C 122.324 161.832,122.109 160.757,121.847 159.759 L 121.371 157.945 121.367 95.874 L 121.363 33.803 121.843 32.147 C 122.108 31.235,122.324 30.252,122.324 29.961 C 122.324 29.670,122.489 29.222,122.692 28.964 C 122.894 28.707,123.121 28.171,123.196 27.773 C 123.271 27.375,123.537 26.805,123.788 26.507 C 124.039 26.209,124.244 25.879,124.244 25.774 C 124.244 25.670,124.460 25.443,124.724 25.270 C 124.988 25.097,125.204 24.874,125.204 24.775 C 125.204 24.518,126.764 22.468,126.959 22.468 C 127.050 22.468,127.458 22.165,127.867 21.795 C 128.276 21.426,128.662 21.123,128.723 21.123 C 128.785 21.123,129.045 20.929,129.302 20.691 C 130.028 20.019,131.093 19.424,131.813 19.289 C 132.173 19.222,132.647 19.000,132.865 18.796 C 133.130 18.549,133.739 18.366,134.696 18.245 C 135.484 18.145,136.456 17.887,136.856 17.673 C 137.980 17.071,244.215 17.054,245.395 17.656 M156.308 22.458 C 156.152 22.540,155.595 22.664,155.069 22.732 C 154.093 22.859,152.951 23.842,151.320 25.958 L 150.840 26.581 150.840 50.532 L 150.840 74.483 151.368 75.034 C 151.659 75.337,151.896 75.634,151.896 75.694 C 151.896 76.018,153.241 77.177,153.841 77.370 C 154.225 77.494,154.692 77.765,154.880 77.972 C 155.218 78.345,155.700 78.350,196.898 78.337 C 238.861 78.324,239.122 78.319,239.508 77.670 C 239.586 77.539,239.888 77.371,240.180 77.298 C 240.858 77.128,242.343 75.588,242.343 75.055 C 242.343 74.832,242.523 74.358,242.743 74.002 C 243.355 73.012,243.371 26.599,242.760 26.104 C 242.553 25.937,242.353 25.633,242.314 25.430 C 242.276 25.226,242.051 24.975,241.814 24.870 C 241.577 24.766,241.383 24.615,241.383 24.535 C 241.383 23.617,238.814 22.312,237.350 22.486 C 236.153 22.627,157.187 22.627,156.922 22.485 C 156.740 22.388,156.464 22.376,156.308 22.458 M239.009 23.040 C 239.255 23.042,239.994 23.601,240.855 24.436 C 242.596 26.124,243.053 27.341,242.824 29.678 C 242.587 32.096,242.491 67.541,242.717 69.323 C 243.030 71.791,243.027 72.992,242.708 73.239 C 242.558 73.356,242.323 73.884,242.186 74.412 C 241.900 75.512,241.043 76.526,240.038 76.950 C 239.669 77.106,239.193 77.388,238.982 77.578 C 238.644 77.881,238.438 77.900,237.264 77.738 C 236.368 77.615,235.543 77.622,234.752 77.759 C 233.427 77.990,158.177 78.017,157.177 77.787 C 156.860 77.714,156.358 77.734,156.062 77.832 C 155.625 77.976,155.442 77.935,155.101 77.617 C 154.870 77.401,154.422 77.162,154.105 77.086 C 152.910 76.798,151.494 74.792,151.134 72.876 C 150.978 72.050,150.933 65.405,150.975 49.444 L 151.032 27.165 151.747 26.088 C 152.517 24.928,154.448 23.134,155.051 23.019 C 155.310 22.969,233.627 22.989,239.009 23.040 M213.870 29.355 C 212.499 29.668,212.581 28.329,212.579 50.540 C 212.578 70.351,212.606 71.282,213.214 71.669 C 213.737 72.001,229.411 71.842,229.693 71.502 C 230.124 70.983,230.184 29.923,229.754 29.494 C 229.438 29.178,215.194 29.054,213.870 29.355 M229.680 30.275 C 230.029 31.193,229.831 70.831,229.477 71.055 C 228.923 71.405,213.407 71.294,213.271 70.940 C 213.020 70.287,213.141 30.398,213.394 30.193 C 213.836 29.835,214.366 29.809,221.944 29.787 L 229.486 29.765 229.680 30.275 M142.716 95.808 C 142.367 95.898,141.934 96.103,141.756 96.265 C 140.417 97.473,139.606 98.325,139.606 98.523 C 139.606 98.652,139.455 98.868,139.270 99.003 C 138.708 99.414,138.655 165.539,139.216 166.101 C 139.426 166.310,139.724 166.784,139.878 167.154 C 140.033 167.524,140.445 167.996,140.795 168.203 C 141.145 168.411,141.550 168.686,141.696 168.815 C 142.353 169.396,145.590 169.979,145.847 169.563 C 146.030 169.268,253.545 169.300,254.362 169.596 C 255.089 169.858,257.589 169.367,258.333 168.815 C 258.569 168.640,259.010 168.370,259.314 168.216 C 259.619 168.062,260.004 167.632,260.171 167.261 C 260.337 166.890,260.650 166.385,260.866 166.139 C 261.467 165.453,261.576 100.546,260.977 99.467 C 260.774 99.100,260.508 98.562,260.386 98.272 C 260.264 97.981,260.099 97.744,260.019 97.744 C 259.940 97.744,259.612 97.506,259.291 97.216 C 258.971 96.925,258.475 96.493,258.191 96.255 L 257.673 95.823 202.222 95.823 C 171.723 95.823,146.001 95.783,145.061 95.734 C 144.120 95.685,143.065 95.718,142.716 95.808 M257.164 96.192 C 257.700 96.217,259.886 98.101,260.252 98.854 C 260.440 99.240,260.678 99.641,260.782 99.745 C 260.903 99.866,260.969 111.520,260.966 132.588 L 260.963 165.242 260.397 166.107 C 260.086 166.582,259.694 167.167,259.525 167.406 C 259.356 167.646,258.618 168.144,257.885 168.513 L 256.551 169.185 200.015 169.185 L 143.480 169.185 142.141 168.513 C 140.922 167.901,140.723 167.714,139.916 166.420 L 139.030 164.998 139.030 132.605 L 139.030 100.212 139.542 99.314 C 140.329 97.932,141.632 96.695,142.816 96.207 C 142.992 96.135,255.595 96.120,257.164 96.192 " stroke="none" fill="#c4c4c4" fill-rule="evenodd"></path></g></svg>