<svg id="svg" version="1.1" xmlns="http://www.w3.org/2000/svg" xmlns:xlink="http://www.w3.org/1999/xlink" width="400" height="732.8358208955224" viewBox="0, 0, 400,732.8358208955224"><g id="svgg"><path id="path0" d="M109.400 11.488 C 125.578 11.730,305.927 11.780,302.600 11.542 C 300.620 11.401,254.720 11.306,200.600 11.333 C 146.480 11.359,105.440 11.429,109.400 11.488 M97.511 11.893 C 98.451 11.978,99.891 11.977,100.711 11.891 C 101.530 11.805,100.760 11.736,99.000 11.737 C 97.240 11.739,96.570 11.809,97.511 11.893 M91.800 12.400 L 90.200 12.686 91.600 12.703 C 92.370 12.713,93.450 12.576,94.000 12.400 C 95.285 11.988,94.099 11.988,91.800 12.400 M309.700 12.676 C 310.085 12.776,310.715 12.776,311.100 12.676 C 311.485 12.575,311.170 12.493,310.400 12.493 C 309.630 12.493,309.315 12.575,309.700 12.676 M85.200 13.606 C 84.778 13.882,85.015 13.923,86.000 13.742 C 87.725 13.425,88.051 13.198,86.767 13.206 C 86.235 13.209,85.530 13.389,85.200 13.606 M314.433 13.343 C 314.525 13.421,315.230 13.601,316.000 13.742 C 316.985 13.923,317.222 13.882,316.800 13.606 C 316.258 13.250,314.037 13.003,314.433 13.343 M318.033 14.144 C 318.125 14.223,318.740 14.408,319.400 14.556 C 320.276 14.752,320.438 14.715,320.000 14.418 C 319.460 14.053,317.632 13.798,318.033 14.144 M79.000 15.200 C 78.496 15.417,78.422 15.544,78.800 15.544 C 79.130 15.544,79.760 15.389,80.200 15.200 C 80.704 14.983,80.778 14.856,80.400 14.856 C 80.070 14.856,79.440 15.011,79.000 15.200 M69.000 18.778 C 68.120 19.195,67.580 19.536,67.800 19.538 C 68.346 19.542,71.502 18.064,71.000 18.040 C 70.780 18.030,69.880 18.362,69.000 18.778 M338.833 21.732 C 339.430 22.206,344.400 24.801,344.400 24.639 C 344.400 24.388,339.441 21.600,338.995 21.600 C 338.814 21.600,338.742 21.660,338.833 21.732 M57.400 24.652 C 54.414 26.421,53.466 27.309,56.231 25.747 C 58.432 24.504,60.320 23.246,60.000 23.236 C 59.890 23.233,58.720 23.870,57.400 24.652 M345.400 25.407 C 345.840 25.766,346.560 26.235,347.000 26.451 L 347.800 26.844 347.000 26.193 C 346.560 25.834,345.840 25.365,345.400 25.149 L 344.600 24.756 345.400 25.407 M49.841 29.627 C 48.983 30.272,48.450 30.800,48.656 30.800 C 48.862 30.800,49.653 30.267,50.415 29.616 C 52.187 28.102,51.861 28.108,49.841 29.627 M351.600 29.370 C 351.600 29.460,352.320 30.103,353.200 30.800 C 354.080 31.497,354.793 31.917,354.785 31.734 C 354.770 31.405,351.600 29.053,351.600 29.370 M43.394 34.857 C 41.670 36.428,40.444 37.643,40.669 37.557 C 41.184 37.359,47.047 32.000,46.748 32.000 C 46.627 32.000,45.117 33.286,43.394 34.857 M358.373 34.895 C 359.128 35.716,359.833 36.301,359.939 36.194 C 360.046 36.087,360.057 35.955,359.965 35.900 C 359.872 35.845,359.167 35.260,358.398 34.601 L 357.000 33.402 358.373 34.895 M363.000 39.200 C 364.528 40.740,365.869 42.000,365.979 42.000 C 366.089 42.000,364.928 40.740,363.400 39.200 C 361.872 37.660,360.531 36.400,360.421 36.400 C 360.311 36.400,361.472 37.660,363.000 39.200 M34.585 43.700 L 32.600 45.800 34.700 43.815 C 35.855 42.723,36.800 41.778,36.800 41.715 C 36.800 41.417,36.429 41.749,34.585 43.700 M366.400 42.652 C 366.400 42.864,367.165 43.749,368.100 44.619 L 369.800 46.200 368.200 44.406 C 367.320 43.420,366.555 42.535,366.500 42.439 C 366.445 42.344,366.400 42.440,366.400 42.652 M31.944 46.700 C 30.793 48.089,30.306 48.800,30.504 48.800 C 30.614 48.800,31.186 48.170,31.773 47.400 C 32.863 45.971,32.995 45.432,31.944 46.700 M370.970 48.299 C 371.797 49.454,372.671 50.520,372.912 50.669 C 373.481 51.021,370.822 47.315,370.052 46.682 C 369.729 46.417,370.142 47.145,370.970 48.299 M374.600 53.204 C 376.466 55.983,376.783 56.268,375.584 54.091 C 375.066 53.150,374.301 52.072,373.883 51.695 C 373.466 51.317,373.789 51.996,374.600 53.204 M26.708 53.700 C 25.833 55.049,25.048 56.656,25.487 56.200 C 26.048 55.617,27.698 52.800,27.479 52.800 C 27.376 52.800,27.029 53.205,26.708 53.700 M23.187 59.421 C 22.704 60.203,22.377 60.911,22.461 60.994 C 22.545 61.078,23.020 60.438,23.518 59.573 C 24.647 57.613,24.380 57.490,23.187 59.421 M378.986 60.300 C 379.335 61.015,379.706 61.600,379.810 61.600 C 380.208 61.600,379.952 60.963,379.167 60.000 L 378.352 59.000 378.986 60.300 M381.200 64.553 C 381.200 64.982,382.390 67.200,382.621 67.200 C 382.731 67.200,382.523 66.615,382.159 65.900 C 381.417 64.440,381.200 64.136,381.200 64.553 M15.049 78.215 C 14.912 78.573,14.815 79.166,14.834 79.533 C 14.853 79.900,15.027 79.669,15.221 79.020 C 15.598 77.758,15.465 77.133,15.049 78.215 M386.868 78.800 C 386.888 79.839,387.518 81.546,387.532 80.600 C 387.538 80.160,387.389 79.440,387.200 79.000 C 386.989 78.510,386.861 78.432,386.868 78.800 M388.056 83.600 C 388.056 83.930,388.211 84.560,388.400 85.000 C 388.617 85.504,388.744 85.578,388.744 85.200 C 388.744 84.870,388.589 84.240,388.400 83.800 C 388.183 83.296,388.056 83.222,388.056 83.600 M13.449 84.215 C 13.312 84.573,13.215 85.166,13.234 85.533 C 13.253 85.900,13.427 85.669,13.621 85.020 C 13.998 83.758,13.865 83.133,13.449 84.215 M388.880 87.000 C 388.880 87.440,389.024 88.250,389.200 88.800 C 389.454 89.592,389.520 89.633,389.520 89.000 C 389.520 88.560,389.376 87.750,389.200 87.200 C 388.946 86.408,388.880 86.367,388.880 87.000 M84.400 88.435 C 78.504 88.890,76.887 89.241,69.600 91.645 C 61.631 94.273,52.106 100.291,46.800 106.050 C 43.533 109.596,36.800 119.133,36.800 120.215 C 36.800 120.304,36.324 121.417,35.742 122.688 C 33.767 127.005,32.896 130.025,31.228 138.331 C 30.670 141.107,30.619 615.970,31.176 618.494 C 32.559 624.761,33.032 626.593,34.092 629.798 C 37.378 639.732,45.627 651.299,53.000 656.310 C 53.880 656.908,54.690 657.503,54.800 657.631 C 55.762 658.754,62.492 662.499,67.000 664.419 C 69.766 665.597,75.031 667.040,79.400 667.816 C 84.244 668.677,317.831 668.669,322.600 667.807 C 326.792 667.050,331.303 665.816,335.000 664.416 C 343.364 661.249,353.678 653.533,358.817 646.600 C 359.795 645.280,360.690 644.110,360.806 644.000 C 363.472 641.474,368.054 631.037,369.939 623.200 C 371.629 616.175,371.600 620.464,371.596 378.332 C 371.592 122.279,371.773 141.575,369.280 130.600 C 367.554 122.998,361.272 112.252,354.605 105.498 C 351.463 102.314,345.034 97.200,344.175 97.200 C 344.036 97.200,343.387 96.818,342.731 96.351 C 340.286 94.610,332.446 91.248,328.800 90.377 C 328.030 90.193,326.320 89.776,325.000 89.450 C 323.680 89.124,320.070 88.665,316.977 88.429 C 310.277 87.918,91.026 87.924,84.400 88.435 M12.460 89.250 C 12.427 89.828,12.311 90.908,12.201 91.650 L 12.003 93.000 12.424 91.657 C 12.655 90.919,12.772 89.839,12.682 89.257 L 12.520 88.200 12.460 89.250 M389.668 92.200 C 389.674 92.640,389.824 93.450,390.000 94.000 L 390.320 95.000 390.332 94.000 C 390.338 93.450,390.189 92.640,390.000 92.200 L 389.656 91.400 389.668 92.200 M11.459 96.288 C 11.321 97.119,11.231 98.790,11.258 100.000 C 11.300 101.824,11.367 101.590,11.651 98.630 C 12.006 94.942,11.898 93.630,11.459 96.288 M390.701 338.800 C 390.756 471.350,390.847 591.500,390.903 605.800 C 390.960 620.100,391.029 512.820,391.056 367.400 C 391.084 221.980,390.993 101.830,390.853 100.400 C 390.714 98.970,390.645 206.250,390.701 338.800 M342.906 122.187 C 347.777 123.220,353.217 126.314,355.731 129.483 C 356.133 129.990,356.731 130.674,357.062 131.004 C 358.827 132.770,360.751 137.683,361.592 142.573 C 362.179 145.990,362.155 385.414,361.567 389.323 C 359.851 400.729,352.071 408.417,340.671 409.973 C 336.331 410.565,66.152 410.573,61.729 409.981 C 51.120 408.561,43.484 402.016,41.003 392.216 C 39.972 388.140,40.102 143.282,41.138 139.336 C 43.489 130.380,50.916 123.529,59.917 122.011 C 63.695 121.375,339.881 121.546,342.906 122.187 M349.067 127.867 C 348.589 128.344,348.784 128.629,349.630 128.692 C 350.311 128.744,350.374 128.651,349.981 128.177 C 349.430 127.513,349.422 127.511,349.067 127.867 M49.244 130.480 C 48.094 131.656,47.695 132.400,48.213 132.400 C 48.707 132.400,51.157 129.621,50.838 129.423 C 50.645 129.304,49.928 129.780,49.244 130.480 M354.800 133.976 C 354.800 134.429,354.980 134.800,355.200 134.800 C 355.420 134.800,355.600 134.541,355.600 134.224 C 355.600 133.907,355.420 133.536,355.200 133.400 C 354.980 133.264,354.800 133.523,354.800 133.976 M44.278 138.256 C 43.958 138.575,44.319 139.200,44.824 139.200 C 45.031 139.200,45.200 138.930,45.200 138.600 C 45.200 137.981,44.728 137.805,44.278 138.256 M358.000 142.000 C 358.000 142.440,358.180 142.800,358.400 142.800 C 358.620 142.800,358.800 142.440,358.800 142.000 C 358.800 141.560,358.620 141.200,358.400 141.200 C 358.180 141.200,358.000 141.560,358.000 142.000 M358.000 389.800 C 358.000 390.130,358.180 390.400,358.400 390.400 C 358.620 390.400,358.800 390.130,358.800 389.800 C 358.800 389.470,358.620 389.200,358.400 389.200 C 358.180 389.200,358.000 389.470,358.000 389.800 M44.400 393.400 C 44.400 393.730,44.580 394.000,44.800 394.000 C 45.020 394.000,45.200 393.730,45.200 393.400 C 45.200 393.070,45.020 392.800,44.800 392.800 C 44.580 392.800,44.400 393.070,44.400 393.400 M354.135 398.675 C 353.993 399.074,353.804 399.535,353.715 399.700 C 353.626 399.865,353.700 400.000,353.880 400.000 C 354.447 400.000,355.221 398.460,354.789 398.193 C 354.572 398.059,354.278 398.276,354.135 398.675 M55.277 405.230 C 55.356 405.466,55.591 405.660,55.800 405.660 C 56.009 405.660,56.244 405.466,56.323 405.230 C 56.402 404.994,56.167 404.800,55.800 404.800 C 55.433 404.800,55.198 404.994,55.277 405.230 M61.200 406.800 C 61.200 407.020,61.470 407.200,61.800 407.200 C 62.130 407.200,62.400 407.020,62.400 406.800 C 62.400 406.580,62.130 406.400,61.800 406.400 C 61.470 406.400,61.200 406.580,61.200 406.800 M339.600 406.800 C 339.600 407.020,339.960 407.200,340.400 407.200 C 340.840 407.200,341.200 407.020,341.200 406.800 C 341.200 406.580,340.840 406.400,340.400 406.400 C 339.960 406.400,339.600 406.580,339.600 406.800 M390.524 634.200 C 390.526 635.520,390.601 636.012,390.690 635.293 C 390.779 634.574,390.777 633.494,390.686 632.893 C 390.595 632.292,390.522 632.880,390.524 634.200 M11.247 634.833 C 11.273 636.245,11.434 637.940,11.605 638.600 C 11.779 639.272,11.821 638.216,11.702 636.200 C 11.452 631.972,11.179 631.153,11.247 634.833 M389.822 641.022 C 389.672 641.825,389.628 642.562,389.726 642.660 C 389.824 642.757,390.027 642.181,390.178 641.378 C 390.328 640.575,390.372 639.838,390.274 639.740 C 390.176 639.643,389.973 640.219,389.822 641.022 M12.277 643.400 C 12.400 644.720,12.568 645.875,12.650 645.967 C 12.918 646.264,12.715 643.434,12.380 642.200 C 12.165 641.411,12.130 641.822,12.277 643.400 M389.022 646.222 C 388.872 647.025,388.828 647.762,388.926 647.860 C 389.024 647.957,389.227 647.381,389.378 646.578 C 389.528 645.775,389.572 645.038,389.474 644.940 C 389.376 644.843,389.173 645.419,389.022 646.222 M12.880 647.000 C 12.880 647.440,13.024 648.250,13.200 648.800 C 13.454 649.592,13.520 649.633,13.520 649.000 C 13.520 648.560,13.376 647.750,13.200 647.200 C 12.946 646.408,12.880 646.367,12.880 647.000 M388.229 649.829 C 388.081 650.415,388.038 650.972,388.132 651.066 C 388.227 651.160,388.424 650.758,388.571 650.171 C 388.719 649.585,388.762 649.028,388.668 648.934 C 388.573 648.840,388.376 649.242,388.229 649.829 M14.068 651.800 C 14.062 652.240,14.211 652.960,14.400 653.400 C 14.838 654.419,14.838 653.368,14.400 652.000 C 14.143 651.196,14.077 651.157,14.068 651.800 M387.246 653.667 C 387.221 654.034,387.096 654.664,386.970 655.067 C 386.752 655.762,386.763 655.763,387.197 655.087 C 387.448 654.696,387.573 654.066,387.473 653.687 C 387.311 653.068,387.288 653.066,387.246 653.667 M14.806 655.033 C 14.809 655.455,14.995 656.070,15.218 656.400 C 15.515 656.838,15.552 656.676,15.356 655.800 C 15.027 654.329,14.798 654.010,14.806 655.033 M381.682 668.621 C 380.757 670.486,380.009 672.144,380.020 672.306 C 380.031 672.468,380.853 671.006,381.845 669.059 C 382.838 667.111,383.586 665.452,383.507 665.374 C 383.428 665.295,382.607 666.756,381.682 668.621 M378.986 674.100 L 378.352 675.400 379.167 674.400 C 379.952 673.437,380.208 672.800,379.810 672.800 C 379.706 672.800,379.335 673.385,378.986 674.100 M23.549 675.400 C 23.765 675.840,24.234 676.560,24.593 677.000 L 25.244 677.800 24.851 677.000 C 24.635 676.560,24.166 675.840,23.807 675.400 L 23.156 674.600 23.549 675.400 M26.017 679.510 C 26.535 680.451,27.470 681.801,28.094 682.510 C 28.744 683.248,28.435 682.602,27.371 681.000 C 25.142 677.641,24.750 677.210,26.017 679.510 M368.489 689.173 C 367.340 690.478,366.400 691.644,366.400 691.764 C 366.400 691.963,368.282 689.931,370.165 687.700 C 371.813 685.746,370.453 686.942,368.489 689.173 M35.015 691.212 C 36.327 692.649,37.482 693.767,37.581 693.698 C 37.681 693.628,36.608 692.452,35.197 691.085 L 32.631 688.600 35.015 691.212 M362.989 695.300 L 360.200 698.200 363.100 695.411 C 365.794 692.820,366.183 692.400,365.889 692.400 C 365.828 692.400,364.523 693.705,362.989 695.300 M38.888 695.413 C 39.486 696.043,40.047 696.477,40.135 696.379 C 40.223 696.280,39.733 695.765,39.047 695.234 L 37.800 694.269 38.888 695.413 M42.488 698.735 C 43.645 699.839,44.652 700.681,44.726 700.607 C 44.883 700.450,41.286 697.065,40.748 696.864 C 40.548 696.789,41.331 697.631,42.488 698.735 M45.344 701.109 C 45.660 701.621,48.000 703.353,48.000 703.075 C 48.000 702.976,47.339 702.391,46.532 701.775 C 45.724 701.159,45.189 700.859,45.344 701.109 M48.897 703.833 C 49.027 704.044,49.991 704.832,51.037 705.584 C 52.084 706.335,52.833 706.778,52.703 706.567 C 52.573 706.356,51.609 705.568,50.563 704.816 C 49.516 704.065,48.767 703.622,48.897 703.833 M350.667 705.393 C 348.245 707.199,347.367 707.972,348.400 707.390 C 349.445 706.801,353.200 703.983,353.200 703.787 C 353.200 703.506,353.178 703.520,350.667 705.393 M53.899 707.453 C 54.951 708.326,58.800 710.532,58.800 710.261 C 58.800 710.159,57.945 709.579,56.900 708.972 C 55.855 708.365,54.550 707.606,54.000 707.286 L 53.000 706.705 53.899 707.453 M345.896 708.550 C 343.975 709.731,343.438 710.289,345.000 709.481 C 346.254 708.833,347.945 707.626,347.600 707.625 C 347.490 707.625,346.723 708.041,345.896 708.550 M66.400 714.400 C 67.610 715.039,68.780 715.562,69.000 715.562 C 69.220 715.562,68.410 715.039,67.200 714.400 C 65.990 713.761,64.820 713.238,64.600 713.238 C 64.380 713.238,65.190 713.761,66.400 714.400 M79.200 719.182 C 79.530 719.405,80.145 719.591,80.567 719.594 C 81.590 719.602,81.271 719.373,79.800 719.044 C 78.924 718.848,78.762 718.885,79.200 719.182 M321.600 719.200 C 320.776 719.464,320.741 719.526,321.400 719.554 C 321.840 719.573,322.470 719.413,322.800 719.200 C 323.501 718.747,323.014 718.747,321.600 719.200 M82.200 720.000 C 82.640 720.189,83.360 720.338,83.800 720.332 C 84.443 720.323,84.404 720.257,83.600 720.000 C 82.232 719.562,81.181 719.562,82.200 720.000 M313.000 721.200 C 311.930 721.472,311.908 721.505,312.800 721.505 C 313.350 721.505,314.340 721.368,315.000 721.200 C 316.070 720.928,316.092 720.895,315.200 720.895 C 314.650 720.895,313.660 721.032,313.000 721.200 M92.400 722.000 C 92.950 722.176,93.850 722.320,94.400 722.320 L 95.400 722.320 94.400 722.000 C 93.850 721.824,92.950 721.680,92.400 721.680 L 91.400 721.680 92.400 722.000 M307.600 722.000 L 306.600 722.320 307.600 722.320 C 308.150 722.320,309.050 722.176,309.600 722.000 L 310.600 721.680 309.600 721.680 C 309.050 721.680,308.150 721.824,307.600 722.000 M100.400 722.853 C 103.797 723.184,298.203 723.184,301.600 722.853 C 303.030 722.714,257.760 722.600,201.000 722.600 C 144.240 722.600,98.970 722.714,100.400 722.853 " stroke="none" fill="#3c3c73" fill-rule="evenodd"></path><path id="path1" d="M95.400 12.641 C 90.212 13.286,87.269 13.774,84.800 14.401 C 83.810 14.652,82.413 14.955,81.696 15.073 C 80.979 15.192,80.294 15.449,80.173 15.644 C 80.052 15.840,79.459 16.000,78.856 16.000 C 78.253 16.000,77.589 16.143,77.380 16.318 C 77.171 16.493,75.920 16.974,74.600 17.389 C 73.280 17.803,72.029 18.290,71.820 18.471 C 71.611 18.652,71.161 18.800,70.820 18.800 C 70.010 18.800,59.886 23.799,57.728 25.265 C 56.808 25.889,55.931 26.400,55.779 26.400 C 55.392 26.400,50.230 30.087,50.067 30.480 C 49.993 30.656,49.693 30.800,49.400 30.800 C 49.107 30.800,48.807 30.935,48.733 31.100 C 48.660 31.265,47.340 32.409,45.800 33.642 C 36.769 40.872,26.892 53.203,21.919 63.456 C 20.974 65.405,20.065 67.060,19.900 67.133 C 19.735 67.207,19.600 67.612,19.600 68.033 C 19.600 68.455,19.420 68.800,19.200 68.800 C 18.980 68.800,18.800 69.214,18.800 69.720 C 18.800 70.226,18.652 70.811,18.471 71.020 C 18.290 71.229,17.803 72.480,17.389 73.800 C 16.974 75.120,16.493 76.371,16.318 76.580 C 16.143 76.789,16.000 77.363,16.000 77.856 C 16.000 78.349,15.840 78.852,15.644 78.973 C 15.449 79.094,15.191 79.779,15.073 80.496 C 14.715 82.657,14.358 84.156,14.001 85.000 C 13.814 85.440,13.543 86.610,13.398 87.600 C 13.253 88.590,12.976 90.390,12.783 91.600 C 11.625 98.854,11.575 111.605,11.700 372.400 C 11.802 587.227,11.925 638.334,12.343 640.600 C 12.628 642.140,13.040 644.390,13.260 645.600 C 13.887 649.054,15.574 655.579,16.413 657.800 C 16.579 658.240,17.018 659.500,17.389 660.600 C 21.194 671.903,29.309 684.618,38.919 694.336 C 43.357 698.824,53.676 707.200,54.768 707.200 C 55.006 707.200,55.200 707.380,55.200 707.600 C 55.200 707.820,55.397 708.000,55.638 708.000 C 55.879 708.000,56.640 708.401,57.329 708.892 C 58.951 710.047,69.999 715.600,70.674 715.600 C 71.216 715.600,76.098 717.392,77.295 718.030 C 77.677 718.233,78.431 718.400,78.971 718.400 C 79.511 718.400,80.052 718.560,80.173 718.756 C 80.294 718.951,80.979 719.208,81.696 719.327 C 82.413 719.445,83.810 719.747,84.800 719.997 C 85.790 720.246,87.590 720.605,88.800 720.793 C 90.010 720.981,92.440 721.374,94.200 721.667 C 99.918 722.619,303.043 722.436,309.400 721.473 C 314.041 720.770,316.041 720.358,318.628 719.573 C 319.304 719.368,320.238 719.200,320.705 719.200 C 321.171 719.200,321.664 719.020,321.800 718.800 C 321.936 718.580,322.489 718.400,323.029 718.400 C 323.569 718.400,324.323 718.225,324.705 718.011 C 325.087 717.797,327.016 717.067,328.991 716.390 C 333.031 715.004,338.817 712.307,343.000 709.858 C 344.540 708.957,346.293 707.945,346.896 707.610 C 353.221 704.092,364.505 693.869,370.519 686.206 C 375.151 680.304,380.404 671.355,382.965 665.000 C 383.586 663.460,384.241 661.840,384.420 661.400 C 384.600 660.960,384.976 659.880,385.255 659.000 C 385.535 658.120,385.907 657.229,386.082 657.020 C 386.257 656.811,386.400 656.147,386.400 655.544 C 386.400 654.941,386.560 654.348,386.756 654.227 C 386.951 654.106,387.208 653.421,387.327 652.704 C 387.445 651.987,387.736 650.590,387.973 649.600 C 388.210 648.610,388.808 645.550,389.302 642.800 L 390.200 637.800 390.200 367.400 C 390.200 108.816,390.169 96.808,389.479 92.600 C 388.704 87.864,388.121 84.907,387.589 83.000 C 387.405 82.340,387.041 80.990,386.782 80.000 C 386.522 79.010,386.167 77.840,385.995 77.400 C 385.822 76.960,385.464 75.970,385.200 75.200 C 384.936 74.430,384.571 73.440,384.391 73.000 C 384.210 72.560,383.740 71.300,383.346 70.200 C 381.639 65.433,373.421 51.214,370.707 48.333 C 370.428 48.037,369.305 46.716,368.212 45.397 C 365.873 42.577,359.769 36.486,356.968 34.178 C 353.873 31.627,348.705 27.821,347.185 26.973 C 346.423 26.548,345.740 26.065,345.667 25.900 C 345.593 25.735,345.356 25.600,345.139 25.600 C 344.922 25.600,343.959 25.060,343.000 24.400 C 342.041 23.740,341.156 23.200,341.034 23.200 C 340.911 23.200,338.784 22.233,336.306 21.051 C 333.828 19.868,331.170 18.680,330.400 18.410 C 329.630 18.140,328.640 17.773,328.200 17.594 C 327.760 17.414,326.410 16.960,325.200 16.584 C 323.990 16.207,322.587 15.742,322.081 15.550 C 321.576 15.357,320.731 15.200,320.205 15.200 C 319.678 15.200,319.136 15.020,319.000 14.800 C 318.864 14.580,318.169 14.400,317.456 14.400 C 316.743 14.400,315.989 14.237,315.780 14.039 C 315.571 13.840,314.590 13.588,313.600 13.479 C 312.610 13.370,309.370 12.995,306.400 12.645 C 298.855 11.757,102.545 11.753,95.400 12.641 M166.660 30.915 C 168.145 33.789,167.248 38.738,164.558 42.501 C 162.849 44.892,162.789 44.739,165.500 44.880 C 167.626 44.991,167.809 45.077,167.918 46.013 C 168.140 47.913,166.568 48.824,162.542 49.130 L 159.000 49.400 159.041 52.680 C 159.149 61.292,166.682 60.402,168.184 51.600 C 169.089 46.293,169.762 45.036,171.784 44.871 C 174.502 44.649,174.570 45.103,173.059 53.319 C 172.442 56.672,172.538 57.814,173.468 58.171 C 175.140 58.812,177.039 56.357,177.394 53.095 C 178.071 46.875,179.142 44.800,181.675 44.800 C 183.649 44.800,183.828 45.285,183.076 48.582 C 182.393 51.576,182.526 51.604,184.393 48.868 C 188.031 43.537,192.800 43.243,192.800 48.349 L 192.800 50.937 194.075 49.012 C 196.563 45.257,201.156 43.540,202.643 45.809 C 203.263 46.756,203.250 47.101,202.422 51.374 C 201.334 56.993,201.404 58.240,202.800 58.099 C 204.684 57.909,206.241 55.675,206.543 52.728 C 207.145 46.849,208.407 44.655,211.061 44.874 C 212.769 45.014,212.819 45.204,212.199 49.200 L 211.919 51.000 213.361 48.913 C 217.251 43.284,222.446 43.168,221.872 48.723 C 221.748 49.928,221.781 50.753,221.945 50.557 C 222.110 50.361,222.748 49.513,223.363 48.673 C 225.730 45.443,229.934 43.694,231.520 45.280 C 232.160 45.920,232.126 48.588,231.435 52.117 C 230.515 56.815,230.489 57.168,231.007 57.877 C 232.047 59.299,234.767 56.686,234.787 54.246 C 234.840 47.812,241.408 42.818,246.413 45.407 C 251.222 47.893,247.322 56.800,241.425 56.800 C 240.411 56.800,240.710 57.585,241.900 58.045 C 245.168 59.307,250.800 56.563,250.800 53.709 C 250.800 48.703,252.740 44.800,255.227 44.800 C 257.151 44.800,257.359 45.391,256.593 48.693 C 255.818 52.033,255.929 52.090,257.827 49.335 C 261.707 43.702,267.504 43.052,266.608 48.351 C 266.383 49.686,266.459 49.965,267.107 50.170 C 268.498 50.612,268.974 52.104,268.200 53.600 C 265.830 58.183,261.200 57.750,261.200 52.946 C 261.200 49.253,258.759 52.388,256.776 58.628 C 255.384 63.008,253.427 64.157,251.590 61.672 L 250.756 60.544 248.739 61.542 C 245.098 63.344,240.934 63.215,237.946 61.208 C 236.366 60.147,236.124 60.091,235.400 60.617 C 228.705 65.481,224.615 62.702,226.103 54.300 C 227.068 48.852,224.344 51.518,222.162 58.156 C 220.927 61.916,220.287 62.800,218.800 62.800 C 216.420 62.800,215.713 60.563,216.336 55.000 C 216.558 53.020,216.589 51.245,216.405 51.055 C 215.692 50.320,212.000 57.778,212.000 59.955 C 212.000 62.419,208.718 63.694,207.319 61.774 L 206.571 60.747 204.528 61.774 C 197.881 65.112,195.217 61.461,197.470 52.100 C 197.832 50.595,196.529 51.023,195.357 52.793 C 194.777 53.670,193.773 55.964,193.125 57.891 C 191.774 61.911,191.126 62.800,189.547 62.800 C 187.522 62.800,187.086 61.507,187.254 56.004 C 187.344 53.031,187.249 51.169,187.002 51.104 C 186.400 50.947,184.532 54.601,183.379 58.194 C 181.881 62.859,179.802 64.302,178.169 61.809 L 177.520 60.819 175.746 61.809 C 173.223 63.218,171.209 63.135,169.402 61.548 C 168.106 60.410,167.915 60.352,167.288 60.909 C 164.079 63.760,158.596 63.365,155.721 60.075 L 154.441 58.611 153.321 59.660 C 151.859 61.028,149.900 62.000,148.604 62.000 C 148.034 62.000,146.862 62.360,146.000 62.800 C 142.748 64.459,138.800 63.281,138.800 60.652 C 138.800 58.990,140.080 58.000,142.229 58.000 C 143.911 58.000,143.934 56.955,142.304 54.666 L 141.462 53.483 140.831 54.344 C 137.228 59.261,135.745 60.800,134.610 60.800 C 134.244 60.800,133.200 59.498,133.200 59.042 C 133.200 58.766,134.202 57.204,135.426 55.570 C 137.386 52.954,140.800 46.630,140.800 45.615 C 140.800 44.271,145.375 43.349,145.854 44.596 C 145.980 44.925,145.766 46.075,145.378 47.153 L 144.673 49.113 145.698 50.857 C 146.262 51.815,147.107 53.040,147.575 53.577 C 148.044 54.114,148.622 55.329,148.861 56.277 C 149.408 58.450,149.534 58.436,151.763 55.957 C 153.932 53.544,154.582 49.200,152.774 49.200 C 149.422 49.200,149.418 45.058,152.770 44.733 C 154.105 44.603,154.152 44.536,154.828 41.800 C 157.462 31.134,163.771 25.330,166.660 30.915 M161.833 34.100 C 161.323 34.883,160.197 38.629,159.428 42.100 C 158.848 44.721,161.122 42.475,162.579 38.989 C 163.839 35.973,163.227 31.959,161.833 34.100 M175.173 36.186 C 177.186 37.227,177.120 39.974,175.051 41.330 C 171.435 43.699,167.726 39.671,170.842 36.760 C 172.221 35.472,173.472 35.306,175.173 36.186 M241.489 49.700 C 240.706 50.290,239.481 53.084,239.788 53.580 C 240.326 54.452,243.762 52.579,244.209 51.170 C 244.711 49.591,242.920 48.622,241.489 49.700 M322.600 88.345 C 323.700 88.618,325.500 89.040,326.600 89.283 C 328.964 89.805,334.100 91.422,335.800 92.180 C 336.460 92.475,337.871 93.107,338.936 93.584 C 350.463 98.756,363.180 112.163,367.409 123.600 C 367.775 124.590,368.219 125.760,368.397 126.200 C 369.696 129.424,370.996 134.997,371.569 139.800 C 371.870 142.325,371.996 213.601,371.991 378.600 C 371.984 626.213,372.040 617.691,370.379 623.800 C 370.140 624.680,369.853 625.850,369.742 626.400 C 369.631 626.950,369.385 627.760,369.196 628.200 C 369.007 628.640,368.456 630.170,367.972 631.600 C 365.327 639.414,359.681 647.531,351.993 654.575 C 349.818 656.568,340.904 662.800,340.229 662.800 C 340.114 662.800,338.891 663.310,337.510 663.934 C 334.022 665.510,328.063 667.315,322.869 668.368 C 319.953 668.959,81.973 668.979,79.277 668.389 C 78.245 668.162,76.500 667.788,75.400 667.556 C 66.084 665.596,55.407 659.869,48.477 653.114 C 41.443 646.258,36.268 638.276,33.622 630.200 C 33.118 628.660,32.546 626.987,32.352 626.481 C 32.159 625.976,32.000 625.157,32.000 624.661 C 32.000 624.166,31.838 623.589,31.641 623.380 C 31.251 622.967,31.012 621.441,30.422 615.600 C 29.918 610.607,29.917 145.905,30.421 141.200 C 30.758 138.054,30.932 136.987,31.920 132.000 C 34.083 121.080,43.529 106.812,53.359 99.614 C 63.084 92.495,74.308 88.351,85.200 87.860 C 94.565 87.438,320.805 87.901,322.600 88.345 " stroke="none" fill="#b3b3b3" fill-rule="evenodd"></path><path id="path2" d="M96.800 9.600 C 96.800 9.826,95.667 10.000,94.200 10.000 C 92.733 10.000,91.600 10.174,91.600 10.400 C 91.600 10.626,90.467 10.800,89.000 10.800 C 87.533 10.800,86.400 10.974,86.400 11.200 C 86.400 11.420,85.680 11.600,84.800 11.600 C 83.920 11.600,83.200 11.780,83.200 12.000 C 83.200 12.220,82.570 12.400,81.800 12.400 C 81.030 12.400,80.400 12.580,80.400 12.800 C 80.400 13.020,79.680 13.200,78.800 13.200 C 77.920 13.200,77.200 13.360,77.200 13.555 C 77.200 13.750,76.390 14.031,75.400 14.179 C 74.410 14.328,73.600 14.618,73.600 14.825 C 73.600 15.031,73.060 15.200,72.400 15.200 C 71.740 15.200,71.200 15.380,71.200 15.600 C 71.200 15.820,70.750 16.000,70.200 16.000 C 69.650 16.000,69.200 16.180,69.200 16.400 C 69.200 16.620,68.840 16.800,68.400 16.800 C 67.960 16.800,67.600 16.980,67.600 17.200 C 67.600 17.420,67.240 17.600,66.800 17.600 C 66.360 17.600,66.000 17.780,66.000 18.000 C 66.000 18.220,65.550 18.400,65.000 18.400 C 64.450 18.400,64.000 18.580,64.000 18.800 C 64.000 19.020,63.703 19.200,63.340 19.200 C 62.447 19.200,58.400 21.205,58.400 21.647 C 58.400 21.841,58.130 22.000,57.800 22.000 C 57.470 22.000,57.200 22.180,57.200 22.400 C 57.200 22.620,56.880 22.800,56.488 22.800 C 56.097 22.800,55.517 23.160,55.200 23.600 C 54.883 24.040,54.303 24.400,53.912 24.400 C 53.520 24.400,53.200 24.580,53.200 24.800 C 53.200 25.020,52.958 25.200,52.662 25.200 C 52.366 25.200,51.601 25.650,50.962 26.200 C 50.323 26.749,49.615 27.199,49.388 27.200 C 49.162 27.200,48.717 27.560,48.400 28.000 C 48.083 28.440,47.675 28.800,47.494 28.800 C 47.312 28.800,46.714 29.250,46.164 29.800 C 45.614 30.350,44.967 30.800,44.726 30.800 C 44.485 30.800,43.163 31.925,41.788 33.300 C 40.413 34.675,38.683 36.363,37.944 37.052 C 37.205 37.740,35.839 39.090,34.910 40.052 C 33.980 41.013,32.675 42.321,32.010 42.959 C 31.344 43.596,30.800 44.353,30.800 44.640 C 30.800 44.928,30.350 45.614,29.800 46.164 C 29.250 46.714,28.800 47.280,28.800 47.421 C 28.800 47.563,28.260 48.183,27.600 48.800 C 26.940 49.417,26.400 50.209,26.400 50.560 C 26.400 50.912,26.232 51.200,26.027 51.200 C 25.822 51.200,25.526 51.605,25.370 52.100 C 25.213 52.595,24.751 53.291,24.343 53.647 C 23.934 54.003,23.600 54.505,23.600 54.764 C 23.600 55.022,23.240 55.620,22.800 56.092 C 22.360 56.564,22.000 57.187,22.000 57.475 C 22.000 57.764,21.820 58.000,21.600 58.000 C 21.380 58.000,21.200 58.270,21.200 58.600 C 21.200 58.930,21.020 59.200,20.800 59.200 C 20.580 59.200,20.400 59.560,20.400 60.000 C 20.400 60.440,20.236 60.800,20.035 60.800 C 19.834 60.800,19.549 61.520,19.400 62.400 C 19.251 63.280,18.966 64.000,18.765 64.000 C 18.564 64.000,18.400 64.270,18.400 64.600 C 18.400 64.930,18.220 65.200,18.000 65.200 C 17.780 65.200,17.600 65.560,17.600 66.000 C 17.600 66.440,17.420 66.800,17.200 66.800 C 16.980 66.800,16.800 67.160,16.800 67.600 C 16.800 68.040,16.620 68.400,16.400 68.400 C 16.180 68.400,16.000 68.850,16.000 69.400 C 16.000 69.950,15.820 70.400,15.600 70.400 C 15.380 70.400,15.200 70.940,15.200 71.600 C 15.200 72.260,15.031 72.800,14.825 72.800 C 14.618 72.800,14.328 73.610,14.179 74.600 C 14.031 75.590,13.750 76.400,13.555 76.400 C 13.360 76.400,13.200 77.120,13.200 78.000 C 13.200 78.880,13.020 79.600,12.800 79.600 C 12.580 79.600,12.400 80.230,12.400 81.000 C 12.400 81.770,12.220 82.400,12.000 82.400 C 11.780 82.400,11.600 82.940,11.600 83.600 C 11.600 84.260,11.420 84.800,11.200 84.800 C 10.980 84.800,10.800 85.790,10.800 87.000 C 10.800 88.210,10.620 89.200,10.400 89.200 C 10.174 89.200,10.000 90.333,10.000 91.800 C 10.000 93.267,9.826 94.400,9.600 94.400 C 9.045 94.400,9.045 639.857,9.600 640.200 C 9.820 640.336,10.000 641.517,10.000 642.824 C 10.000 644.141,10.178 645.200,10.400 645.200 C 10.620 645.200,10.800 646.190,10.800 647.400 C 10.800 648.610,10.980 649.600,11.200 649.600 C 11.420 649.600,11.600 650.140,11.600 650.800 C 11.600 651.460,11.780 652.000,12.000 652.000 C 12.220 652.000,12.400 652.630,12.400 653.400 C 12.400 654.170,12.580 654.800,12.800 654.800 C 13.020 654.800,13.200 655.520,13.200 656.400 C 13.200 657.280,13.360 658.000,13.555 658.000 C 13.750 658.000,14.031 658.810,14.179 659.800 C 14.328 660.790,14.618 661.600,14.825 661.600 C 15.031 661.600,15.200 662.050,15.200 662.600 C 15.200 663.150,15.380 663.600,15.600 663.600 C 15.820 663.600,16.000 664.140,16.000 664.800 C 16.000 665.460,16.180 666.000,16.400 666.000 C 16.620 666.000,16.800 666.360,16.800 666.800 C 16.800 667.240,16.980 667.600,17.200 667.600 C 17.420 667.600,17.600 667.870,17.600 668.200 C 17.600 668.530,17.780 668.800,18.000 668.800 C 18.220 668.800,18.400 669.160,18.400 669.600 C 18.400 670.040,18.580 670.400,18.800 670.400 C 19.020 670.400,19.200 670.669,19.200 670.997 C 19.200 671.831,20.523 674.800,20.894 674.800 C 21.062 674.800,21.200 675.160,21.200 675.600 C 21.200 676.040,21.380 676.400,21.600 676.400 C 21.820 676.400,22.000 676.636,22.000 676.925 C 22.000 677.213,22.360 677.836,22.800 678.308 C 23.240 678.780,23.600 679.288,23.600 679.436 C 23.600 679.585,23.931 679.997,24.336 680.353 C 24.741 680.709,25.194 681.495,25.344 682.100 C 25.493 682.705,25.792 683.200,26.008 683.200 C 26.223 683.200,26.400 683.494,26.400 683.853 C 26.400 684.510,27.830 686.000,28.461 686.000 C 28.648 686.000,28.800 686.278,28.800 686.618 C 28.800 686.958,29.250 687.686,29.800 688.236 C 30.350 688.786,30.800 689.423,30.800 689.651 C 30.800 690.229,43.826 703.200,44.407 703.200 C 44.666 703.200,45.383 703.740,46.000 704.400 C 46.617 705.060,47.237 705.600,47.379 705.600 C 47.520 705.600,48.055 706.019,48.566 706.530 C 49.078 707.042,50.060 707.693,50.748 707.979 C 51.437 708.264,52.000 708.655,52.000 708.849 C 52.000 709.042,52.270 709.200,52.600 709.200 C 52.930 709.200,53.200 709.380,53.200 709.600 C 53.200 709.820,53.520 710.000,53.912 710.000 C 54.303 710.000,54.883 710.360,55.200 710.800 C 55.517 711.240,56.097 711.600,56.488 711.600 C 56.880 711.600,57.200 711.780,57.200 712.000 C 57.200 712.220,57.448 712.400,57.751 712.400 C 58.054 712.400,58.526 712.670,58.800 713.000 C 59.074 713.330,59.636 713.600,60.049 713.600 C 60.462 713.600,60.800 713.780,60.800 714.000 C 60.800 714.220,61.160 714.400,61.600 714.400 C 62.040 714.400,62.400 714.580,62.400 714.800 C 62.400 715.020,62.760 715.200,63.200 715.200 C 63.640 715.200,64.000 715.380,64.000 715.600 C 64.000 715.820,64.450 716.000,65.000 716.000 C 65.550 716.000,66.000 716.180,66.000 716.400 C 66.000 716.620,66.360 716.800,66.800 716.800 C 67.240 716.800,67.600 716.980,67.600 717.200 C 67.600 717.420,67.960 717.600,68.400 717.600 C 68.840 717.600,69.200 717.767,69.200 717.971 C 69.200 718.175,70.190 718.466,71.400 718.617 C 72.610 718.768,73.600 719.051,73.600 719.246 C 73.600 719.441,73.960 719.600,74.400 719.600 C 74.840 719.600,75.200 719.780,75.200 720.000 C 75.200 720.220,75.650 720.400,76.200 720.400 C 76.750 720.400,77.200 720.580,77.200 720.800 C 77.200 721.020,77.920 721.200,78.800 721.200 C 79.680 721.200,80.400 721.380,80.400 721.600 C 80.400 721.820,81.030 722.000,81.800 722.000 C 82.570 722.000,83.200 722.180,83.200 722.400 C 83.200 722.620,83.920 722.800,84.800 722.800 C 85.680 722.800,86.400 722.964,86.400 723.164 C 86.400 723.365,87.435 723.624,88.700 723.740 C 89.965 723.856,92.583 724.146,94.517 724.384 C 99.940 725.052,309.784 724.776,310.460 724.100 C 310.754 723.806,311.997 723.600,313.480 723.600 C 314.893 723.600,316.000 723.424,316.000 723.200 C 316.000 722.980,316.630 722.800,317.400 722.800 C 318.170 722.800,318.800 722.620,318.800 722.400 C 318.800 722.180,319.520 722.000,320.400 722.000 C 321.280 722.000,322.000 721.820,322.000 721.600 C 322.000 721.380,322.630 721.200,323.400 721.200 C 324.170 721.200,324.800 721.020,324.800 720.800 C 324.800 720.580,325.160 720.400,325.600 720.400 C 326.040 720.400,326.400 720.220,326.400 720.000 C 326.400 719.780,326.940 719.600,327.600 719.600 C 328.260 719.600,328.800 719.437,328.800 719.238 C 328.800 719.038,329.700 718.751,330.800 718.600 C 331.899 718.449,332.900 718.162,333.023 717.963 C 333.146 717.763,333.597 717.600,334.024 717.600 C 334.451 717.600,334.800 717.420,334.800 717.200 C 334.800 716.980,335.070 716.800,335.400 716.800 C 335.730 716.800,336.000 716.620,336.000 716.400 C 336.000 716.180,336.360 716.000,336.800 716.000 C 337.240 716.000,337.600 715.820,337.600 715.600 C 337.600 715.380,337.960 715.200,338.400 715.200 C 338.840 715.200,339.200 715.020,339.200 714.800 C 339.200 714.580,339.560 714.400,340.000 714.400 C 340.440 714.400,340.800 714.220,340.800 714.000 C 340.800 713.780,341.237 713.600,341.771 713.600 C 342.306 713.600,343.013 713.330,343.343 713.000 C 343.673 712.670,344.186 712.400,344.483 712.400 C 344.780 712.400,345.283 712.040,345.600 711.600 C 345.917 711.160,346.407 710.800,346.688 710.800 C 346.970 710.800,347.200 710.620,347.200 710.400 C 347.200 710.180,347.520 710.000,347.912 710.000 C 348.303 710.000,348.883 709.640,349.200 709.200 C 349.517 708.760,350.075 708.400,350.439 708.400 C 350.804 708.400,351.326 708.130,351.600 707.800 C 351.874 707.470,352.274 707.200,352.488 707.200 C 352.703 707.200,353.383 706.660,354.000 706.000 C 354.617 705.340,355.318 704.800,355.558 704.800 C 355.799 704.800,356.817 703.990,357.821 703.000 C 358.825 702.010,359.825 701.200,360.043 701.200 C 360.550 701.200,369.600 692.037,369.600 691.524 C 369.600 691.311,370.320 690.446,371.200 689.600 C 372.080 688.754,372.800 687.821,372.800 687.526 C 372.800 687.231,373.250 686.652,373.800 686.239 C 374.350 685.826,374.800 685.225,374.800 684.904 C 374.800 684.584,375.340 683.817,376.000 683.200 C 376.660 682.583,377.200 681.791,377.200 681.440 C 377.200 681.088,377.380 680.800,377.600 680.800 C 377.820 680.800,378.000 680.612,378.000 680.383 C 378.000 680.154,378.360 679.580,378.800 679.108 C 379.240 678.636,379.600 678.013,379.600 677.725 C 379.600 677.436,379.780 677.200,380.000 677.200 C 380.220 677.200,380.400 676.853,380.400 676.429 C 380.400 676.004,380.670 675.387,381.000 675.057 C 381.330 674.727,381.600 674.264,381.600 674.029 C 381.600 673.793,381.780 673.600,382.000 673.600 C 382.220 673.600,382.400 673.240,382.400 672.800 C 382.400 672.360,382.580 672.000,382.800 672.000 C 383.020 672.000,383.200 671.640,383.200 671.200 C 383.200 670.760,383.380 670.400,383.600 670.400 C 383.820 670.400,384.000 670.040,384.000 669.600 C 384.000 669.160,384.153 668.800,384.339 668.800 C 384.728 668.800,386.000 665.088,386.000 663.954 C 386.000 663.539,386.180 663.200,386.400 663.200 C 386.620 663.200,386.800 662.840,386.800 662.400 C 386.800 661.960,386.980 661.600,387.200 661.600 C 387.420 661.600,387.600 661.060,387.600 660.400 C 387.600 659.740,387.780 659.200,388.000 659.200 C 388.220 659.200,388.400 658.750,388.400 658.200 C 388.400 657.650,388.580 657.200,388.800 657.200 C 389.020 657.200,389.200 656.480,389.200 655.600 C 389.200 654.720,389.380 654.000,389.600 654.000 C 389.820 654.000,390.000 653.370,390.000 652.600 C 390.000 651.830,390.160 651.200,390.356 651.200 C 390.806 651.200,391.128 649.381,391.684 643.700 C 391.926 641.225,392.277 639.200,392.462 639.200 C 392.648 639.200,392.800 516.800,392.800 367.200 C 392.800 217.600,392.648 95.200,392.462 95.200 C 392.277 95.200,391.926 93.175,391.684 90.700 C 391.128 85.019,390.806 83.200,390.356 83.200 C 390.160 83.200,390.000 82.570,390.000 81.800 C 390.000 81.030,389.820 80.400,389.600 80.400 C 389.380 80.400,389.200 79.680,389.200 78.800 C 389.200 77.920,389.020 77.200,388.800 77.200 C 388.580 77.200,388.400 76.750,388.400 76.200 C 388.400 75.650,388.220 75.200,388.000 75.200 C 387.780 75.200,387.600 74.660,387.600 74.000 C 387.600 73.340,387.420 72.800,387.200 72.800 C 386.980 72.800,386.800 72.440,386.800 72.000 C 386.800 71.560,386.643 71.200,386.451 71.200 C 386.259 71.200,385.986 70.470,385.843 69.578 C 385.570 67.871,384.062 64.294,383.519 64.067 C 383.343 63.993,383.200 63.588,383.200 63.167 C 383.200 62.745,383.020 62.400,382.800 62.400 C 382.580 62.400,382.400 62.040,382.400 61.600 C 382.400 61.160,382.220 60.800,382.000 60.800 C 381.780 60.800,381.600 60.440,381.600 60.000 C 381.600 59.560,381.423 59.200,381.208 59.200 C 380.992 59.200,380.702 58.750,380.564 58.200 C 380.426 57.650,380.153 57.200,379.957 57.200 C 379.760 57.200,379.600 56.880,379.600 56.488 C 379.600 56.097,379.240 55.517,378.800 55.200 C 378.360 54.883,378.000 54.303,378.000 53.912 C 378.000 53.520,377.820 53.200,377.600 53.200 C 377.380 53.200,377.200 53.002,377.200 52.760 C 377.200 52.519,376.660 51.817,376.000 51.200 C 375.340 50.583,374.800 49.790,374.800 49.437 C 374.800 49.084,374.350 48.403,373.800 47.925 C 373.250 47.447,372.800 46.894,372.800 46.697 C 372.800 46.499,372.080 45.646,371.200 44.800 C 370.320 43.954,369.600 43.073,369.600 42.842 C 369.600 42.276,360.591 33.200,360.029 33.200 C 359.786 33.200,358.810 32.390,357.862 31.400 C 356.913 30.410,355.908 29.600,355.629 29.600 C 355.350 29.600,354.617 29.060,354.000 28.400 C 353.383 27.740,352.747 27.200,352.586 27.200 C 352.426 27.200,352.003 26.869,351.647 26.464 C 351.291 26.059,350.505 25.606,349.900 25.456 C 349.295 25.307,348.800 25.008,348.800 24.792 C 348.800 24.577,348.440 24.400,348.000 24.400 C 347.560 24.400,347.200 24.220,347.200 24.000 C 347.200 23.780,346.970 23.600,346.688 23.600 C 346.407 23.600,345.917 23.240,345.600 22.800 C 345.283 22.360,344.703 22.000,344.312 22.000 C 343.920 22.000,343.600 21.820,343.600 21.600 C 343.600 21.380,343.240 21.200,342.800 21.200 C 342.360 21.200,342.000 21.062,342.000 20.894 C 342.000 20.523,339.031 19.200,338.197 19.200 C 337.869 19.200,337.600 19.020,337.600 18.800 C 337.600 18.580,337.240 18.400,336.800 18.400 C 336.360 18.400,336.000 18.220,336.000 18.000 C 336.000 17.780,335.730 17.600,335.400 17.600 C 335.070 17.600,334.800 17.420,334.800 17.200 C 334.800 16.980,334.440 16.800,334.000 16.800 C 333.560 16.800,333.200 16.620,333.200 16.400 C 333.200 16.180,332.660 16.000,332.000 16.000 C 331.340 16.000,330.800 15.820,330.800 15.600 C 330.800 15.380,330.350 15.200,329.800 15.200 C 329.250 15.200,328.800 15.041,328.800 14.846 C 328.800 14.651,327.810 14.368,326.600 14.217 C 325.390 14.066,324.400 13.775,324.400 13.571 C 324.400 13.367,323.871 13.200,323.224 13.200 C 322.577 13.200,321.936 13.020,321.800 12.800 C 321.664 12.580,320.933 12.400,320.176 12.400 C 319.419 12.400,318.800 12.220,318.800 12.000 C 318.800 11.780,318.170 11.600,317.400 11.600 C 316.630 11.600,316.000 11.420,316.000 11.200 C 316.000 10.974,314.867 10.800,313.400 10.800 C 311.933 10.800,310.800 10.626,310.800 10.400 C 310.800 10.175,309.675 10.000,308.224 10.000 C 306.807 10.000,305.536 9.820,305.400 9.600 C 305.057 9.045,96.800 9.045,96.800 9.600 M311.000 12.499 C 328.234 15.697,345.728 23.358,355.053 31.790 C 355.302 32.016,356.292 32.821,357.253 33.579 C 368.228 42.245,380.861 60.169,385.177 73.200 C 385.650 74.630,386.183 76.071,386.361 76.401 C 387.678 78.854,389.707 89.238,390.581 98.000 C 391.464 106.848,391.461 627.236,390.578 636.200 C 389.624 645.884,388.144 653.502,386.381 657.800 C 386.200 658.240,385.663 659.770,385.186 661.200 C 383.891 665.090,380.089 672.966,377.706 676.696 C 376.548 678.509,375.600 680.140,375.600 680.321 C 375.600 680.501,375.282 680.998,374.894 681.425 C 374.505 681.851,372.911 683.914,371.350 686.009 C 365.379 694.026,354.709 703.685,346.400 708.597 C 344.970 709.442,343.170 710.519,342.400 710.991 C 338.670 713.275,328.526 717.631,324.200 718.807 C 307.165 723.436,314.752 723.167,201.000 723.167 C 92.290 723.167,94.632 723.226,83.032 720.188 C 81.035 719.665,78.950 719.124,78.400 718.985 C 77.850 718.847,77.040 718.580,76.600 718.393 C 76.160 718.207,74.190 717.477,72.222 716.772 C 57.721 711.577,39.903 698.618,31.600 687.228 C 31.050 686.474,29.902 684.964,29.048 683.874 C 24.121 677.582,19.224 667.865,15.201 656.400 C 14.388 654.082,12.400 645.117,11.919 641.600 C 11.498 638.516,11.400 586.829,11.400 367.200 C 11.400 75.641,11.292 92.789,13.177 85.600 C 15.257 77.672,15.336 77.410,17.122 72.555 C 22.389 58.235,34.966 40.843,45.968 32.664 C 47.196 31.751,48.290 30.913,48.400 30.800 C 53.214 25.877,70.249 17.502,81.404 14.574 C 94.359 11.174,89.718 11.295,204.000 11.382 L 305.400 11.459 311.000 12.499 M59.917 122.011 C 50.916 123.529,43.489 130.380,41.138 139.336 C 40.102 143.282,39.972 388.140,41.003 392.216 C 43.484 402.016,51.120 408.561,61.729 409.981 C 66.152 410.573,336.331 410.565,340.671 409.973 C 352.071 408.417,359.851 400.729,361.567 389.323 C 362.155 385.414,362.179 145.990,361.592 142.573 C 360.751 137.683,358.827 132.770,357.062 131.004 C 356.731 130.674,356.133 129.990,355.731 129.483 C 353.217 126.314,347.777 123.220,342.906 122.187 C 339.881 121.546,63.695 121.375,59.917 122.011 M343.000 125.200 C 342.856 125.433,343.263 125.600,343.976 125.600 C 344.649 125.600,345.200 125.780,345.200 126.000 C 345.200 126.220,345.560 126.400,346.000 126.400 C 346.440 126.400,346.800 126.580,346.800 126.800 C 346.800 127.020,347.160 127.200,347.600 127.200 C 348.040 127.200,348.400 127.388,348.400 127.618 C 348.400 127.847,348.691 127.982,349.047 127.918 C 349.403 127.853,349.898 128.157,350.147 128.594 C 350.808 129.753,352.050 130.817,352.452 130.568 C 352.643 130.450,352.800 130.606,352.800 130.915 C 352.800 131.625,353.980 132.974,354.900 133.315 C 355.285 133.458,355.600 133.941,355.600 134.387 C 355.600 134.834,355.780 135.200,356.000 135.200 C 356.220 135.200,356.400 135.560,356.400 136.000 C 356.400 136.440,356.580 136.800,356.800 136.800 C 357.020 136.800,357.200 137.250,357.200 137.800 C 357.200 138.350,357.380 138.800,357.600 138.800 C 357.820 138.800,358.000 139.340,358.000 140.000 C 358.000 140.660,358.135 141.200,358.300 141.200 C 358.465 141.200,358.600 197.270,358.600 265.800 C 358.600 334.330,358.465 390.400,358.300 390.400 C 358.135 390.400,358.000 391.030,358.000 391.800 C 358.000 392.570,357.820 393.200,357.600 393.200 C 357.380 393.200,357.200 393.610,357.200 394.112 C 357.200 394.613,356.840 395.283,356.400 395.600 C 355.960 395.917,355.600 396.497,355.600 396.888 C 355.600 397.280,355.401 397.600,355.157 397.600 C 354.914 397.600,354.811 397.852,354.929 398.160 C 355.047 398.467,354.789 399.052,354.354 399.460 C 353.920 399.867,352.817 400.966,351.904 401.902 C 350.754 403.082,350.023 403.534,349.525 403.376 C 348.991 403.207,348.867 403.309,349.045 403.772 C 349.242 404.287,349.048 404.356,347.942 404.165 C 346.925 403.989,346.745 404.036,347.200 404.360 C 347.715 404.727,347.698 404.789,347.076 404.794 C 346.678 404.797,346.464 404.980,346.600 405.200 C 346.744 405.433,346.337 405.600,345.624 405.600 C 344.951 405.600,344.400 405.780,344.400 406.000 C 344.400 406.220,343.680 406.400,342.800 406.400 C 341.920 406.400,341.200 406.580,341.200 406.800 C 341.200 407.066,294.267 407.200,201.200 407.200 C 108.133 407.200,61.200 407.066,61.200 406.800 C 61.200 406.580,60.390 406.400,59.400 406.400 C 58.341 406.400,57.600 406.216,57.600 405.953 C 57.600 405.689,57.179 405.587,56.568 405.704 C 55.913 405.829,55.460 405.700,55.326 405.351 C 55.209 405.048,54.903 404.800,54.646 404.800 C 54.388 404.800,53.934 404.463,53.637 404.051 C 53.315 403.604,52.795 403.381,52.348 403.498 C 51.937 403.605,51.600 403.497,51.600 403.257 C 51.600 402.784,48.652 399.764,47.261 398.812 C 46.710 398.436,46.483 397.969,46.628 397.512 C 46.782 397.028,46.645 396.800,46.200 396.800 C 45.728 396.800,45.617 396.577,45.800 396.000 C 45.979 395.437,45.872 395.200,45.440 395.200 C 45.058 395.200,44.912 394.973,45.055 394.600 C 45.183 394.268,45.067 394.000,44.796 394.000 C 44.486 394.000,44.379 393.623,44.504 392.968 C 44.629 392.313,44.500 391.860,44.151 391.726 C 43.418 391.444,43.314 140.400,44.047 140.400 C 44.311 140.400,44.413 139.979,44.296 139.368 C 44.171 138.713,44.300 138.260,44.649 138.126 C 44.952 138.009,45.203 137.439,45.206 136.857 C 45.211 136.028,45.296 135.929,45.600 136.400 C 45.912 136.883,45.989 136.819,45.994 136.076 C 45.998 135.504,46.168 135.257,46.443 135.426 C 46.740 135.610,46.798 135.425,46.621 134.867 C 46.432 134.272,46.591 133.887,47.178 133.521 C 47.630 133.238,48.000 132.725,48.000 132.380 C 48.000 131.349,50.310 129.251,51.191 129.482 C 51.765 129.632,52.028 129.428,52.214 128.688 C 52.399 127.950,52.663 127.744,53.232 127.892 C 53.654 128.003,54.000 127.892,54.000 127.647 C 54.000 127.401,54.360 127.200,54.800 127.200 C 55.240 127.200,55.600 127.020,55.600 126.800 C 55.600 126.580,55.870 126.400,56.200 126.400 C 56.530 126.400,56.800 126.220,56.800 126.000 C 56.800 125.780,57.340 125.600,58.000 125.600 C 58.660 125.600,59.200 125.420,59.200 125.200 C 59.200 124.934,106.808 124.800,201.224 124.800 C 295.804 124.800,343.165 124.934,343.000 125.200 " stroke="none" fill="#060608" fill-rule="evenodd"></path><path id="path3" d="M151.532 11.900 C 178.885 11.957,223.525 11.957,250.732 11.900 C 277.939 11.843,255.560 11.797,201.000 11.797 C 146.440 11.797,124.179 11.843,151.532 11.900 M94.000 12.402 C 93.423 12.587,94.354 12.631,96.200 12.506 C 97.960 12.386,99.475 12.223,99.567 12.144 C 99.896 11.859,94.978 12.087,94.000 12.402 M302.433 12.145 C 302.525 12.225,304.130 12.387,306.000 12.506 C 307.956 12.631,308.890 12.590,308.200 12.409 C 307.000 12.095,302.119 11.871,302.433 12.145 M88.600 13.200 L 87.400 13.505 88.800 13.525 C 89.570 13.535,90.560 13.389,91.000 13.200 C 92.064 12.743,90.397 12.743,88.600 13.200 M311.200 13.200 C 311.750 13.376,312.740 13.517,313.400 13.513 L 314.600 13.505 313.400 13.200 C 312.740 13.032,311.750 12.891,311.200 12.887 L 310.200 12.880 311.200 13.200 M84.800 14.000 L 83.800 14.320 84.800 14.354 C 85.350 14.373,86.070 14.213,86.400 14.000 C 87.164 13.506,86.342 13.506,84.800 14.000 M315.790 13.984 C 315.932 14.213,316.517 14.400,317.090 14.400 C 318.344 14.400,318.199 14.208,316.666 13.840 C 315.923 13.662,315.621 13.711,315.790 13.984 M81.600 14.800 L 80.600 15.120 81.600 15.154 C 82.150 15.173,82.870 15.013,83.200 14.800 C 83.964 14.306,83.142 14.306,81.600 14.800 M318.990 14.784 C 319.132 15.013,319.717 15.200,320.290 15.200 C 321.544 15.200,321.399 15.008,319.866 14.640 C 319.123 14.462,318.821 14.511,318.990 14.784 M78.600 15.584 C 76.658 16.072,74.236 17.238,75.800 16.932 C 76.460 16.802,77.171 16.540,77.380 16.348 C 77.589 16.157,78.253 16.000,78.856 16.000 C 79.459 16.000,80.064 15.820,80.200 15.600 C 80.476 15.153,80.318 15.152,78.600 15.584 M322.200 15.536 C 323.702 16.199,326.925 17.208,327.072 17.062 C 327.268 16.865,324.101 15.696,322.600 15.411 C 321.696 15.240,321.597 15.271,322.200 15.536 M72.800 17.600 C 72.267 17.945,72.267 17.988,72.800 17.988 C 73.130 17.988,73.670 17.813,74.000 17.600 C 74.533 17.255,74.533 17.212,74.000 17.212 C 73.670 17.212,73.130 17.387,72.800 17.600 M63.458 21.645 C 61.290 22.748,59.583 23.716,59.664 23.797 C 59.816 23.949,67.458 20.275,67.891 19.842 C 68.512 19.221,67.077 19.805,63.458 21.645 M334.000 19.773 C 334.000 19.981,340.765 23.209,341.139 23.180 C 341.458 23.155,334.721 19.648,334.300 19.620 C 334.135 19.609,334.000 19.678,334.000 19.773 M343.600 24.767 C 344.563 25.552,345.200 25.808,345.200 25.410 C 345.200 25.306,344.615 24.935,343.900 24.586 L 342.600 23.952 343.600 24.767 M56.700 25.429 C 56.095 25.757,55.600 26.110,55.600 26.213 C 55.600 26.599,56.232 26.357,57.200 25.600 C 58.389 24.670,58.211 24.609,56.700 25.429 M52.924 27.791 C 51.788 28.556,50.718 29.408,50.547 29.685 C 50.287 30.107,53.761 27.791,54.980 26.731 C 55.842 25.981,54.859 26.487,52.924 27.791 M348.800 27.731 C 348.800 27.857,350.465 29.220,352.500 30.759 C 354.535 32.298,356.920 34.143,357.800 34.860 C 359.257 36.046,359.311 36.062,358.400 35.040 C 357.850 34.423,355.690 32.645,353.600 31.089 C 351.510 29.533,349.575 28.090,349.300 27.881 C 349.025 27.673,348.800 27.605,348.800 27.731 M161.163 29.796 C 159.476 30.713,156.957 34.498,156.236 37.200 C 156.089 37.750,156.594 36.940,157.359 35.400 C 159.027 32.041,159.363 31.608,161.362 30.251 C 163.011 29.132,162.890 28.857,161.163 29.796 M165.294 29.739 C 165.676 30.036,166.254 30.891,166.578 31.640 C 166.903 32.388,167.176 32.766,167.184 32.480 C 167.212 31.577,166.059 29.707,165.315 29.447 C 164.641 29.212,164.639 29.229,165.294 29.739 M45.591 33.313 C 38.215 39.395,30.511 48.218,25.480 56.348 C 22.834 60.623,19.442 67.207,19.896 67.186 C 20.063 67.179,20.830 65.788,21.600 64.096 C 26.551 53.215,39.155 38.006,48.767 31.316 C 48.858 31.252,48.854 31.121,48.757 31.024 C 48.660 30.927,47.235 31.957,45.591 33.313 M161.696 33.595 C 160.981 34.740,161.084 35.143,161.823 34.089 C 162.810 32.679,163.200 33.037,163.200 35.351 C 163.200 37.605,162.481 39.780,161.070 41.800 C 160.341 42.842,160.330 42.921,160.980 42.400 C 162.756 40.977,164.412 34.838,163.443 33.270 C 163.006 32.563,162.253 32.703,161.696 33.595 M171.852 35.916 C 171.744 36.090,172.273 36.161,173.028 36.073 C 173.783 35.985,174.400 35.842,174.400 35.756 C 174.400 35.455,172.045 35.603,171.852 35.916 M166.629 37.429 C 166.481 38.015,166.451 38.584,166.561 38.694 C 166.671 38.804,166.881 38.415,167.029 37.829 C 167.176 37.242,167.206 36.673,167.096 36.563 C 166.986 36.453,166.776 36.842,166.629 37.429 M362.872 39.600 C 364.616 41.360,366.164 42.800,366.312 42.800 C 366.460 42.800,365.150 41.360,363.400 39.600 C 361.650 37.840,360.103 36.400,359.961 36.400 C 359.819 36.400,361.129 37.840,362.872 39.600 M159.849 38.215 C 159.712 38.573,159.616 39.256,159.636 39.733 C 159.662 40.347,159.785 40.208,160.059 39.256 C 160.457 37.872,160.294 37.058,159.849 38.215 M169.660 39.030 C 169.559 41.110,173.552 43.296,174.538 41.700 C 174.640 41.535,173.972 41.460,173.054 41.533 C 171.122 41.687,170.172 40.925,169.893 39.000 L 169.720 37.800 169.660 39.030 M176.398 38.433 C 176.396 38.745,176.125 39.518,175.795 40.151 C 175.307 41.086,175.300 41.215,175.758 40.835 C 176.377 40.321,176.968 38.435,176.619 38.086 C 176.499 37.965,176.399 38.122,176.398 38.433 M155.473 38.953 C 155.323 39.345,155.211 39.966,155.225 40.333 C 155.242 40.775,155.381 40.674,155.637 40.034 C 155.849 39.503,155.961 38.882,155.885 38.654 C 155.809 38.427,155.624 38.561,155.473 38.953 M165.411 40.631 C 164.997 41.400,164.150 42.562,163.529 43.211 C 162.369 44.425,162.174 44.800,162.703 44.800 C 163.103 44.800,166.587 39.654,166.349 39.416 C 166.248 39.314,165.826 39.861,165.411 40.631 M154.790 41.500 C 154.785 41.665,154.619 42.497,154.422 43.349 C 154.224 44.201,154.214 44.741,154.400 44.549 C 154.819 44.116,155.380 41.200,155.045 41.200 C 154.910 41.200,154.796 41.335,154.790 41.500 M368.252 45.400 C 369.310 46.720,370.225 47.875,370.287 47.967 C 370.349 48.058,370.490 48.043,370.601 47.932 C 370.711 47.822,369.796 46.667,368.566 45.366 L 366.330 43.000 368.252 45.400 M141.913 44.425 C 141.262 44.804,139.431 48.364,139.733 48.666 C 139.811 48.744,140.206 48.073,140.611 47.175 C 141.016 46.277,141.789 45.195,142.328 44.771 C 143.356 43.962,143.089 43.739,141.913 44.425 M145.054 44.270 C 145.303 44.451,145.607 44.960,145.728 45.400 C 145.901 46.031,145.932 45.995,145.874 45.231 C 145.833 44.699,145.530 44.190,145.200 44.101 C 144.804 43.994,144.754 44.051,145.054 44.270 M150.880 45.280 C 149.474 46.686,150.689 49.200,152.774 49.200 C 154.582 49.200,153.932 53.544,151.763 55.957 C 149.647 58.310,149.381 58.402,149.030 56.900 C 148.612 55.115,147.929 53.600,147.542 53.600 C 147.344 53.600,147.442 54.005,147.761 54.500 C 148.080 54.995,148.464 56.075,148.615 56.900 C 148.984 58.921,149.558 58.796,151.960 56.168 C 154.079 53.849,155.018 49.489,153.500 49.021 C 153.225 48.936,152.505 48.758,151.900 48.626 C 150.690 48.361,150.300 46.260,151.280 45.280 C 151.544 45.016,151.670 44.800,151.560 44.800 C 151.450 44.800,151.144 45.016,150.880 45.280 M167.409 45.692 C 167.902 47.659,166.620 48.436,162.389 48.734 L 158.600 49.000 158.609 52.483 C 158.620 56.382,159.281 57.827,161.372 58.524 C 163.677 59.292,168.066 56.711,167.954 54.653 C 167.910 53.845,167.897 53.842,167.715 54.600 C 167.193 56.769,163.895 58.704,161.585 58.197 C 159.701 57.783,159.088 56.454,159.041 52.680 L 159.000 49.400 162.542 49.130 C 166.900 48.798,169.840 46.384,167.584 44.990 C 167.318 44.826,167.255 45.079,167.409 45.692 M169.836 45.700 C 169.516 46.195,169.149 47.140,169.021 47.800 C 168.844 48.713,168.935 48.617,169.402 47.400 C 169.739 46.520,170.316 45.575,170.684 45.300 C 171.052 45.025,171.143 44.800,170.886 44.800 C 170.629 44.800,170.156 45.205,169.836 45.700 M179.229 45.854 C 178.773 46.434,178.415 47.199,178.432 47.554 C 178.452 47.938,178.662 47.755,178.951 47.104 C 179.218 46.501,179.789 45.741,180.219 45.416 C 180.648 45.091,180.788 44.820,180.529 44.813 C 180.270 44.806,179.685 45.274,179.229 45.854 M182.959 46.926 L 182.918 49.000 183.320 47.281 C 183.559 46.259,183.575 45.418,183.361 45.207 C 183.147 44.997,182.983 45.698,182.959 46.926 M191.760 45.401 C 192.440 45.915,192.495 46.347,192.286 49.488 C 192.158 51.420,192.158 52.730,192.286 52.400 C 192.415 52.070,192.636 51.710,192.778 51.600 C 193.169 51.297,194.801 48.400,194.581 48.400 C 194.475 48.400,194.032 48.985,193.596 49.700 L 192.803 51.000 192.801 48.380 C 192.800 45.878,192.376 44.784,191.420 44.813 C 191.189 44.820,191.342 45.084,191.760 45.401 M202.033 45.633 C 202.731 46.331,202.832 46.800,202.655 48.533 L 202.444 50.600 202.866 48.697 C 203.293 46.770,202.648 44.800,201.591 44.800 C 201.376 44.800,201.575 45.175,202.033 45.633 M208.468 45.805 C 207.668 46.822,206.534 50.667,206.920 51.053 C 207.036 51.169,207.344 50.233,207.606 48.973 C 207.895 47.581,208.450 46.313,209.022 45.741 C 209.540 45.224,209.805 44.800,209.611 44.800 C 209.417 44.800,208.902 45.252,208.468 45.805 M212.134 46.742 C 212.087 48.072,212.165 48.373,212.406 47.800 C 212.838 46.778,212.888 45.301,212.500 45.065 C 212.335 44.965,212.170 45.720,212.134 46.742 M216.295 45.813 C 215.474 46.371,214.173 47.763,213.402 48.908 C 212.033 50.940,211.999 50.961,211.975 49.795 C 211.949 48.606,211.947 48.605,211.556 49.586 C 210.504 52.220,211.331 53.120,212.670 50.800 C 214.358 47.878,215.600 46.529,217.459 45.601 C 218.307 45.178,218.727 44.825,218.393 44.816 C 218.059 44.807,217.115 45.256,216.295 45.813 M220.910 45.501 C 221.259 45.886,221.615 47.011,221.702 48.001 L 221.860 49.800 221.930 48.074 C 222.004 46.248,221.470 44.800,220.724 44.800 C 220.464 44.800,220.542 45.094,220.910 45.501 M226.040 46.017 C 225.115 46.687,223.794 48.037,223.103 49.017 C 222.230 50.255,221.750 50.647,221.529 50.300 C 221.343 50.006,221.213 50.459,221.215 51.400 L 221.218 53.000 221.812 51.800 C 223.026 49.347,225.433 46.641,227.200 45.740 C 228.190 45.235,228.712 44.817,228.360 44.811 C 228.008 44.805,226.964 45.348,226.040 46.017 M230.938 45.531 C 231.753 46.432,231.777 48.347,231.023 52.117 C 229.808 58.191,230.203 59.543,232.801 58.199 C 234.418 57.363,235.200 56.078,235.200 54.257 C 235.200 50.497,237.940 46.403,241.200 45.292 C 242.414 44.879,242.441 44.845,241.400 45.039 C 238.018 45.669,234.819 50.081,234.787 54.160 C 234.773 55.980,234.350 56.702,232.652 57.808 C 231.577 58.508,231.471 58.512,231.007 57.877 C 230.489 57.168,230.515 56.815,231.435 52.117 C 232.126 48.588,232.160 45.920,231.520 45.280 C 230.743 44.503,230.214 44.731,230.938 45.531 M252.914 45.700 C 252.020 46.674,250.766 51.532,250.854 53.679 C 250.898 54.727,250.942 54.793,251.067 54.000 C 251.948 48.438,252.487 46.549,253.437 45.700 C 253.991 45.205,254.286 44.800,254.092 44.800 C 253.898 44.800,253.368 45.205,252.914 45.700 M260.900 45.974 C 260.009 46.619,259.143 47.384,258.975 47.674 C 258.808 47.963,259.105 47.814,259.635 47.342 C 260.166 46.870,261.230 46.106,262.000 45.643 C 262.770 45.181,263.202 44.802,262.960 44.801 C 262.718 44.801,261.791 45.328,260.900 45.974 M265.639 45.639 C 266.330 46.330,266.442 46.809,266.268 48.339 L 266.057 50.200 266.483 48.513 C 266.915 46.799,266.219 44.800,265.191 44.800 C 264.976 44.800,265.178 45.178,265.639 45.639 M186.318 46.595 C 185.728 47.143,184.686 48.403,184.003 49.395 C 182.548 51.510,182.467 51.552,182.647 50.100 C 182.773 49.087,182.749 49.101,182.341 50.278 C 181.557 52.534,182.299 53.250,183.320 51.224 C 183.804 50.263,184.982 48.605,185.937 47.538 C 187.839 45.416,187.989 45.047,186.318 46.595 M247.604 46.900 C 248.553 48.456,248.624 50.407,247.790 52.020 C 247.454 52.669,247.269 53.200,247.379 53.200 C 247.849 53.200,248.800 50.733,248.799 49.520 C 248.797 48.353,247.542 45.600,247.012 45.600 C 246.902 45.600,247.168 46.185,247.604 46.900 M195.402 47.198 C 195.003 47.639,194.807 48.000,194.967 48.000 C 195.388 48.000,196.528 46.795,196.312 46.579 C 196.211 46.478,195.802 46.756,195.402 47.198 M173.035 51.035 C 172.625 53.254,172.391 55.324,172.513 55.635 C 172.636 55.946,172.751 55.696,172.768 55.079 C 172.786 54.462,173.084 52.710,173.431 51.185 C 173.777 49.661,173.998 48.095,173.920 47.707 C 173.843 47.318,173.445 48.816,173.035 51.035 M256.178 48.578 C 256.027 49.381,255.994 50.127,256.104 50.237 C 256.214 50.347,256.427 49.781,256.578 48.978 C 256.728 48.175,256.762 47.428,256.652 47.318 C 256.542 47.208,256.328 47.775,256.178 48.578 M144.416 48.822 C 144.399 49.476,146.613 53.200,147.018 53.200 C 147.148 53.200,146.879 52.672,146.419 52.027 C 145.960 51.382,145.325 50.257,145.008 49.527 C 144.691 48.797,144.424 48.480,144.416 48.822 M177.800 50.000 C 177.646 50.910,177.604 51.738,177.707 51.840 C 177.810 51.943,178.013 51.277,178.160 50.360 C 178.307 49.443,178.348 48.615,178.253 48.520 C 178.158 48.424,177.954 49.090,177.800 50.000 M257.341 50.018 C 256.569 51.183,256.178 51.491,255.941 51.118 C 255.730 50.786,255.610 51.066,255.606 51.900 C 255.598 53.634,255.678 53.583,257.336 50.800 C 258.957 48.080,258.959 47.572,257.341 50.018 M241.500 49.232 C 240.741 49.674,239.595 51.642,239.609 52.480 C 239.614 52.766,239.962 52.241,240.383 51.314 C 241.219 49.473,242.735 48.716,243.805 49.604 C 244.718 50.362,244.523 51.163,243.100 52.502 C 242.234 53.315,242.094 53.569,242.679 53.259 C 244.644 52.220,245.400 49.949,244.026 49.214 C 243.068 48.701,242.403 48.706,241.500 49.232 M168.218 51.018 C 168.065 52.039,168.022 52.955,168.122 53.055 C 168.222 53.155,168.429 52.402,168.582 51.382 C 168.735 50.361,168.778 49.445,168.678 49.345 C 168.578 49.245,168.371 49.998,168.218 51.018 M373.885 52.900 C 376.438 56.658,377.365 57.753,376.001 55.400 C 374.966 53.614,372.065 49.600,371.809 49.600 C 371.718 49.600,372.653 51.085,373.885 52.900 M185.468 52.300 C 184.470 53.887,182.786 58.097,182.821 58.915 C 182.832 59.182,183.246 58.312,183.741 56.982 C 184.235 55.652,185.113 53.717,185.692 52.682 C 186.948 50.435,186.799 50.181,185.468 52.300 M187.339 53.903 C 187.283 56.764,187.303 56.848,187.604 55.000 C 188.034 52.361,188.070 50.799,187.700 50.803 C 187.535 50.804,187.373 52.199,187.339 53.903 M195.923 51.500 C 195.592 51.885,195.191 52.470,195.031 52.800 C 194.871 53.130,195.129 52.905,195.604 52.300 C 196.523 51.128,197.404 50.880,197.735 51.700 C 197.856 51.999,197.950 51.918,197.968 51.500 C 197.988 51.075,197.710 50.800,197.262 50.800 C 196.856 50.800,196.253 51.115,195.923 51.500 M201.840 52.440 C 201.693 53.357,201.652 54.185,201.747 54.280 C 201.842 54.376,202.046 53.710,202.200 52.800 C 202.354 51.890,202.396 51.062,202.293 50.960 C 202.190 50.857,201.987 51.523,201.840 52.440 M215.046 51.549 C 214.267 52.410,212.020 57.504,212.025 58.400 C 212.026 58.730,212.534 57.716,213.154 56.146 C 213.773 54.576,214.679 52.731,215.167 52.046 C 216.154 50.660,216.090 50.396,215.046 51.549 M216.532 53.322 L 216.465 55.800 216.839 53.627 C 217.046 52.432,217.076 51.317,216.907 51.149 C 216.738 50.981,216.570 51.959,216.532 53.322 M224.520 52.103 C 223.401 53.752,221.882 57.245,221.209 59.717 C 220.921 60.771,220.312 61.896,219.854 62.217 C 219.397 62.538,219.214 62.800,219.449 62.800 C 220.261 62.800,221.096 61.387,222.133 58.258 C 223.399 54.435,224.965 51.671,226.131 51.201 C 226.948 50.872,226.952 50.849,226.200 50.828 C 225.729 50.815,225.038 51.339,224.520 52.103 M259.775 51.685 L 259.000 52.600 259.831 51.900 C 261.039 50.883,261.200 51.007,261.200 52.946 C 261.200 54.677,262.342 56.800,263.273 56.800 C 263.502 56.800,263.264 56.456,262.744 56.035 C 261.966 55.405,261.800 54.897,261.800 53.141 C 261.800 50.690,261.066 50.163,259.775 51.685 M268.133 52.471 C 268.133 53.667,268.164 53.698,268.534 52.871 C 268.801 52.272,268.801 51.841,268.534 51.574 C 268.267 51.307,268.133 51.605,268.133 52.471 M226.200 53.600 C 226.045 54.728,226.008 55.741,226.118 55.851 C 226.228 55.961,226.445 55.128,226.600 54.000 C 226.755 52.872,226.792 51.859,226.682 51.749 C 226.572 51.639,226.355 52.472,226.200 53.600 M206.400 53.606 C 206.400 57.214,202.007 59.750,201.560 56.400 L 201.320 54.600 201.260 56.251 C 201.151 59.262,203.062 59.429,205.525 56.625 C 206.661 55.330,207.435 52.000,206.600 52.000 C 206.490 52.000,206.400 52.723,206.400 53.606 M135.670 55.219 C 133.164 58.568,133.000 58.931,133.572 59.876 C 133.946 60.493,133.977 60.447,133.779 59.569 C 133.600 58.772,133.900 58.091,135.102 56.569 C 135.956 55.486,136.978 54.105,137.374 53.500 C 138.705 51.461,137.794 52.380,135.670 55.219 M257.784 54.832 C 257.218 55.949,256.811 57.032,256.880 57.239 C 256.948 57.445,257.484 56.531,258.069 55.207 C 259.365 52.273,259.195 52.048,257.784 54.832 M140.753 53.895 C 140.259 54.525,140.270 54.545,140.857 54.087 C 141.417 53.649,141.642 53.738,142.379 54.687 C 142.907 55.366,143.088 55.476,142.844 54.967 C 142.132 53.485,141.378 53.099,140.753 53.895 M177.264 54.246 C 177.116 57.129,173.298 59.639,172.669 57.266 C 172.509 56.662,172.488 56.664,172.446 57.286 C 172.384 58.213,173.793 58.940,174.700 58.448 C 176.450 57.499,177.661 55.721,177.493 54.348 L 177.328 53.000 177.264 54.246 M239.600 54.087 C 239.600 54.471,239.958 54.448,241.000 53.998 C 241.690 53.700,241.649 53.661,240.700 53.713 C 240.095 53.747,239.600 53.915,239.600 54.087 M246.400 53.937 C 246.400 54.122,245.777 54.609,245.016 55.019 C 244.254 55.429,243.711 55.844,243.808 55.941 C 244.000 56.134,247.200 54.109,247.200 53.794 C 247.200 53.687,247.020 53.600,246.800 53.600 C 246.580 53.600,246.400 53.752,246.400 53.937 M266.998 54.802 C 266.598 55.244,266.366 55.699,266.482 55.815 C 266.597 55.930,266.990 55.569,267.355 55.012 C 268.152 53.796,267.993 53.702,266.998 54.802 M196.636 56.414 C 196.307 58.893,196.670 61.004,197.542 61.686 C 198.141 62.154,198.146 62.132,197.600 61.437 C 197.169 60.890,197.016 59.789,197.056 57.537 C 197.122 53.897,197.010 53.597,196.636 56.414 M143.431 56.900 C 143.678 57.961,143.629 58.000,142.067 58.000 C 141.176 58.000,140.364 58.135,140.261 58.300 C 140.159 58.465,140.958 58.538,142.038 58.461 C 144.081 58.317,144.500 57.757,143.582 56.400 C 143.280 55.955,143.242 56.084,143.431 56.900 M216.156 58.685 C 216.253 61.290,217.082 62.826,218.362 62.775 C 218.805 62.757,218.742 62.645,218.156 62.408 C 217.102 61.982,216.746 61.186,216.364 58.400 L 216.063 56.200 216.156 58.685 M225.714 58.200 C 225.717 59.300,225.795 59.703,225.887 59.095 C 225.979 58.486,225.977 57.586,225.882 57.095 C 225.787 56.603,225.711 57.100,225.714 58.200 M240.412 57.051 C 240.394 57.711,241.491 58.509,242.087 58.269 C 242.417 58.137,242.358 58.052,241.920 58.032 C 241.546 58.014,241.056 57.685,240.832 57.300 C 240.608 56.915,240.419 56.803,240.412 57.051 M136.981 58.823 C 136.112 59.716,135.670 60.331,136.000 60.189 C 136.563 59.947,139.063 57.200,138.721 57.200 C 138.634 57.200,137.851 57.931,136.981 58.823 M192.394 58.860 C 191.396 62.642,188.979 63.820,187.796 61.100 C 187.486 60.385,187.224 60.075,187.216 60.411 C 187.163 62.466,189.980 63.570,191.366 62.038 C 192.067 61.263,193.345 57.612,193.027 57.294 C 192.931 57.198,192.646 57.902,192.394 58.860 M377.530 58.500 C 377.967 59.215,378.724 60.573,379.212 61.517 C 379.700 62.462,380.183 63.151,380.285 63.048 C 380.496 62.837,377.281 57.200,376.950 57.200 C 376.831 57.200,377.092 57.785,377.530 58.500 M256.229 59.029 C 256.081 59.615,256.038 60.172,256.132 60.266 C 256.227 60.360,256.424 59.958,256.571 59.371 C 256.719 58.785,256.762 58.228,256.668 58.134 C 256.573 58.040,256.376 58.442,256.229 59.029 M152.633 59.817 C 151.772 60.577,151.180 61.200,151.319 61.200 C 151.458 61.200,152.214 60.636,152.999 59.947 L 154.426 58.695 155.951 60.347 C 156.791 61.256,157.601 62.000,157.752 62.000 C 157.903 62.000,157.391 61.364,156.613 60.587 C 155.836 59.809,155.200 58.999,155.200 58.787 C 155.200 58.039,154.184 58.447,152.633 59.817 M139.067 59.067 C 136.439 61.694,142.277 64.838,146.000 62.800 C 146.770 62.378,147.220 62.032,147.000 62.031 C 146.780 62.030,146.150 62.286,145.600 62.600 C 142.508 64.367,138.496 62.448,139.391 59.629 C 139.659 58.785,139.545 58.588,139.067 59.067 M211.449 60.198 C 210.808 62.647,208.673 63.287,207.437 61.400 C 206.652 60.202,206.126 60.163,204.800 61.200 C 203.577 62.157,204.042 62.253,205.446 61.333 C 206.432 60.687,206.491 60.700,207.342 61.768 C 208.862 63.674,212.415 62.109,211.921 59.752 C 211.802 59.182,211.687 59.290,211.449 60.198 M182.432 60.118 C 182.414 60.513,181.940 61.297,181.377 61.859 C 180.815 62.422,180.579 62.807,180.853 62.716 C 181.653 62.449,182.914 60.533,182.679 59.941 C 182.533 59.576,182.453 59.633,182.432 60.118 M234.400 60.884 C 233.630 61.573,233.450 61.837,234.000 61.471 C 236.227 59.991,236.231 59.990,237.622 61.016 C 239.455 62.369,239.666 62.253,237.985 60.816 C 236.263 59.344,236.119 59.347,234.400 60.884 M169.294 61.411 C 170.116 62.175,171.106 62.793,171.494 62.784 C 171.913 62.775,171.680 62.543,170.921 62.212 C 170.217 61.907,169.409 61.284,169.125 60.828 C 168.840 60.373,168.426 60.005,168.204 60.011 C 167.982 60.017,168.472 60.647,169.294 61.411 M250.800 60.322 C 250.800 60.913,252.413 62.800,252.918 62.800 C 253.171 62.800,252.978 62.520,252.489 62.177 C 252.000 61.835,251.600 61.305,251.600 61.001 C 251.600 60.696,251.420 60.336,251.200 60.200 C 250.980 60.064,250.800 60.119,250.800 60.322 M166.200 61.227 C 165.540 61.650,165.205 61.997,165.456 61.998 C 165.706 61.999,166.336 61.646,166.856 61.213 C 168.045 60.223,167.759 60.229,166.200 61.227 M177.002 60.797 C 176.798 61.127,176.833 61.227,177.094 61.065 C 177.324 60.923,177.806 61.255,178.165 61.803 C 178.525 62.352,179.129 62.795,179.509 62.788 C 180.106 62.777,180.092 62.713,179.405 62.315 C 178.968 62.061,178.321 61.498,177.969 61.062 C 177.467 60.443,177.256 60.385,177.002 60.797 M226.012 60.671 C 225.996 61.302,227.944 62.804,228.754 62.784 C 229.109 62.776,228.833 62.522,228.140 62.221 C 227.447 61.919,226.688 61.341,226.452 60.936 C 226.217 60.531,226.019 60.412,226.012 60.671 M248.600 61.227 C 247.940 61.650,247.544 61.997,247.720 61.998 C 248.160 62.001,250.400 60.824,250.400 60.590 C 250.400 60.242,249.812 60.451,248.600 61.227 M255.458 61.392 C 255.326 61.737,254.809 62.183,254.309 62.384 C 253.723 62.619,253.627 62.758,254.038 62.775 C 254.729 62.802,256.265 61.332,255.914 60.980 C 255.795 60.862,255.591 61.048,255.458 61.392 M158.800 62.382 C 159.130 62.605,159.745 62.791,160.167 62.794 C 161.190 62.802,160.871 62.573,159.400 62.244 C 158.524 62.048,158.362 62.085,158.800 62.382 M163.200 62.400 C 162.376 62.664,162.341 62.726,163.000 62.754 C 163.440 62.773,164.070 62.613,164.400 62.400 C 165.101 61.947,164.614 61.947,163.200 62.400 M202.000 62.400 C 201.176 62.664,201.141 62.726,201.800 62.754 C 202.240 62.773,202.870 62.613,203.200 62.400 C 203.901 61.947,203.414 61.947,202.000 62.400 M231.200 62.400 C 230.376 62.664,230.341 62.726,231.000 62.754 C 231.440 62.773,232.070 62.613,232.400 62.400 C 233.101 61.947,232.614 61.947,231.200 62.400 M240.200 62.381 C 240.968 62.729,243.110 62.956,242.767 62.653 C 242.675 62.572,241.880 62.396,241.000 62.262 C 239.885 62.093,239.642 62.129,240.200 62.381 M245.200 62.400 C 244.396 62.657,244.357 62.723,245.000 62.732 C 245.440 62.738,246.160 62.589,246.600 62.400 C 247.619 61.962,246.568 61.962,245.200 62.400 M382.828 68.415 C 382.775 68.819,384.268 72.801,384.584 73.101 C 384.758 73.266,384.761 72.951,384.592 72.402 C 384.207 71.155,382.866 68.124,382.828 68.415 M17.400 72.400 C 17.250 72.873,17.217 73.350,17.327 73.460 C 17.437 73.570,17.650 73.273,17.800 72.800 C 17.950 72.327,17.983 71.850,17.873 71.740 C 17.763 71.630,17.550 71.927,17.400 72.400 M384.822 73.881 C 384.810 74.146,384.965 74.776,385.167 75.281 C 385.370 75.787,385.644 76.541,385.777 76.957 C 385.910 77.374,386.111 77.622,386.223 77.510 C 386.336 77.397,386.072 76.427,385.636 75.353 C 385.200 74.279,384.834 73.617,384.822 73.881 M16.287 75.700 C 15.236 78.573,15.070 79.327,15.557 79.026 C 15.801 78.876,16.000 78.349,16.000 77.856 C 16.000 77.363,16.157 76.789,16.348 76.580 C 16.719 76.176,17.321 74.000,17.062 74.000 C 16.978 74.000,16.629 74.765,16.287 75.700 M386.406 78.633 C 386.409 79.055,386.595 79.670,386.818 80.000 C 387.115 80.438,387.152 80.276,386.956 79.400 C 386.627 77.929,386.398 77.610,386.406 78.633 M14.629 81.029 C 14.481 81.615,14.451 82.184,14.561 82.294 C 14.671 82.404,14.881 82.015,15.029 81.429 C 15.176 80.842,15.206 80.273,15.096 80.163 C 14.986 80.053,14.776 80.442,14.629 81.029 M387.234 81.800 C 387.222 82.240,387.387 82.870,387.600 83.200 C 388.114 83.995,388.114 82.996,387.600 81.800 L 387.256 81.000 387.234 81.800 M14.046 83.467 C 14.021 83.724,13.884 84.264,13.741 84.667 C 13.540 85.236,13.594 85.297,13.979 84.942 C 14.252 84.691,14.389 84.151,14.284 83.742 C 14.179 83.334,14.072 83.210,14.046 83.467 M388.068 84.800 C 388.088 85.839,388.718 87.546,388.732 86.600 C 388.738 86.160,388.589 85.440,388.400 85.000 C 388.189 84.510,388.061 84.432,388.068 84.800 M13.054 87.554 C 12.900 88.518,12.858 89.391,12.961 89.494 C 13.230 89.763,13.715 86.945,13.507 86.322 C 13.412 86.036,13.208 86.590,13.054 87.554 M83.710 87.981 C 81.460 88.128,79.482 88.384,79.315 88.551 C 79.148 88.718,81.079 88.708,83.606 88.527 C 89.186 88.130,311.904 88.085,318.400 88.480 C 322.110 88.706,322.768 88.669,321.800 88.292 C 320.476 87.776,91.451 87.477,83.710 87.981 M389.069 90.200 C 389.196 91.520,389.368 92.675,389.450 92.767 C 389.741 93.090,389.516 89.786,389.179 88.800 C 388.958 88.152,388.920 88.645,389.069 90.200 M75.400 89.186 C 74.960 89.368,73.430 89.839,72.000 90.231 C 53.200 95.386,35.524 113.807,31.920 132.000 C 30.932 136.987,30.758 138.054,30.421 141.200 C 29.917 145.905,29.918 610.607,30.422 615.600 C 31.012 621.441,31.251 622.967,31.641 623.380 C 31.838 623.589,32.000 624.166,32.000 624.661 C 32.000 625.157,32.159 625.976,32.352 626.481 C 32.546 626.987,33.118 628.660,33.622 630.200 C 36.268 638.276,41.443 646.258,48.477 653.114 C 55.407 659.869,66.084 665.596,75.400 667.556 C 76.500 667.788,78.245 668.162,79.277 668.389 C 81.973 668.979,319.953 668.959,322.869 668.368 C 328.063 667.315,334.022 665.510,337.510 663.934 C 338.891 663.310,340.114 662.800,340.229 662.800 C 340.904 662.800,349.818 656.568,351.993 654.575 C 359.681 647.531,365.327 639.414,367.972 631.600 C 368.456 630.170,369.007 628.640,369.196 628.200 C 369.385 627.760,369.631 626.950,369.742 626.400 C 369.853 625.850,370.140 624.680,370.379 623.800 C 372.040 617.691,371.984 626.213,371.991 378.600 C 371.996 213.601,371.870 142.325,371.569 139.800 C 370.996 134.997,369.696 129.424,368.397 126.200 C 368.219 125.760,367.775 124.590,367.409 123.600 C 363.180 112.163,350.463 98.756,338.936 93.584 C 337.871 93.107,336.460 92.474,335.800 92.179 C 335.140 91.884,333.070 91.169,331.200 90.592 C 329.330 90.014,327.278 89.375,326.640 89.171 C 326.002 88.967,324.922 88.815,324.240 88.834 C 323.006 88.868,324.173 89.262,328.800 90.375 C 332.466 91.257,340.290 94.613,342.731 96.351 C 343.387 96.818,344.036 97.200,344.175 97.200 C 347.606 97.200,360.369 110.991,364.906 119.600 C 368.229 125.907,369.765 131.102,370.997 140.200 C 371.746 145.732,371.923 609.100,371.179 615.932 C 370.112 625.723,364.733 640.279,360.806 644.000 C 360.690 644.110,359.795 645.280,358.817 646.600 C 353.678 653.533,343.364 661.249,335.000 664.416 C 331.303 665.816,326.792 667.050,322.600 667.807 C 317.831 668.669,84.244 668.677,79.400 667.816 C 75.031 667.040,69.766 665.597,67.000 664.419 C 62.492 662.499,55.762 658.754,54.800 657.631 C 54.690 657.503,53.880 656.908,53.000 656.310 C 45.627 651.299,37.378 639.732,34.092 629.798 C 33.032 626.593,32.559 624.761,31.176 618.494 C 30.619 615.970,30.670 141.107,31.228 138.331 C 32.896 130.025,33.767 127.005,35.742 122.688 C 36.324 121.417,36.800 120.304,36.800 120.215 C 36.800 119.919,40.605 113.824,41.854 112.119 C 50.541 100.260,60.909 93.624,77.600 89.240 L 79.000 88.872 77.600 88.863 C 76.830 88.858,75.840 89.003,75.400 89.186 M12.282 92.350 C 12.127 93.093,12.020 94.173,12.044 94.750 C 12.073 95.442,12.210 95.187,12.447 94.000 C 12.645 93.010,12.752 91.930,12.685 91.600 C 12.619 91.270,12.438 91.608,12.282 92.350 M389.937 95.800 C 390.281 99.464,390.280 633.560,389.937 638.000 C 389.721 640.792,389.756 641.185,390.134 640.200 C 390.796 638.471,390.797 95.931,390.134 94.200 C 389.748 93.192,389.717 93.448,389.937 95.800 M11.460 100.861 C 11.127 105.549,11.216 630.862,11.550 634.600 C 11.687 636.140,11.800 515.855,11.800 367.300 C 11.800 218.745,11.782 97.200,11.760 97.200 C 11.738 97.200,11.603 98.848,11.460 100.861 M60.000 125.200 C 60.000 125.420,60.360 125.600,60.800 125.600 C 61.240 125.600,61.600 125.420,61.600 125.200 C 61.600 124.980,61.240 124.800,60.800 124.800 C 60.360 124.800,60.000 124.980,60.000 125.200 M340.800 125.200 C 340.800 125.420,341.160 125.600,341.600 125.600 C 342.040 125.600,342.400 125.420,342.400 125.200 C 342.400 124.980,342.040 124.800,341.600 124.800 C 341.160 124.800,340.800 124.980,340.800 125.200 M43.600 142.024 C 43.600 142.477,43.780 142.736,44.000 142.600 C 44.220 142.464,44.400 142.093,44.400 141.776 C 44.400 141.459,44.220 141.200,44.000 141.200 C 43.780 141.200,43.600 141.571,43.600 142.024 M358.000 143.600 C 358.000 144.040,358.180 144.400,358.400 144.400 C 358.620 144.400,358.800 144.040,358.800 143.600 C 358.800 143.160,358.620 142.800,358.400 142.800 C 358.180 142.800,358.000 143.160,358.000 143.600 M358.000 388.200 C 358.000 388.750,358.180 389.200,358.400 389.200 C 358.620 389.200,358.800 388.750,358.800 388.200 C 358.800 387.650,358.620 387.200,358.400 387.200 C 358.180 387.200,358.000 387.650,358.000 388.200 M43.600 390.000 C 43.600 390.440,43.780 390.800,44.000 390.800 C 44.220 390.800,44.400 390.440,44.400 390.000 C 44.400 389.560,44.220 389.200,44.000 389.200 C 43.780 389.200,43.600 389.560,43.600 390.000 M353.273 399.287 C 352.713 399.847,352.655 400.400,353.157 400.400 C 353.524 400.400,354.127 399.194,353.883 398.949 C 353.808 398.875,353.534 399.026,353.273 399.287 M350.630 402.024 C 350.159 402.498,350.054 402.800,350.359 402.800 C 350.863 402.800,352.000 401.850,352.000 401.429 C 352.000 400.990,351.394 401.253,350.630 402.024 M62.400 406.800 C 62.400 407.066,108.867 407.200,201.000 407.200 C 293.133 407.200,339.600 407.066,339.600 406.800 C 339.600 406.534,293.133 406.400,201.000 406.400 C 108.867 406.400,62.400 406.534,62.400 406.800 M12.095 639.800 C 12.095 640.460,12.232 641.540,12.400 642.200 L 12.705 643.400 12.705 642.200 C 12.705 641.540,12.568 640.460,12.400 639.800 L 12.095 638.600 12.095 639.800 M389.070 643.757 C 388.911 645.053,388.861 646.194,388.960 646.293 C 389.226 646.559,389.703 643.018,389.519 642.147 C 389.432 641.736,389.230 642.460,389.070 643.757 M12.868 645.400 C 12.874 645.840,13.024 646.650,13.200 647.200 L 13.520 648.200 13.532 647.200 C 13.538 646.650,13.389 645.840,13.200 645.400 L 12.856 644.600 12.868 645.400 M388.200 648.400 C 388.048 649.091,388.014 649.747,388.124 649.857 C 388.234 649.967,388.448 649.491,388.600 648.800 C 388.752 648.109,388.786 647.453,388.676 647.343 C 388.566 647.233,388.352 647.709,388.200 648.400 M13.634 649.200 C 13.646 649.530,13.811 650.160,14.000 650.600 L 14.344 651.400 14.366 650.600 C 14.378 650.160,14.213 649.530,14.000 649.200 C 13.655 648.667,13.615 648.667,13.634 649.200 M387.473 651.353 C 387.323 651.745,387.211 652.366,387.225 652.733 C 387.242 653.175,387.381 653.074,387.637 652.434 C 387.849 651.903,387.961 651.282,387.885 651.054 C 387.809 650.827,387.624 650.961,387.473 651.353 M14.644 653.000 C 14.973 654.471,15.202 654.790,15.194 653.767 C 15.191 653.345,15.005 652.730,14.782 652.400 C 14.485 651.962,14.448 652.124,14.644 653.000 M386.667 654.267 C 386.520 654.413,386.415 654.998,386.434 655.567 C 386.468 656.581,386.475 656.579,386.821 655.420 C 387.185 654.203,387.131 653.802,386.667 654.267 M15.234 655.200 C 15.246 655.530,15.411 656.160,15.600 656.600 L 15.944 657.400 15.966 656.600 C 15.978 656.160,15.813 655.530,15.600 655.200 C 15.255 654.667,15.215 654.667,15.234 655.200 M385.777 657.443 C 385.644 657.859,385.370 658.613,385.167 659.119 C 384.965 659.624,384.810 660.254,384.822 660.519 C 384.834 660.783,385.200 660.121,385.636 659.047 C 386.072 657.973,386.336 657.003,386.223 656.890 C 386.111 656.778,385.910 657.026,385.777 657.443 M16.203 658.400 C 16.677 660.015,17.249 660.777,16.954 659.400 C 16.812 658.740,16.520 658.020,16.303 657.800 C 16.045 657.537,16.011 657.743,16.203 658.400 M384.179 661.843 C 384.047 662.259,383.503 663.665,382.971 664.967 C 382.438 666.270,382.071 667.404,382.155 667.488 C 382.239 667.572,382.881 666.265,383.582 664.582 C 384.282 662.899,384.757 661.424,384.637 661.304 C 384.517 661.184,384.311 661.426,384.179 661.843 M19.600 666.941 C 19.600 667.391,23.482 674.935,24.159 675.800 C 24.504 676.240,23.697 674.443,22.366 671.807 C 19.972 667.062,19.600 666.409,19.600 666.941 M379.267 672.761 C 378.016 675.161,374.096 681.413,372.655 683.306 C 370.106 686.654,370.289 686.883,372.889 683.600 C 374.342 681.766,379.652 673.172,380.118 671.900 C 380.565 670.683,380.112 671.141,379.267 672.761 M25.650 678.305 C 26.173 679.243,27.016 680.503,27.523 681.105 C 28.031 681.707,27.787 681.120,26.981 679.800 C 25.225 676.927,24.310 675.899,25.650 678.305 M28.686 682.900 C 28.897 683.175,30.171 684.840,31.517 686.600 C 34.000 689.846,38.960 695.127,42.600 698.399 C 43.700 699.388,42.220 697.768,39.312 694.799 C 36.404 691.829,32.837 687.825,31.386 685.900 C 29.935 683.975,28.647 682.400,28.525 682.400 C 28.402 682.400,28.475 682.625,28.686 682.900 M368.218 688.928 C 367.128 690.287,366.549 691.148,366.930 690.841 C 367.982 689.994,370.922 686.396,370.537 686.428 C 370.352 686.443,369.308 687.568,368.218 688.928 M363.000 694.538 C 359.606 698.026,356.301 700.872,351.730 704.240 C 346.561 708.050,346.409 708.171,347.800 707.371 C 352.126 704.882,367.662 691.607,366.200 691.648 C 365.980 691.655,364.540 692.955,363.000 694.538 M44.810 700.324 C 44.820 700.597,52.300 706.269,53.553 706.954 C 54.806 707.639,53.424 706.493,49.100 703.261 C 46.735 701.494,44.804 700.172,44.810 700.324 M56.000 708.420 C 57.387 709.361,58.178 709.635,57.200 708.836 C 56.650 708.386,56.020 708.017,55.800 708.015 C 55.580 708.013,55.670 708.196,56.000 708.420 M344.410 709.020 C 343.646 709.560,341.347 710.838,339.302 711.859 C 337.257 712.881,335.659 713.792,335.751 713.885 C 336.064 714.197,346.400 708.635,346.400 708.154 C 346.400 707.800,345.718 708.097,344.410 709.020 M59.600 710.561 C 59.600 710.902,64.450 713.284,64.678 713.055 C 64.787 712.947,63.823 712.355,62.538 711.740 C 61.252 711.125,60.065 710.557,59.900 710.478 C 59.735 710.398,59.600 710.436,59.600 710.561 M71.000 715.993 C 73.934 717.237,77.330 718.403,77.506 718.227 C 77.621 718.113,77.374 717.907,76.957 717.770 C 76.541 717.633,75.073 717.089,73.696 716.560 C 71.404 715.681,69.141 715.205,71.000 715.993 M328.200 716.647 C 326.660 717.198,325.149 717.733,324.843 717.834 C 324.536 717.936,324.370 718.103,324.473 718.207 C 324.650 718.384,331.203 716.130,331.565 715.768 C 331.920 715.413,330.899 715.680,328.200 716.647 M78.033 718.544 C 78.505 718.950,80.443 719.193,80.210 718.816 C 80.068 718.587,79.483 718.400,78.910 718.400 C 78.336 718.400,77.942 718.465,78.033 718.544 M321.790 718.816 C 321.621 719.089,321.923 719.138,322.666 718.960 C 324.199 718.592,324.344 718.400,323.090 718.400 C 322.517 718.400,321.932 718.587,321.790 718.816 M81.233 719.344 C 81.325 719.423,81.940 719.608,82.600 719.756 C 83.476 719.952,83.638 719.915,83.200 719.618 C 82.660 719.253,80.832 718.998,81.233 719.344 M318.800 719.600 C 318.005 720.114,319.004 720.114,320.200 719.600 L 321.000 719.256 320.200 719.234 C 319.760 719.222,319.130 719.387,318.800 719.600 M85.000 720.400 C 86.196 720.914,87.195 720.914,86.400 720.400 C 86.070 720.187,85.440 720.022,85.000 720.034 L 84.200 720.056 85.000 720.400 M315.600 720.400 C 314.805 720.914,315.804 720.914,317.000 720.400 L 317.800 720.056 317.000 720.034 C 316.560 720.022,315.930 720.187,315.600 720.400 M89.000 721.200 C 89.660 721.368,90.740 721.505,91.400 721.505 L 92.600 721.505 91.400 721.200 C 90.740 721.032,89.660 720.895,89.000 720.895 L 87.800 720.895 89.000 721.200 M310.600 721.200 L 309.400 721.505 310.600 721.505 C 311.260 721.505,312.340 721.368,313.000 721.200 L 314.200 720.895 313.000 720.895 C 312.340 720.895,311.260 721.032,310.600 721.200 M94.400 722.020 C 95.397 722.319,102.683 722.533,102.367 722.253 C 102.275 722.172,100.220 722.019,97.800 721.912 C 95.380 721.806,93.850 721.854,94.400 722.020 M303.400 722.000 L 299.800 722.249 303.200 722.285 C 305.070 722.304,307.050 722.176,307.600 722.000 C 308.752 721.631,308.737 721.631,303.400 722.000 M152.100 722.700 C 179.105 722.757,223.295 722.757,250.300 722.700 C 277.305 722.643,255.210 722.597,201.200 722.597 C 147.190 722.597,125.095 722.643,152.100 722.700 " stroke="none" fill="#74748d" fill-rule="evenodd"></path><path id="path4" d="M161.362 30.251 C 158.702 32.056,156.804 35.531,155.388 41.188 C 154.538 44.583,154.527 44.601,153.168 44.733 C 150.575 44.985,149.556 48.112,151.900 48.626 C 152.505 48.758,153.225 48.936,153.500 49.021 C 155.018 49.489,154.079 53.849,151.960 56.168 C 149.537 58.818,148.960 58.934,148.606 56.837 C 148.459 55.965,147.561 54.165,146.575 52.765 C 144.349 49.603,144.226 49.190,144.982 47.381 C 145.868 45.262,145.771 44.458,144.597 44.164 C 142.906 43.739,141.738 44.936,139.592 49.294 C 138.489 51.535,136.810 54.366,135.863 55.584 C 133.592 58.505,133.506 58.673,133.801 59.604 C 134.373 61.406,137.040 59.452,139.977 55.079 C 141.439 52.902,141.862 52.977,143.229 55.657 C 144.426 58.003,144.281 58.400,142.229 58.400 C 139.753 58.400,138.373 60.144,139.506 61.840 C 140.422 63.211,143.795 63.632,145.600 62.600 C 146.150 62.286,147.097 62.022,147.704 62.014 C 149.161 61.995,152.065 60.608,153.219 59.380 C 154.429 58.092,154.830 58.147,155.862 59.741 C 157.807 62.746,161.971 63.374,166.041 61.275 L 168.521 59.995 169.113 60.840 C 170.549 62.890,173.178 63.036,176.229 61.236 C 177.523 60.472,177.603 60.469,178.091 61.156 C 179.982 63.820,181.541 62.767,183.173 57.722 C 184.583 53.362,186.075 50.800,187.205 50.800 C 188.136 50.800,188.142 50.886,187.550 55.723 C 186.626 63.283,190.235 65.520,192.440 58.754 C 194.057 53.792,195.887 50.800,197.305 50.800 C 197.915 50.800,198.038 50.998,197.864 51.700 C 195.393 61.685,198.363 65.202,205.528 60.774 C 206.386 60.243,206.522 60.282,207.343 61.300 C 209.315 63.746,210.639 62.839,212.161 58.000 C 214.478 50.633,217.838 47.778,216.822 54.039 C 216.246 57.586,216.297 59.841,216.984 61.169 C 218.217 63.554,220.364 62.816,221.209 59.717 C 223.086 52.825,227.294 47.551,226.648 52.900 C 225.720 60.593,225.830 61.235,228.247 62.245 C 230.020 62.986,232.384 62.426,234.477 60.769 C 236.278 59.343,236.121 59.343,237.923 60.765 C 240.700 62.955,245.782 63.109,248.925 61.100 C 250.673 59.982,251.204 59.959,251.594 60.983 C 252.642 63.742,255.074 62.884,256.107 59.391 C 256.985 56.426,258.990 52.314,260.007 51.394 C 261.175 50.337,262.092 50.904,261.793 52.499 C 261.092 56.232,264.093 57.946,266.644 55.269 C 268.612 53.204,268.730 51.326,266.953 50.375 C 266.077 49.906,266.000 49.672,266.226 48.165 C 267.025 42.837,261.290 44.302,257.604 50.368 C 255.642 53.596,255.263 53.441,256.030 49.724 C 256.840 45.789,256.764 45.019,255.548 44.878 C 253.128 44.598,252.314 46.313,251.024 54.404 C 250.800 55.806,250.557 56.042,247.645 57.696 C 245.240 59.061,240.400 58.733,240.400 57.205 C 240.400 57.041,241.435 56.527,242.700 56.062 C 247.559 54.277,249.705 50.345,247.655 46.983 C 244.392 41.632,235.200 47.001,235.200 54.257 C 235.200 56.078,234.418 57.363,232.801 58.199 C 230.203 59.543,229.808 58.191,231.023 52.117 C 232.449 44.990,230.721 43.094,225.893 46.486 C 224.877 47.200,222.056 50.978,221.477 52.400 C 221.343 52.730,221.336 51.470,221.462 49.600 C 221.922 42.771,216.808 43.459,212.656 50.784 C 211.113 53.506,210.776 52.626,211.798 48.547 C 212.555 45.531,212.411 44.800,211.057 44.800 C 208.865 44.800,206.843 48.936,206.812 53.486 C 206.793 56.205,203.258 59.610,201.751 58.360 C 201.007 57.742,201.054 56.638,202.040 51.484 C 202.962 46.662,202.783 45.412,201.109 44.992 C 199.056 44.476,194.778 47.557,193.601 50.397 C 193.327 51.059,192.958 51.600,192.781 51.600 C 192.604 51.600,192.376 51.915,192.274 52.300 C 192.173 52.685,192.184 51.378,192.298 49.396 C 192.687 42.661,187.056 43.807,183.320 51.224 C 182.093 53.659,181.738 52.459,182.617 48.844 C 183.386 45.678,183.233 44.796,181.913 44.809 C 179.554 44.832,177.600 49.166,177.600 54.373 C 177.600 55.761,175.247 58.800,174.173 58.800 C 172.187 58.800,171.934 56.397,173.242 49.981 C 174.051 46.017,174.056 45.830,173.366 45.326 C 170.953 43.562,169.438 45.735,168.339 52.534 C 166.951 61.121,158.633 61.077,158.609 52.483 L 158.600 49.000 160.400 48.903 C 165.141 48.646,166.409 48.357,167.044 47.389 C 168.203 45.620,167.484 44.800,164.773 44.800 C 162.098 44.800,162.030 44.734,163.344 43.420 C 169.374 37.389,167.657 25.980,161.362 30.251 M163.443 33.270 C 164.552 35.064,162.744 40.843,160.399 43.000 L 159.095 44.200 159.354 41.600 C 159.884 36.277,162.282 31.391,163.443 33.270 M171.054 36.829 C 170.299 37.423,170.000 38.029,170.000 38.967 C 170.000 42.548,175.547 42.535,176.238 38.952 C 176.727 36.422,173.337 35.034,171.054 36.829 M244.026 49.214 C 246.025 50.284,244.033 53.087,240.500 54.176 C 239.700 54.423,239.600 54.316,239.600 53.207 C 239.600 50.164,241.909 48.081,244.026 49.214 " stroke="none" fill="#3232ca" fill-rule="evenodd"></path></g></svg>